<mxfile host="65bd71144e">
    <diagram id="CDpoDud_jafjQpC8P07L" name="Requirements">
        <mxGraphModel dx="1380" dy="790" grid="1" gridSize="10" guides="1" tooltips="1" connect="1" arrows="1" fold="1" page="1" pageScale="1" pageWidth="1600" pageHeight="900" math="0" shadow="0">
            <root>
                <mxCell id="0"/>
                <mxCell id="1" parent="0"/>
                <mxCell id="2" value="" style="shape=image;verticalLabelPosition=bottom;labelBackgroundColor=none;verticalAlign=top;aspect=fixed;imageAspect=0;image=data:image/png,iVBORw0KGgoAAAANSUhEUgAABlgAAAMXCAYAAABWxlhTAAAgAElEQVR4nOzdf3SU5Z3//yc/woREJ6ww7gHHRBl0k2zD6aA206+4WfDzHU+lseCGEkkrmgJrug3SDfsNlDWnxIOSNWz50TX7QQxyalo0qfAxxcXZD2KUrsNZS1qoE7YwVkMkp0zQzJDETBK4v39MfsyEyU9+BOvrcU7OIXNf93W9r/ueAe7rPdd1jTMMw0BERERERERERERERESG5cCBA4wf6yBERERERERERERERES+aJRgERERERERERERERERGSElWEREREREREREREREREZICZY/R8EAgUCAQHCsAxERERERERERERER+fM0cawDkCstiHvL/WSXWSl6Yy+5qde+/dqyZawsh9wdu8mzm651ANedtrY2mpub6ejo4OLFi2MdznUjNjaWm266idjY2LEORURERERERERERGTElGC5TAGvG48PLKkObOar1gpetwcfFlIdNgZtJlBDVZmP1MId5Fzz5AqAB3eJGx9Q7vaSZx+TIK4bra2t/OlPfxrrMK5L7e3tnDlzhhkzZijJIiIiIiIiIiIicp35yU9+wrhx44Yst3r16msQzfVpnGEYxlgH8UVWW3Ybi0qgcO9H5NmvWiuU3baIEgrZ+1Eegzbj8+D2BrHa7VjHaPJIoLaCLdWQuToH+1VLOn0xfPLJJwSDWqttMLGxscyYMWOswxAREREREREREZEwt91227DKffTRR1c1jp/85Cds3bp10LajxXq14zpw4IBmsPzZsaTisIxtCGZ7DkVXLdl0ZXT+cQsXmg4OXXB8LBMt/4uJiX8/unY6O0d13ki0nDsHU6dyQ9c5PqyHxJlTo3ywWwgVuyFKDV2cC53I1DH4G6Gjo+PaNyoiIiIiIiIiIiJDSklJoaioKOqx4uJi6urqrnoMW7duJT09HYfDMWCZJ598EoDy8nLOnz9/1WPq8eVKsARDG7+bzGZMBPF5aqhxN0BqJpkOC70TPoI+PDU1uBsCYLJgsztwpIYdD6srEAj9GggEuv9swmzuN3Uk6MPjdlPr9RHEjNVux2EfYqmv3mYCBAkQaqZ783oAk5n+zQS8bmrcHnxBMFvt2B32IZYtC+CtdVNb20BgwLiCBEIXLdRewIu7xo3HFxy4jYjrHKVVby3u2loaAsOJMzxGExabHYcjFctlzs6JSczDaD3Jxc/rBy94sZ2uP/0KJpqZOOOREbdzyZ4rLR/y9sHj+Ht+j/1LUhx3c2fCaD+KH3JwZyWtzidZmniSgwfh4ZlTmXpJsYPsrGzF+eRS7JesxuXnZOhEpl5y4tWnfWlERERERERERESuT2azma9//esDHrtWHA4HP/zhDwc8/sMf/pCCggLOnz/PjTfeeM2SLF+qBEtt+WwWlTjZfjCPhvUrKXH7QgecFjIcmViABlcxa9aX03Ooh8WRx/YdhTi63zM+1xruyXf1Hi9bNpsygIhlvIJ4q0tYX3xpfVidbNxRSk7qYG9CH64199DXTBnLZodaoXAvH/WsSRbwULFmJetdDf0bIat0NxuzbJckOgLuElbml10alyWDot3byU3t7Shr7snHVbiXw6lV5C+roDbiBDuFe/dEbGYfus5Rlk0LuClZmU/ZpY2SUbSb7bmpEcmdQG05a/KLuaRbFge5G0spcloZtQkmYmatpcPzjxgX2ocs3nVmD+Pj/4rxCXNG3yZA8CwnT1/gq/encEOoYt7f9VPqHvoB35o5mo/jTL5VUEDXxIlwbrBi36KgoIuJX6pPvIiIiIiIiIiIiIzUBx980JugOH/+PG63O2q5njJut5sbb7yRv/7rv75mMfZXUFDAL3/5S/7u7/4Oq9U64JJiV9qXcLg1QFXxSmqCGWzckYXNDIGgCRPgc+WzaGU1OHIp3ZGL02YGAnhdZRSvKSN7mZm9e/Kwm8DsWM2ePbl4q7JZXwVZG/eQZQOwYOtuqaF6Ddn50eorp6SknPUPLiPQLzkRyYxj9R725Hqpyl5PFVls3JMVqt/S3UrQQ9myBympteIs2k1hph2LCYK+WqqK11CyJpugaS/bM/uSET5XPg+urMZndVK0u5BMuyU0o6e2iuI1JRQ/uAze2Etu+P70rmLySyB1+xvsyLBi6r0uFZSs3IL9cCGOwWaV+FzkP7iSat8AcRY/yDLeYG93o8HaMpYtKqH2khirKVlfTPnKRfi2R/ZrpMbF3srExCfo/OOWoQsbF+n8sJRJf72FcZNuHnWbAJhmMDMlpXuWSQp3cI7Nx+v51syZQAt/+vCPnG2dSPzNtzLzL8OW9Gr5Ex/+8SytE+O5+daZhA51ca6+e3mvS8olkHhHIgkTga5z1IcvH9blp/5kPf6ueG6+PaFfgF34609S7+9iYsIM7kjsW3Ks61w9J8/46Yq/idsTb+GGL+HfICIiIiIiIiIiIn+u+u934vF4yM7OHvScnuNPPvnkoLNMrpbw5MrmzZv5yU9+cs3a/hIOj7qpCRT2Jkp6Bd2UrK/GZy9k7+7wY2bsWRvZbgqwKL+ELdWZ7M6yYure68TUPZ3DlurAET5bo6GK9fkD1VfEHoed/EX5lBRXkLE3l/BcRh8TllQHFkzds0ZspDocEZvcN1SXUFJrIXP7nshkgzmDvB07IHsRJcUV5Di7EyBBN+Xrq/FZMtm+ZzuRp+QROqUCt8dLTmrYzJfaBlJ3H2RjRs8ck9B12Rio5cHiMly1q3EMmGEJ4i5fT7Vv8Dgr3B68OanYcLNlZQm1UWPMZcdBO2XZiygpLiMrYyMZlzETbcK0+7l4/viw9mMxus7TcepZTCnPwbir8dE5h3vXL6ibkY5jxgV++9p+auyP87hjKpxzs2vXcW7OmEvihd/y2v4a7I8/jmNq2PJeAMFaXvvZh8yca8dcf5Bdbybw4BMPc2dr2PJhXR+y/99f48ztGcxNbOXXv3iD+lYToRUM2/nDaztxtd5B+t0zCBz+BfuD6Tz++D0kfPh/+Pc3If1v74STLl6qSeGRxx2XLkcG+Gt/xs9OfpXvfjuNUPqmhbrXXuL927/Ld+39EzoiIiIiIiIiIiIy1j744AO2bt1KSkoKTqdzROe6XC62bt2K0+m8pjNZ+idXILRc2LVK9HwJEyyQlZdD/0kjAXc1ZT7I2njpMQBrZi65xdWUVLlpyMpiqHkTHlc5NaRStDEvan1YM1m9uoLq9WVUu3NIHXT6x4Ct4CqvgdQi8qLN5DDZycp1UpLflwDp6adzexHRT8ljz//kYeofTmoeOVEyGan2DMBDgy8AWKKHGXBTHWqUogHizNvzP+R1Nxqo6b4XOzZGjRGTndzVOZQsq6DclUdG1mUsFcYI9mMBjNZTdH5cRsxt+aNvMHiGD+vqOAt0+etwH24l4/GZtNT+DPfND7L6gZkApNw+gV073dQ7Mjj3hpubH17NgpkAKdye8CY1Z/1ckt1ojeWr/7CUe24A0lKYMbGMN357jjvv6CvScvzXnLz9YVYv6G7njnhe3do9za/+IG/401n++D2hJcxSbse869+o+cM93H3yj8Tbv8s9KVMh5XYSP/ET30XUv0US7Iu4/4872fXzLr777ZmceW0XByc+wHIlV0RERERERERERK5Lge4Nx51O57ATFCtWrOg9p66urreOayFacuVa+1ImWGyWSxMFDZ7QRifuspVkl0c/zwfg9uKDIRIsPrxuD5CHPfrUlFAc9gwsuKnxeCl0DFJwwGYaqPUAlgqKs13RywRDG5g0+EJRez0VgJNM+wDJELg0uQJgtQyQPhnG9BGvhwrAmWkfKAUT0WhPjBmD7E9jSs0gkwqqa70EsqzDieL60eXnj3/4A6bWM5xovZPvrH6YWybCH2rO0FX/Bj/9aW9B2oOJtHOGP55J5Csz+6q4IeUBFgCXbLxyUwozw1YVu+XWv+TT35+DsATLmT+eITG8stgZJN4U+uO5M2cw3e6gr4obmJlyE7/99ByJjgzif7GL0venknhHCl913M1fDvg3yA2kPPwEE/7PTnZtOcjEmQtY/nBKWL0iIiIiIiIiIiLyRed0OjGbzXg8nmva7mDJlZ5lzj766KOrHseXMsESTRAfYImeXOhmsTmw2CAQYFh5hSELWazYAVcwOOw4IwUJApgGacdkxeGwQv82RjNh5rKNsNHBilsspALVvgCjvXo9OuvLhjV7BWB8/B3EJOVdXoPxKdz/LQdTOUfCCz/jt2fu55ZEmDgBEu9/gm+n9f9YfkgdXQQHmC0SIdhKe/jvFy4tMnECdPWrrL0LYoGJTOTChfbIE9q7mBg7Eaba+fYP7HS1t3Cu/te88cIvaH3iu9gHzJq00toKsbGxtPv9BEEJFhERERERERERkS+I2267bVjlPvroo2uaYLkeZq70UIKlmwkLYCOvdA+XueIUYMJsAfCF8hoDJQoaPLgAh2Xg2SRDtWMCcBayu8gxrPRFqJ8N+EL5pGvDFGqqYZiNmkypQOCSnFCEhobQvjRWy2XNXrnQdHBY+68AjIsxM2nWuiu4/8pU/vbBNMpeP8gnefczM+0rvF7zPufSuvc1OefmZzXxLH44hTtvfw33++dIc4TWBKvf/1MOJy5naVq/KluPc+QP9/LwnbFAC8ePf8jtaQ8Bn/YWSbzzdl57vxZ/2j0kAF2fvE9dAOxAwle+QvzOI9Td+zApsUD7H6j5LSQ+kkD9m2W8n/g4D6fcwF/emcHdM/6d+k8ZIMFyDveuXbx/00MsX5rImf272LWrne9+928HmfUiIiIiIiIiIiIiY+2TTz7B7Q5tKXDjjTeSmhp99SWPx8P58+dxu9188skn1yw+hyO0m/RYJ1dACZZeNnsmUE61u4GsqBmWIIEAmM3DSWOYsdkzoKKaavdqHFF3YQ9S664BUnGmjjKjY0klwwHV1S5qCx1E3cYlGCBgMvcmIWz2LCyUUeX2kBv1gxHE1xDEYr2Ci27Z7GRZoKzKjSc3lait+hoIWkJLfdlSM7BQRoXLQ1Zu9A+vr7YaF5DlSB31ZByj/TRd9f8+vMLjxhNz+xqYdIWzUrdk8MCMn/LG219lxd/ez0Mnf8au0veJjYX29njmPv44sUDKQw9T/7NdlL4fSyzttMfP5fEFsUBrZH3mRCb8+t/Z4prIxPZ2uOMhlqdMjFhJbGLKQzz0h528UHqE2NguuuJvJ7Hndt9wDw9lnOQXP93CwdiJdLXDzfc/wsN/Cdzt4PAvfsqWg7FMpAtuyuCRxOjdaqmr4eTND7N8wUxigZkLHueRg6/x65MtPJyieSwiIiIiIiIiIiLXq6qqKqqqqgBITU3llVdeiVpuyZIlHDlyhOzs7GsZHosXL2bx4sXXtM2BKMHSzeTIosheTnFJCVX2UrJskcP2gdpyli0qh6Id7Mm19w7qW6xOwEVDIHKqitWZS45lGRVr1uPYu/2SzdoD7i0Ul3jAuZ3MIbdfsRBqpoHIZqw483KwLCunZIuT3YWOfrM5Gqhes4j82gx27C3FaQGTI5M8exnFxesps+8hz35pP1cuKsGXu4eDw5wVMySTg8w8O2XFxawvs7Mnzx5Zb6CW8pWLKPHlsudgEY6IGHeTZ4/sVdBbRXGxC1ILyYmavBqGC0E6T23C6L8c1gAmzljK+AT76NoKN9VB975PPTUz81ur6dkRZeYDK1hzfzst7RB7Q2zfBzR2Jg+sWMP97S20E8sNsT1HpuLordDBiu7Vy7r6l4toN5Y7v/UD1nS109I1Mayu7qL2pfwgrZ2W9i4mxt5AX1N2lv4gjfaWdromxl5yXrgbUh7muynhr8Ryy/1LeXg410hERERERERERESuOavVypNPPtn7+9atW4d1Xvg5VutlLw/1haIES69UcooKca0sYc39tbgKC8mxWzARxFdbQUmJiwZrFjuckckBq81BKi4q1qzElJeBtcGMoyiLVHMGRTsK8SwqIX+RB1fuarLsFkwE8FaVs6XKjc+SyfaizGEsmmXF5kgFVwVrVprIy7DSYHZQlJWKOSOPjVk1rCzL5v7aLFbnZmEzAwEvVeVbqHKDozCHjN5GUsndvp3aRfmULLqf2t5+BvBWV1BWURPqZ94VSq70tJq7ne21i8gvWcT9tYUU5tixmCDgraairIKaBitZO/K6Z+GEx/gg7pw8cjJtmMPvBXYKd+RiH2WQw953ZXwsEy3/LxNnLBlVO+PHj+fixYsjO2liLDcMMMljYuwNw9rHZFjlJsZyw0B/AwwYw0RiBwpulMaPH39F6xMREREREREREZGRu/XWW/nhD3/Y+/vWrVt7lwCL5vz58wAR51wtR44cYcuWLcMue60owRLGZM9j9x4rJeuLKS/JxxV2zOosYm9pLvb+EyZSc9he6mFlSRXlxTVAIXuLwuo7aGVLd33VvSdZsGUWsWNjlPoGkJqznVLPSkqqygk1s5dQM1acpW+wN3UN+cVVrHdX9Z1kcZC7fSOFmbbIZIk1k+17TVhG0s/LZiVz+15MlvUUl5eQH9koRXtLyQ1v1JrJ9jcs2NevobhiPTUVYYcyctleVEimbfQpoJjbVxNz++pRnz/sdmJiCA66mYxMmjRprEMQERERERERERGRKDwezzVfAqy/J598kq1btw6Y6BnonGthnGEYxjVp6QsmGGjA62kgYLJgS7VhGXIsP0ggEMRkNked+THy+gYMjEDQNMBeMEF8Xg9eXxCzNRWbNXosA8Zls2IZ1h4zlykYoMHroSFgwmKzYbUMHmcw4KPB68UXNGNNtWG9FjFeIa2trfzpT38a6zCuazNmzCA2NnaswxAREREREREREZEwP/nJT4ZV7lrMYLkeHThwQAkWkautra2N5uZmOjo6Rr5c2J+x2NhYbrrpJiVXRERERERERERE5AvnwIEDWiJM5GqLi4sjLi5urMMQERERERERERERkStIu0uLiIiIiIiIiIiIiIiMkBIsIiIiIiIiIiIiIiIiI6QEi4iIiIiIiIiIiIiIyAgpwSIiIiIiIiIiIiIiIjJCSrCIiIiIiIiIiIiIiIiMkBIsIiIiIiIiIiIiIiIiI6QEi4iIiIiIiIiIiIiIyAgpwSIiIiIiIiIiIiIiIjJCSrCIiIiIiIiIiIiIiIiMkBIsIiIiIiIiIiIiIiIiI6QEi4iIiIiIiIiIiIiIyAgpwSIiIiIiIiIiIiIiIjJCSrCIiIiIiIiIiIiIiIiMkBIsIiIiIiIiIiIiIiIiI6QEi4iIiIiIiIiIiIiIyAgpwSIiIiIiIiIiIiIiIjJCSrCIiIiIiIiIiIiIiIiMkBIsIiIiIiIiIiIiIiIiI6QEi4iIiIiIiIiIiIiIyAgpwSIiIiIiIiIiIiIiIjJCSrCIiIiIiIiIiIiIiIiMkBIsIiIiIiIiIiIiIiIiI6QEi4iIiIiIiIiIiIiIyAgpwSIiIiIiIiIiIiIiIjJCSrCIiIiIiIiIiIiIiIiMkBIsIiIiIiIiIiIiIiIiI6QEi4iIiIiIiIiIiIiIyAgpwSIiIiIiIiIiIiIiIjJCSrCIiIiIiIiIiIiIiIiMkBIsIiIiIiIiIiIiIiIiI6QEi4iIiIiIiIiIiIiIyAgpwSIiIiIiIiIiIiIiIjJCEy+3go6ODvx+Px0dHVy8eBGAcePGAWAYBgDjx49n0qRJTJkyhZiYmMttUkREREREREREREREZEyNKsESDAYJBAKMGzeOmJgYJk2axKRJk4Y8r62tjY6ODgDMZjMmk2k0zYuIiIiIiIiIiIiIfKH1TFgYP14LTX1RjSjB0tHRwfnz5zGZTMTHx4+qwZ4ZLJ2dnbS0tHDjjTcOKzkjIiIiIiIiIiIiIvLn4j//8z8BeOCBB8Y4EhmtYSVYwhMrkydPviINjx8/nsmTJ/fWbTabtXyYiIiIiIiIiIiIiHwpvPTSS4wbN04Jli+wIeceXbx4kfPnzzN58uSrMlWpJ9ESCAR6p0RdTzwV2WRnF1Pju/Zt+2qKyc7OpsJz1RqgODub7KvWwGXyuVgz9zbmrq8hcC3aCwYIBAIEAsFr0dql/et3P67Y/b+Mfl2b97+HiuxssotrGIOPWUjzxxz7uPkqN3GMq9zEnwEfp9xu3B83A834mjvGOiARERERERGRLy7fMY6dATp81NX5uD6fsjvw1dXhG4PgWj+u4+PWa99uj5MnT/Jf//Vf/PrXv+bkyZNjF8gX1OnTp5k7dy5z587l9OnTYxbHoBmTzs5O/H7/FZu1MpjJkyfj9/vp7Oy8Si34qF55G7fdFuVnZfWAA7vBgBu3u+HaDPD3F2jA7XYz6vH+2rIh+hugwe3Gfa0SCoMJeHG73Xh8YbH4vNQ0QIOn4SoPvDfgKl7G3L+azezZs5k9+6+4be4yiqu9XKkrE/R5cLvdeMPfSJf0r9/9uNz7TwB3WWS/7rl/DVXe4Vd4bd7/QQJuN+6GMfmUhTQeYvOhxqvcxGZG1kQHvlPHcL/1Kr969xinzlyf/w26cs7w5tqn2e+HzrY2mt/axpqifXw81mGJiIiIiIiIXI7mY/zqzTp6xvFbP36XF54toOCpUire/Zio4/utH/NuRSlPFTxF6avHIsfFfMd4tfQpCgqe5YWBzg8V5M2ynRxvA/zHqaw8jv+KdWr4mo+9SulTBRQ8+zy/Ohbtm6d+jldWcnwsgvMfZnOZm7H6Pmx5eTlpaWmkpaWxe/fuMYriUh988AHZ2dkEAmM4VjcMVVVVNDQ00NDQQFVV1ZjFMWCC5eLFi7S0tFzTjehNJhMtLS1XeSaLBZvDgSP8x2q+iu1dB6z267+/XhfZ2dlscYd9cFPzeOONvRzenYPtqjXcQHX+IlaW1xB0ZJFXVERRbia2YA3l+dmscV2Z1E7AvYXs7Gxc3rAXr3L/AjUl5JfUEMzIZeP27ZTmOjF5q1iTX8F1OmdJevjcbF27iX31bSTY5jFnOjQe3sba4lc5NYbfrLi6/DQ2zsH5gIP7UmYwZX4RL5R+m6SxDktERERERERklJp/8wIFa7ax70gjbQDNbsqePsT0xWspXrWQhENPs9MdetBvPVPXvfJFM+6ypzmUsJBVxatYGLePdc//JjT7xPcWxZsOMW3hKorXLiX5+Gae/tWZqG13/KaS/Yl5LJ51bfoa1akKinY2MTevmOJlc6jfWcSr19E3KeNnL2YpP2f/qWvfdktLC3v37uU73/kO3/nOd6iqqqKlpeXaB9LPBx98wCOPPILfPxYZr5HJysrilltu4ZZbbiErK2vM4hhwD5bPPvvsmsxc6c9kMvHZZ58xderUq9SCndXbd5BpGeBwoIEalwtvwIzN6cRMZMGA143HZ8ZmT8ViAgjgdXvwmW3YUy30pKN8Hhc17gYCmLE6MnCm9tTTVz7V4sVV7QF7Fll2M+CjttpFrQ8sdif2qMmtAA3uGmo8PoJmK44MJ6kD9aVHThF78uzDvD6D1T9Y7P3PyyDV0h1/0Ien1kvAkorD7KXaVYvPZMPpzMBqDs3uqPWEMg8BTy1uizV0ffHhCwQJ+AJYzeYh6+njw+Oqwd0QwGRJJSPDwUA5pUBNGcXVPiy5uzlYlEFPsdwsO4seLKZ6SzV5zlxSITSjpKYGjy8YvV6fB1eNm4aACUtqBhkOK2ZC75laTyhx5PW4cQctpDpsmIP9+nfZ9yeS11OBDyfbNxaRaQUyM0m1raGiwUTABz1v7UCDm5oaD75gZNwD8tWGrj0W7M5MbAE3Hl93n3ovxUDv/542a3C5vATMNpxOM0TpQ19c0esYltYz1B2vxx+XQKIthRnx4YfqOF7vJ26ajdlhpzR/fAx/wmySpvT93hiXTIplUvfvdZxo9BOXkIgtZQbxoRc55k/AFtOItymOxNlJTKGVM3XHqffHMc0W3kLPRTrFMW8TbXHTsCXPort6aP0Nz286gbO4iJR46GjtYFK8hRmzZnPfmTd5dttbLF83Hwsd+Oq8kGiDxqN4m0LtzAq7TB2+U5zoaWP2rNBl7vBR54XExE7qj9fjT0gkracfoQA4U+el3t9GwvRkUvouRJQ+NvNx3Qka/XEkJNpI6bnAYWWP1/uZZnMwy9JzPaZhc8yKvOUdPupOeGmkEe+xY/TOY0xIZHbSlN57EtfkjtrPqPdkWP0M3Z+I2Pvfm9mzor09RURERERERIZQx+HDyRQU29i5M/RKh7+JuKXL+eYsC2DBuWAOK47Xg2M6R3ZuotL2FGU505jufIpVs5OYAljS55K47wT13EXC0UN0Olcxv/uh+L7lyzj+fRd133yMlIi2Wzl66DjpC7/PpIiXe8ZJ+j3vdvg4dcJLU9ulz9yDja34Th3D29QWGluZdenTs6/JT/ry5ThmTAIcLHRWstPrg6RoT9qR4yjh1YW3kzzLEupTz3P/ND/exk6mJ6dgmTTAGAFA88fUnWgM9b13HGYKjgVz2On6DYtn3RV5ra6Q1tZWDh8+zLlz5zh37hyffvopTU1NeL1eJk6cyMKFCwH48Y9/THZ2NrfffjtTp06N+Jk7dy7x8fFDtHT5epIrt9xyC6+88grmYY9Xjo1bb72VX//612MdRvQEy1glV3pMnjyZzz77jL/4i7+4KvUHAwECYbkLk9kcSow0VJO/KJ/qnkkLxVYcjsgPvNeVTXaJk+3/3ZOk8eLKzqbEuZ3/3pGJhSC1ZdksKqnFYrNjDtTiLQZ74RvsyUvF1FM+1Y7dV0utD5zbM8lKraUsexEltT0tbcHhsPaLPDTbIr86fFaFlawdeyh19i87GkPVP1DsHipWLmN9jQ+LzYbJ66UYK1k79lLqtEDAzZbsfFx2O/baWnq6WGwv5I09eVjcW8he7wLAXbaS7LLu60v3eYV7+SjPPmQ9qSYg2P86AhYHhTt2k2fvn7AK4qmpwIeD0tyMyKRCahalexyYUm1YIey9YcVuh9raBrBksuON7TgtEKwtI3tRCbUWG3ZzgFrveiw5uzm4MQOvK5uVZaFqq9ZnU0Uhez/Kwx7o17/Lvj+RLJYMwEVJcTmWorgLY/kAACAASURBVBwcVhOpOaVsDK+xOp9F+dX4rHbs1BLq1g7e2O6MOqgcrC1j2coS3D0hbKkiI7WGmpruPg35/g9rs7uKYquDfh+zS8oAWLN2sKfUyWDv9NYzbvbt78S54j4svrco3nSE5IULSGw6TNm2SuY9W8R8C/jefZaifXEsXDyPzqM7eepwI8xJB0JLeR1J381j3XmFxkObqUwspWi+hVMVq9hWP5fFCxJpOlzGtv0LKF3jYErjITaXHSVxehq26WlMmx3H8WeL2Be3kMXzOjm68ynCmqC17iWKdjaRvtBJYuN+NpW1sbB4HfdZ4NS+ShLyNpESc4pfPbUNV1sMMTHQGbeAp4oeYNmcYlyn5pMzy8/xyp0cjkkgYY6TeXEnqHx6J9PznuWxlHia3aWs2Z/A0gXpxJyo5OmdiazalsMs/3Eqt+2jbXo6CxYm0rhvEz8/kkfpYylMwsdbxUUcmr6YBekxHN25jp3Jq3g2J4VJl/Sxk/2rtlE/dzELEps4XLaN/QtKWeOYElpyrew4aXMW4rR52b1uP0wHm3MxNu9u1rnm8WzR/L73WGcT9UdP4MfPiaNHaQJoOsGhacvY/dgUGg9tpuy4DZvTSXrMEXav29d7Lwe8J8Ppp20pi22h2CvnPUvRfEvo3vy8kwW91206eaWPkeJ/lxdcMSxY6Ij4z6SIiIiIiIhIdCl880nA91bvK5OSvsn3w5Zq6OxsY9q0BGAK84teYG73EH/S7Cm9ZXwnjlI/Zx6JEH2Jr6i7LXg5fiKdueGzV/yH2LbZyzxnGp2HyljnWhx6fm52U7pmPwlLF5AeExpbSFy1jZxZodiLiw5hW7oYW8TYSit1LxXx884FLEiP4UTl0+yc3vPM3cfi+D45Yb+3+duYNj0hSrx+Dm3bjHeek7TOQ5Stc7G4dA2OKaF2djals9CZSOP+TZS1LaR43X1Yup/7/dNspNmSSbel4K8cYIzA9xbFm46TvngeCU2H2LbuMEuffYyUSYAtjTnbQgmsqzHZJz4+nj/84Q+UlpYC8Dd/8zdMnTqVr33tazzxxBPExsYC8C//8i8cPXqU5uZmvF4vu3btAmDNmjU88MADVyGySD3JFYAf/vCHeDwDr3+Tmpp63SRfKisrGTdu3JjOYMHoJxgMGufPnzdaW1vH9Of8+fNGMBjsH95lOGu8viLJSEq69Of5o4ZhGH7jzYIkIynpG8aPXv/AOOv3G2c/qDR+cHeSkZS0wnj9bKiWo89H/m4YR43nk5KMpBWvG2cNwzDOvmc8X7DE+EHlqd52Q/X+yHjbH1Y+6RvGhrdPG36/3/D7240PXvyGkZSUZDz6/HvGab/f8J9+29i0MDw+wzhd+aiRlJRkLNz0dr8yBcab/ihdPvp8qI/3LjSWLFnS+7Ph7e7gz75urEhKMpK6Gxi6/uixh877hrHh7Z4gThkvP5pkJH3jReOD8HaSFhrPv3fW8PtPG29vCPV3w3vthtHuN/xvbzKSkpKMFZWnDL/fb7RHiW/Ieox2471NdxtJSXcbP6jsdw97Yon6nnjeODroe6fdOPX6j4wVSzYZvV384HnjG0lJxjde/CDsffGj3uOn33vZeLHyvdB7ot1vnKpcYSQlJRmb3g5ds2jXv//vZ19fcXn33zhtvP2jhX3v9XsfNX70cndMhmEY7aeM13+0wliy6W2jr1vfMJKSvmF0d6vf+/20Uflo6Ppvevu00d7ebpx+e5OxMCnsGg71/ve/aRQkJRlJ3/iR8foHZw2//6zxQeUPjLvDP0OnK41Hk5KMpIWbjLdP+0P3eVOoHwXRO2q0fPKe8fI/5xv/vOMd46MWwzCMFuO9554wXj7ZV+azd54xnnj5pGEYJ42Xn3jGeOezvmOfVBcaj+7yGIZhGJ5djxrdf+z9fcPBs4ZhtBifvO/pu37GWePAP28wDn5mGIZnl/HoP75ifNRz6OTLxhPPvGP0NfGJUV3YU++l7X/2zjPG93Z5uuvcZXgMwzh7cIPxTE+hz94xntlwMNT2yZeNZw6cNQzjrHFww6N9ZUIdMQo3HDTOGkHj7MnfGR+FHfrdju+F2j970NjwvX8z3u/56zX4vvFv3wu12fLec93XqLcjxstPbDAOno3Sx5ZPjPc9fVfDOHvA+OcNB0N99uwyHu2JN+IaGoZheIxdj4bai9Tvdc+uiHtSeOCTsG7+o7Hh4GfGoPdkJP387H3jlZd/Z5yNcm9OvvyE8dx7LaFiJw8a/1b4j8aGl39nnL2S/zyJiIiIiIjIn6+zB40NYc/IYQeMAxvyI8YuLjnv0UeNRx99xuh9pD570NjwvX82dr3jMTye94xXnnvC+F60Z+z+bZ49aGx4dIvR/XhrGIbH2PW954z3WgwjePak8bvIAYTuMYooYyvvv2K8/LuzUcY9ThovP/FcWP1RtPzO2JH/nPHeZ/0PhMY3toSd7Nn1vdCz+CXtfGa880zY+EZEnwYeI2h57znjibDBns8++cj4rPe53mPsejRs/OAq2bt3r2Gz2YylS5ca7e3tA5b7/PPPjaVLlxo2m83Yu3fv1Q0qzLe//e2o4+bRftLS0owXX3zxmsU2kFdffbU3pldffXVMYviP//gP45IZLOfPnx/T2Ss9xo8fz/nz56/CUmGpZOZlYQ/7xryteyaKtwpw5pGXmRr6ZnVqFnl55VQXj6B6i4O80h14az3U1DRgMpm7Z8v4Ijcrd+SSm9GzFJMPr9sD5LE6zxH6hr45g7zVOZQtq+g+wUetqwbIo6gw45IyNbVFODMGyBw21OJu6PvVnBOt0HDqjx57jasGyCDoraK8e48RL4DHjdfXvbwWQG4huY7QMmoZmZlQ7qHBFwCTpS/raTIPnQEdqB4aqC3zgXM7hVn972EVbk8uqamDVx2dCVvmRrY7PNTW1lBjMmEKmrACrmDopoZmi1SwPh8yMzNw2jPJcXTPjDKZMXdPnjGbzYwuwTua+28lY+Ne/me1h5qaKqrLqqlYn01FVc+MHxuZG7fj8NRSW1ODyWQiaLICLoLBSwIAn4eaGiC3kNUZVkyANSOHXGcZ+a7uMkO9/xu8hD5meWR2L/mVmpVHXnk1PR8zX62LGiCvqJCMUEfJyFtNTtkyKmpqKXKGzzZq5TfPr6EyZhmr1m4jp3dmQT0njndytLGAoz0vdfppm9MJvka809Nx9n0ZhBm2ZELTJgYTz4zkON599SX2twFxMbS1QXLPN0XS0nr3C/HVe5me7qSviRn0NuGrxzttTkT7U5LTSTzUiA9oZDpzgKZ6L9PTuwtNmcZ0GkN/TpgGTX4gAbCRnhzREZK9R2hiEimzpnPsVy/xUhPANGgK+0pLYjKJPV8pmRRHXPeh+hPHmTNnTVifZzEn3cuRnmsT1kfiZ5Ac9y6vvrSf0OVoo43kvi/OJE6PmAWVOP3yFtpKTpzR++eYuARCX9GZMvg9GaSf6elh/ZxyF9/OAXxv4e2s5+jTBezrOdbWScL0NiCeKbPm8/1N82k+9Ra71xVgW7WZb2qTGBERERERERmFM2+W4UrMo3igaROW+RTtnk/rx6+y+ekKErflMMsyn6LS6bzlOsKRxkTS56ZzOC5teHv72tKw9Y6bTCMxsY22NphkmcX0Y7/ipdAAAtNo6n62r+fE8XQiH5+/Tejx2Utn/VGeLuh9eqatM4Hux+coWjlWuZvGhWtZMSXacRtpfcExLTGRtrY2fPVeps0JH1+ZQnJ6IocafTCtf58GHreJn7OQBa7N5K2ahi0tnbkL5uGIWA+sjc5OuCprhHVbuHAh06dPJzc3l6ysLF5++WUSEiJn8/j9fh555BE+/vhjKioqSE9Pv3oB9fPCCy+wZMkS6urq+Lu/+7tBZ4SUl5dTXFzMLbfcck1m11zvIhIsn3/+ee+0pOuByWSio6ODSZOu5LvbijM399I9WAIBGgCslohBQYtlhEtvBT2UZT9ISa0Vu8OKKdiAuzZKObOJvgWrfPgaAIctom2zOVrbkYPoPWV8gWgj4t2GvQTVMOuPiL2bpQGvy0XfHu4OHP338rBEOW80hlFP+PHQPYyWNDATur01eBvysEdc7iANtbUELKnYrGYCrnweXFkNNgc2C/i8bsL3q7dmbeeguYryKheukgrKfGBxFLF7d25o6bIrZiT3P0ggENovxplVhDOrkNyybBaVlFDhzmFjRhBX/oOEumXDgg+v2xulnr76ggCm8Otvxhz+ph3i/R8IhDJ9VkvEp4xoH7OInprNoaSSL0BkT+NJXriMtLKfU/bzTpYvvY+knn9YY+aw7Nnvc1f/vz6aG8HfFjmDtjPqfNp+PubVdbthVR6Lp8dBm5fKI9GvVwzgb4uss7eJGKCts98M3k46iSGG6STGHKK+A5KT09h9/GNISYKPj3PCH4cTaD5xnITkeYQmBvuJbKan3lbcW5/maPpals1LAPwc2VZJ/ZB9jKGzs4Pw/1F0dsYMcDleJXQ5FhO6HJUMcDmuouHfk0gxtLVF9rP7ZUhYQMHmbzIj2mlA86m3+PnO/fjnLCNdyRUREREREREZsVZOVWyirGkBa59M6c1H9O0J20FrcycxU+KZBMQnzWPutDLqfYT2JZmSwvxvpwA+3ireT/rSxy7NC8TFEdfoxU/UbW8jo3Fv5emj6axdNo8EwH9kG5U9AwgxbQz8+FzA5m8O9PQczod76yb2T8tj7fyRffkyNITSb8ymsxNioo1VDDJGMGkW3ywq45sdrfgaj1K5aR3enmXQ6KSTaSRcg+XA09PT2bdvHw8//DAlJSU888wzEcdLSko4ffo0+/bt44477rj6AYUxm8288sorLFmyhF/+8pc4HA4WL14ctezXv/517r33XsrLy8c0wRIe30CxXgvjw385f/4848aNG3Vl7e3tNDc34/P58Pl8NDc3097ePvrgxo/H74+6uuCVZ7ZgtQBuT9jAeRCP2xW9fM8ob8AXMdAerK2ipBaydrzB3j172LP3MHvzhmrcgtUGuN1074UOgNdTE1bG1D2QXUtD2MYUDV43AFbL5a57N9r6u8/zOcjbvYc9e0I/OzYWUbqjkIxruju0CVMq0NBAQ+8ofBBvbS3gwHJJLCZSM3Kw4KakpJqwST4Ea8vJX5TNg+td+GigprwaX2oRuw+G+ndw73ac4eUDAYLWTIp27OHgf/8Pb2x04HMXUzPwcoUj7tvI7k8tZff8FbPvL6HG11eHzRb6TkMgGISGGsqrfaQW7ebgnj3s2XOQvdudDMhiDc38qnFR23N9fW5cYR+Rod7/ZouV0Mcs7FMT9BD+MTN1Z2xqIzuKO9RR+vc0foaDnKe3sXZBDIc3reKpijpaSWHuvBPsP9xXh++tUl74TStMSSY9xsWhUz1HWnEfPtJbLiYmjsam5u7fzuA90XOkjTb/dJJnWYiPjyeeJuoH+OtpSnI6Ma5D9DXhpreJKXOYN20/+4+19rZft38/nenJTGEKc+b5cR1pJt6xnMX+MlblrWLt/uksXXCCzQUFbD4xj6W9WaMmXK46emtyH+ZIeho22mjzJ2CzzeiO1U99Y/RYw6XMncfx/Yf69r7xvcW+I3NIi/ZVmLY2/NOTmWWJD2201lQffS3YwbSeoa7uTG/8Izf8exLOljaHo/sP9/XzVAUFW39D65Q5zJvmwlUXdm8qnuXNj4HWY7y0toBtR6axuHgzRTmzh/xPqoiIiIiIiEikM7y7tYjdLKX4SUfYc2UzR3dvZrPrY8BL5ZrNHOp5aG31cqJ+GpGTHUJJi8Nz13YnCfqJTyQtwUu9L8qxftra/CTYbMyIjyc+Hvy9Awg20uYcjRhbOVVRwNbftDJlzjymuVz0PT7XUfHsm3zcv/LWOiqe2sSROQU8nTMr+uSWQUyZM49p+/dzLKyd/fs7I1fz6OvJgGMEze7nefbNMzApHkvSfSyYG0NjU3elp45zNC2ZxBHGNlqzZs2io6ODtLS0UNRtbbS1tQHwla98hY6ODmbNuhq7wQytJ8mSkpLCP/3TP/Hee+8NWDYrK4sjR44MePxaWbx48ZgmV6DfDJbx48cPVG5InZ2dnD9/Hr/fT2d3ZjEmJoaEhAQmTJhATNTM4tAuJ6boatmSn01F+EupeWwvyiAjz05JcTErVzawOtNOoKaCsqrIs3s2Di9eXwJZVmoqthBexGQKzYDx1tbS4Egl6C6nuGyomCw4snKwVFewfiU05GRgrq1mS7k7rIwZR1YhqRUl5K9cgy+3p0wN2IvIclzuNInR1m/GkZmLpaKcNSvNFOVmYGqoomx9FQ3dm7wPK/VjseAAXOUllHhSceTmkjHkSf2lkpnnpDi/hJUrfRRm9dxDH5acUqLsA485I4+iTBf51fks8tWQ5UzF0uCmvNxFA3YKV2diJYDJDHhr8Xh8WM0NVJcU05cTCFBTPJeVVXayNuaRZYNalxdIxdSzNFj3FI3yLcWYbHYcRZmMbLWykd4fO5mFGZSsqWDlIh+5uQ6sPg+uqiogg4xUC5hMhLrlweOzYm6opqR4gIRiT51FTkryy1h0vxuH1RSayRP2j/WQ7//UDPLsJRQXr2Rlw2oy7QFqKsoiPkNmRxaFqRWU5K9kjS+XDHMt1VvKqcFOUZZjwNlLoUSLg1ZfMzHArIWrSN5URN7+OOJoo23aYorXxQPxPFCwkGfXLWdVQgIxnTGkzUnrrWeWcymsW8OqfQnEMJ205J5/Ym2kO3eyOa+AhDhgehrJ0wcIZsYDFCx8lnXLV5GQEENnTBp9TUzhvuXLOLppDauII6azDWzLWPtY6FsfU+5bTvqzZfwqcRXfXLGJu3orvY/N8/s3lEga+1i3aicxMW34Saeg+C4mAWnz4li3bhWuhBiISYueJOlv1kIKkjdRlOciLg7a2uKYt3btpbOAAGzpOHduJq8ggdDlSGagyzGgehebN/tZvvVJHKP6psgI7kmYSXctY613E0V5+7v7OY3FxTnEA/ctXxp5b+asojgJ6EhkwVObsWiDexERERERERmtOhc7jzYBm/h+zxCMbRmlRfOZX7Sbnsf+xWuT2VSUhysujjY/zMl7KuzZvJXfPP80h9LWUjTgjJAZpM1rY9vRM8x/YPBZJpa0ecStW8cqVwIxxJDWO4AwibuWrcXbf2wlJx64j+VLj7JpzSqIiyH0+FxM/4UefEcqcdU3wc51LNvZ/eK8tex+LGV412vKfSxfFtmObdlaHpsBXJI8GniMYEqaE9ump8lzxRFHJ51xTlYtDD3gnzpyhOS5C0ec/Bmt3//+97S3t/O1r32Nd999l3/6p38C4LnnnuNrX/sa7e3t/P73v+9NwFxrPUmWF198ka9//etjEsNwnT59mkceeQSAX/ziF9x6661jE0jPhiwtLS1Gc3PzqDel/+ijj4zf/va3xvvvvx/x89vf/tbwer2jrtfv9xstLYPtkDRcA29y37u5tnHaeL3g3t7X716yyah8cUXkpvbtR43nl9zdXeZuY8mGF41NKyLreLNfHZsKwjcK794ovrd8D79x9Pkloc2+k5KMpHsLjMqXfxSxyblhGMbpNzcYS+5OCqt/g/H26QG63LPJ/fMDbOHef5P1IesfKPZ241RlgTE/7Lx7V7xsfNA+cDs9sa3ou7Bh/e++VkNsAh+9Hr/xwcsrjHuTBoglqtPGmxsejTgn6d4VxotH+zZUbz/6fNh1udco2LTBWBIei/89Y1Pv+yLJSLp7vlFQecpoD2+j933RsyH8yDa5H/r+9Oc3jr64YpB+tV/yntu0YUlEm5Gb3IfOOfX6BuPR+Xcbd89/1PhR5QfG25vC+jTk+98wjNOvGwX39sR0t7FkU6XxYsRnyDCM028aGyKu5xJjw8AdHVSwpcVoaYm+U1mwpcUY4IjRMtCx4MD1Ra9n4LLBlhYj+uFPjHe2FBqFz+0wXjn4nvFO9S7j3zZsidh8PbQJXPcG9APFNKJY+5830LUZbh+uocvq58DvjTHvl4iIiIiIiHyJDTI2MazTPcauqJvKj7ytgZ+RLzPGYRtBO0M964cfO3vA2JD/snHyisQ4PDt37jRmzZpl/MM//IORmJhoPPTQQ8ZDDz1kJCYmGt///veNO+6447rYQH4o//qv/2okJSVdFzEkJSUZ//qv/zomMfzHf/yHMc4wDAOgsbGRuLi4Uc80aWho4Pz581GPxcfHk5g4uolWXV1dtLa2Mn36iL8bPXrBAIGgCbN54FkhwUCAYNjm5VGPM3gdA7cNJrN5kH1GQntrMJr6hxfEKOu/EnEFCXIF9mrpvo4Mco+itT14/N3Hh7zvg9y/YJDeaS2jNtLrPET5Yb3nuov6vHi8oT1bQjOTvFRk3896Sjm8J4ueSULDef8P9Rnqq2d4sf1Z6mjF19hIW9x0plvi+y156uOt4jLIK2KES5iKiIiIiIiIyJdAa92rVLY5eeyuqDvLf8l1cOatnRxN/D7fvIYrcv393/89Bw4c4Oabb6awsLB3M/lf/vKXPPPMMzQ1NfHggw9SVjbkkkhjqrKykqqqKl555ZUxi+H06dNkZ2cDsGfPnjGZwXLgwAF6EyynT5/GbDZflQRLXFwcSUmj2w24q6sLv98/dlN8RKRbgJr197OsAjIKN5JnN9HgKqOk3E1q6WF2Z0VZg02uolbq3jwMcx8gRctWiYiIiIiIiIhc9+655x4efvhhVq9ezeTJkyOOtba2sm3bNl577TX++7//e4wilJGISLDU19eTkJAw6gRLY2Mj58+f58KFCxGvT5gwgbi4OKzW0Q2+dnV10dzcPOoZMCJyBQU9VOSvZL2rofsFC47cUkqLMlB6RUREREREREREJLrPP/8cn8835Dh3fX09N998M7GxsdcoMhmtAwcO9G1yP27cuMuqbPLkyXR0dNDe3s7FixeB0Ab1JpOJuLi4y6r7cmMTkSvElErOjsNkdS/dNbIl2ERERERERERERL6cJk+ePKxJBJpo8MXSm2AZP378ZVU0ZcoUxo8fz6effkpHRwcAkyZN4i/+4i8wm82XVbcSLCLXly/tnigiIiIiIiIiIiIi3XoTLN0rhV2WG2+8kfj4+N4ZLOPGjWPChAmXXa+IiIiIiIiIiIiIiMj15IomWHoSKlc6qXIlYhMREREREREREREREblSrkiC5fPPP6ejo4Ourq7e2Ss9xo8fz4QJE5g0aRKTJ08e1XJfSrCIiIiIiIiIiIiIiMj1ZNSb3F+8eJELFy4QDAZpaWmhvb2djo4OLly4EFFuwoQJxMTEEBsby8WLF5k0aRIxMTEjak97sIiIiIiIiIiIiIiIyPWkd2f7iRMnDlbuEp2dnXz66aecPn2azz77jM8///yS5ArAhQsXaG9vp7m5mdOnT3Pu3Dna29tH1NZIY/vCaf6YY6d8dFzJOjt81NUNVGcrPl/rlWxNRERERERERERERORLpTdzYTab6erqGvaJbW1tNDc3j7hBv99PTEwMkydPHvY5ZrN5xO18cXTwm59v5vi8UmYPVKS1jjcrj9AY8WIyzscczBjoHP9xKishr2g+lv7H6ipZt8nP8uefxBF/WcGLiIiIiIiIiIiIiHwp9SZY4uPjaWpqIiYmZlgnRttvZTgMwxjRniqdnZ1/5gmWNqbNW8vilEmDFGnkyPFO5i1LJ6H3xQTiRttkymM8/wJMGqRJEREREREREREREREZWMTaW6NJmFxtVyymDh91Xki0QeNRL01x07DNnhUxu6P54zpONPqJS0jEljKD+NCLHPMnYItpxNsUR+LsJKYMVDZae9PbOH6ikYTENFJmxOM75cbblEBiWgoz4oGOTtqIYci0VoKN5NmzL52NMlQsrWeoO16PP7y/HT68XrClWJjU/fupE16a2uKYZpvNrFAhfHVeSEyks/449f6wmEVEREREREREREREvuQm/PjHP/5x7y8TJnDhwoVhbSrf1dXFhQsXiImJGfFPfHw8sbGxQ7Zx8eJFbrjhBiZMmHB5vQT49Ahl217j/fdPEmu7kwnefZT9by+3/c1XsUyCUxWr2HQ4luS/TqDlvZ/z3KE4/ub/sRL7x338f9t+znFvkGBLHIlftfKngcr2b2/TDt755CbutAZ5p6yM/f/1X3hvvBNr8B3Ktp3gNudXsfiPULb7LGkZt1+apOnR9kdq3od7opQZMO62P1Jz8BDvHf6IhOR+/W0Ja7PZTemTL9Nou5Pb8bKv7H9Tf8c3mH3Tpxwp28SOg8fptKZx4yfV7Njl5bb7v4plgNuxY8cOKisr+b//9/9e8vPhhx9y1113XfZtFBEREREREREREREZa6dOnYqcwRIbG8unn346rORHQkICCQkJQ5a7HB0dHdxwww1XrsKmGOY+9ST3TQEcs7HFrWXnER9F8+OIS87jqZyU0AyP2TY6nyrjaLOD+QAxc1m+7tskAdDKmYHKTunXXucclj75ACmAre0I6+oX8/QDKYCNtiNlNPohZbixNx5m30v1fTNdkp085kgYPO6mOJxbo/Q3ra/ajs5pOJ8qYHbSFMDB7AQ/yw/XkTNrGtBJ8uK15Nw1CUgmrun7HPE+RsoAQefk5FBYWMiHH34Y8frMmTPJyckZbk9FRERERERERERERK57E/u/YDab+fzzz6/MrJHLcOHChSu/94otneSwJMgMWzLeI01ACjOS43j31ZfY3wbExdDWBsmd3QXT0v5/9u4e5nUsv/P8j+2qtruu7epGuwFpgobgduCkJ9gNmgImkDdwSiUDUNhgb3ideINJpGSD2YDsYILZYHyDCZ6JSOwkEjBAFRwMFCwgOlgHTmaDHUDrRAJsoNE2qrrcBTc3ICnxnTwU9bx+P8ADVF1J5HnjOYf8k4dpcEWS3rV/N+/HP9YfFP73D2q+1NMf/A/603/9J9ftfZo8y9Kalqb85gIs3/3RH2n6N/9FDw9/n+xGf69rVn6sP/5x9qKW7+qzz+oyefXu3Tv9/Oc/LwRZ/vAPG+QrDAAAIABJREFU/1A///nP9e4da4sBAAAAAAAAAF6PSoDlk08+0T//8z8/eYDlN7/5jT75pJK82/zyaxVCBN9m//f/6f/c/Cfpz/9M/3r6mfT1f9d//qv/3rARk++O6NPP9Nm7d6UlwjrS0pjfq6+if6///a9/pvX/8if6XNIv/+r/0H/+2+HJzAdZJBFcAQAAAAAAAAC8St+p+8fvf//7+uabbx47LRfffPPNfZYf+/u/1F/+t6/S//lK0f/1V/rZT38i6Wt9/cup/viPfqR3797pnf5ef/vLpo2YfNfQr/9O/+1v/l/93a/7/qAjLY35zW3h61/q85/8RP/i3Tu9eyf98m9PN2cjC7IQXAEAAAAAAAAAvFaNj4j84Ac/0C9+8Yte72MZ0zfffKMf/OAH99n4j38qbTf68//4qT79+pfSz/6N/u3/+F1JP9HP/vQ/6t/92b/R559Jmv5Ufzxt2ojJd8189df/Sf/ur/9E/+Ff9v1FR1qa8vt316/86Kd/os82G/35X36uT/WpfloKwAxFYAUAAAAAAAAA8JpZcRzHTR9+++23+vrrr/Xpp582fWVU3377rd69ezf+0mCS9Hf/Vf/2L6Q/+9/+J33+1Vf69tN3evfd0nd+/ZW++vZTvat8UMPku738Wv/3f/hf9f/86V/of/4j05+2p+XXTfnN7furr77Vp+/eaazcAAAAAAAAAADwWn355ZfNT7BI0qeffqrf+73f0y9+8Qt973vfu2tifvWrX+kHP/iBvvOd2lXLRvXdpkDCd9uCEDd8t5dvNf1Xa/3ENLjSIy2N+b1+Y8RAEQAAAAAAAAAAr1/noyLf+c539MMf/lC/+MUv9N3vfleWZY2agDiO9etf/1o//OEPR91uxWdT/exn0mf33csN3ulf/EuW1QIAAAAAAAAA4CVoXSKs7Fe/+pW+/vpr/c7v/M7NgZY4jvXNN9/os88+u/vTMQAAAAAAAAAAAGPpXCKs7Hvf+56+973v6Z/+6Z/0D//wD/r000+Nl/T6zW9+o2+//Va///u/f/+nVgAAAAAAAAAAAO5g0Nvkf/u3f1s/+tGPJEm//OUv9Y//+I/6zW9+I8uyLn9S8pRK9vdbv/Vb+t3f/V19//vfHy/1AAAAAAAAAAAAT2BQgCXv888/1+effz5GWgAAAAAAAAAAAF4Es/W9AAAAAAAAAAAAQIAFAAAAAAAAAADAFAEWAAAAAAAAAAAAQwRYAAAAAAAAAAAADBFgAQAAAAAAAAAAMESABQAAAAAAAAAAwBABFgAAAAAAAAAAAEMEWAAAAAAAAAAAAAwRYAEAAAAAAAAAADBEgAUAAAAAAAAAAMAQARYAAAAAAAAAAABDBFgAAAAAAAAAAAAMEWABAAAAAAAAAAAwRIDl2YnkW5b8KPdP51BLa6nw/GSJuqOa/L44T5SHl9wuIl+W5SsrsnO4lLUMNV5WXkO7wnCvsf7fQJ5K/cJzN36/9VheY1t6Hl5umxgX5XBfZuXL8X5351BLy5JlWbLeekGnZfHWiwFnhUtLyxd4khr5tx/HY2zjJTqHyxc1jweAsb2pAEvkp5Pf3N9LGPijh5UUfJQ7MfxhbsLfNMYnA6FVOFGLfOttnxjnT5ReWFsZonJc3GNC+MJOuOr6ipeS9rcpuYD0Wo9RYEzn0NfGO2htj7O9Nz9naFTul5ILTtkYy4WIl+0ttPuXncf0eCvM5e5zU1JynnZSHMeKx+pYX6joYaXdiOPLszTgnOZlH0vPw9sdM5O5xF3P0wEAo3hTARZJkndIJsBxrPjgabeaPu8Lp+dQ/sbT2ji6knHkONJmX5fJs/bhTo7j3JLCV8pRcIqvbSWOtR1cB89VcvI5jwKdcvk8aH7jMfFK7pYs9RWb+SvIk6G3egcW+uEu9fGNccy110ukh5Wtw6u++oW37XnNQegnn5aTBT7iWKdAWk3HDrKcdYwke/bazhGatBxf6TmryfjyGo+P15gnPJVIvjVXlOvHDvLvv3rFLatkODPNRk8QALwMnzx1Ap6UvZAnKTqeJfuZTownrrbxbZtw14E09xW+3xafgoketNp5CoJIu/D6z/Y61o27xEuQ1v8hdpVvFvY61uiX3iautrE79lYfj/1egbPRah9pbXNh8vmxtY7ptYButtbxuH0Yc4Ym5X5pIncbKxsJJ+5WL3lYfOveQrt/bXmcuGt5q7nC/VnuaDdNHXXcSVqPtLmXbIRz1hdhwDnNazuWnsKbHDPPR0Vy5C6u/ZW93o5/ng4AGMXbe4IlL9prUxi0+rz/pPzIef5R1eQzPyp+p/0uuuJjn5Xv1qxJX1y+qMfdBbOFXGencF/8YrTfyAnea1H6euXOm8ivLJeUpanuLp3qHbilR1tvuKvnsqRZTXmVP7ukofZR7lvucDSvs0o5lZchy28k8mUtQ0Xl5dsKv1kqPHaXT9ud0NF+I3mL9klaWzrr6jXyZVlzbSRt5rcss1Xadmc776gTtbedvpzZLNtYZ/2d88dNpc1Xl66otGU/uh7rhSVl2n9T+I4flcqm791IyW/mSUWW8mh4PJf6j8IyXi3lWMxrLt21x0fTWs9t7aK9Dorq+/by/vrUj0mdNhRoS3121E2pvAvpb6unSpl/1MelpelqJ+1Wmpb2Ncaxdk1y27bqloC5pr35t1l9XsurcxlN07w09eONddR2zPVtq8n3htZLcW6RjWHd85rqPKBlOYvyfKKr/2hps+3jXSTfWio8V4+Xah9ZqjeD9BW2tQxVHJbL/VLp/+veRWbch3e0jdYxvCUvvceXvszGjcFpqZmDJB+l7SHKyuNajk37ql3SJ1dn5XZf3U778Wgyl29vZ+ble82OWR77nQOV+tVBc6KaOfRIY4qUf9qkfa7ZNG7nvqBlob1lv2+oj8hvHLeL7yJrqsvmdlzUtqRQvzybHV9Dxpehx0dz316smvbzoX7HX/t4XW2HNXlqrMvbrye0lrlB39829hfnudV8G12TKJ/HnrO67Lm/pvPrjrGi8fity0P1pL7Xu3Hbt3FDHzaZydZOq4f6H9x8HaZmrvo34VLWdKWddlpN+42X1+QS+gHwxsVvyMFTLJX+vEP+G7EnxYV/OgWxIycOTnEcx6c4cIq/OQVOLCeIT3Hu88v34zg+eLHkxflN5jZe2l72+1waSr8/BU7sXDae5umy//Lmr2k/BU4xHeXPctso/P8piJ2O9JT3f/DyeUrKtJLm0udefQE15qf6USl/6XaT/VTrrbVe0jwX2km5jg3q7JK+yzYOsVepi/Lv69vmtRzT/OXKo70MKpmMA6dYL1Xt6SzWY/l35Tot/VtrO6q2mSRv9XXfp07a2n9tzst5O3i5/ZvWX7msm9pjOb2l+jl41b6nXIb532TpyOWztb/oUw6dx3NlA6V6y7eDljZY/t0piJ1rw6s5Psrbqh4fxW1210FRzXFeV+8m9dPjN6VCSfPUdNyc4sCplnW5TIrtMN1Waz3FDWVe3/+bHWs9+oWWbRXbc6kNtJZtzVhdo2v/dfm/Zq1PP149fqrHk2lbHVYvlc8PXprO7nlN7TyokKf0t5V2ln63sU9qbrPd4135eLkew7p2tDV9t0H6yt/P6rypTda10Zv68K620Wecz++7q31U+5N+bbCrbxo7Lc1zkNq5WdO+GtpDtt/qXLllflpzPPaey3e2sxvm2SZ5HHIOlE+vwZyob9m2q7b/Yn13zzVrx+2Kcvm2tfeGfWZ57eyD6ttxXb5r++BBee5xfPWa/9SNL0OOj665UI/xofXcPJ8tk/OcYvprx+BbjiWj+dENfX9p7C9uo5jv9nqqn5c3z9O792c6R+xz/DbN1Vv7z475U2UbRnP92kRer0v0mIcbXYdpmN/X9bu95vcHz+g8EwBeky+++CJ+ewGWmosdvQfR2kn+IfY6JwcNJwaN22u/WF/KVK8AS92kKMt3a4Clsv9ifjoH9rr0n4LYKZ3g9A+w1E2UGiaS+X2X0tF6UbjtZG5gnbVeiEvT31rnjeXYMZlubD/9J99N6UwClnXbvjHAUpvmlvR21kn9bw9ec/6rwdi2k/vu+ssfb03tK98m29tLPt9twc6Gk2CDSX19oKnteO74fZwvi+aLl91Bm672UdcGc9/pUQdFzW2ovR9pD0Z3/aaUuobxqbk+C228pe7b66n5t9U8mR5rbf1C17YaLp71qo8+/V93XroDLH378ZaxybitDqmXtvLontf0vRham+a28dZ0/Cp8v3q8dJWLafoaj5tbAiwmfXhn2+gKYNWXQ347bW29bQzt6u+afztGWnrMQXrtq/R5W4C1cX7as+9vmct3trOb5tmmeTQ9B6pPX/ecKLfdlrJtlwuqXv6KF5K75hK96q7HeUxz+zXtg3qcMxn3qd157j6+6tLQb7w1Pz665kJ9zwm7zz3NznPa83T7sdR9rJX7rqF9f/NnHXVfqKf28S6ulINpgOXGOVrHNvoHWG4/P+it5qaLm6/DNM2zKm205/yeAAuAN+yLL76I3/YSYbK1PnjSZq/+T5tnj0tmf8mj0l2/OdYs55Slwey9iKXHPOfde8/2s/Cyl91Heljt5C16PMY5m8nRRvvL47l7bYzTvNE8n+bpSjuTn2cmrrbJGypLj+Am6x9XXjA5m8nJ/tteyLvkI1KyOtbQx1hN819VfMR2qlWfAml9aVyPMqixa26Ynem017EOXla347009HyMavI6UftTx911ssvaTfrXeejkX3IfF99fNKj+omPySPbxqF1NemeztpqSKssJDD2ObmZ4PGfLHaV/00thTeRuTwqULaNwXZYgaQJ3fEXi4DpoM6R+xqjTSMf88mkNbbz+uMpprCdzxsfaoG0lfcIu3KdLHZy1D3e5djPO8TJmXhKGx8+IbbU5Lw3jR/vW6uc1DeltPK4ns8ZlKpvb7LDxrp15+qQ791NdOttGUx9bb0hb75pDXLT0TY+elt77mmjhOpc+5rwPtXNcLeoOk8b5aROzuXx3Oxs6zzbIo6Rh50ANsjlR13aNy7Yo/5L7OF5fjudhc82eWtr7ZOHK2YXaJwWucJctVT2sD6po7INvy3P78dU23g4ZX4ac62ZzoT7nhGvFB++yzFl1ednsa/c5z0ncfj2hre/q1/cPqZs8w3q6w8vPx5ijDc9/322MdP5mrxXHJwVO85Jh9Ua6DqN7zIkB4HV54wGWIRwFpzg3Wa9efDWTuzjW6axwOdcmf+H34PXek73wpI2vMNxr4wR6bzBjv7xPYx4pOK0NX67m6RCXy8x0G6mJq20cJxOMaJ5OimeaOVJULsjjMTeBsPU+cLTxQ50j8/wXmdRZ3c99TVfKtaOTgj5XhXbHmnW3M33KIC85qW4NLvZIp73O2qGt1bT94k1fk5ldk9fkxLNZd50UT7KTv+2QA3do/WVmMzk16T0e26e7kT/VSoFOWfpPwQ0XE29heDwXAlXp3zr7dvLS5ziOdQoizZehztmF84EXy5qlL6KVBtdBUbFNDqmfUev0HGo538g7XMs5PzzUH1c5rfVkZrRjrc+2LuucT7WyD5fPxirbMfOSMDx+Rmmriea8NIwfQzSkV03H9fnYOG40t1nT8a4P8/RJ9+inDPRqG3V9bL3x23qqo2961LQY7ut6MTwJ4HprV42pqJ2f1jGfy3e3s+HzbKM8jn4O1HO7vcu2v2FzzR662vvk+l7M8z7Uzlun+RzWB1U09sH3y3P7eGs6vtx2rtt7fLDX6fYPslfTxndi3OM8J3H7sdTeT/bp+28Z+wfUU+t57DBjjBVjzH3atjHu+Vt6/l4IUHcZ7zpMZ3nba8XbtjEEAF63Nx5gOSv08y/6TiYam+vjGvLzUf50Umx210CLyvbSyUrHzwp36PoGtw7Y75O7HlYbOe6i1+CXTP6b7+RPJuvpnVhK7uwv3M2QPjni9z0Zqn0hfZf0DrzVQ27iG8mfb+QE7y8TiOQkcqXpvH/+q7vqUWeVp378mrvBc3eXRQ/dT0BUyrHUNnuWQSEr7lqeNpVJd+Tn7+YyTGd+O0MnrDVt5hx+0GrnaV03ae6sk7qyudXwcqntRyJf842joCvqZ8903e3tT7DUvuC28qXcJN7weL4EdQ2bQuV351DLAW+13czzL5D2tVHahgbWwW714Zqm6EGrXen7Q+pn1Dp1dB0eQvmtffFZ4TIpn6H1JKl0wjzmsda1rUj7TekCRTkgdFPZ3qHf6Hv85I+5of2FUb3UfB75wy5i1qQ38pM7f6vt7Kzwwyp3gbGksc2aj3d9mKav8v3asf6ObhlLihu6wxhZ1tI33Skt3XOQHvuauFp7O4UPDwp3ngY/+FxzYbHvXL6znZnOs8v65nHsc6ARtps8TTzwyQLTuaaRtvY+kbv2tAsf9BAWVxMw7iPrtPTBY+a5cnw1jrc9xpcbjo+q+4wPxtqCCTcfS2P1k211U31KuO4aRe966nEe22d/rWk3Vt1G5TpG17WhXttQ63y0rR87h8vKC+sfVrvLdYzRr8MU5J+Y6lfeSV7GDEQCwMvy9gIshWVQkjteC3dTfwzkXL7ja3bI32WQPnIbFZdSGT6QTORuD/Iu+5vquG67Gz5J3+UxeeuDtDa5CyK960H9J9ITd6uDyvnNTQLstQ7e9THn6XFdujPR1jq9O6iwja6LunUKj9wnd4N8zO4ydLe5x7iTR62j4FS8q2KykOtIUvY4fpvyo9vWZcLZWWcTVx8D5/rUjz/TIf8Fe11M637ReTenZGudXyLB8jU7HVS4Ka5PGZS3GecfIU8f91V6F3hrOkuPO8838g7Z3TDJ00LZY8Tm18XLebU0Xdk6NN5t010nE3eb3MFlFet0wDX7gfXXlt7sybD2O9fsdfE3+0Wx/u/Bfh8kQcnLshyGx7O9Tu/6qzuWiksLTFdS8DG968leK2kC2ePsoVzjR84cBYfZZR/JU0dZGxpWB07g6jjNt/nr94fUz6h1OnH1MV9mH6R1oWMqH1dThW56saG1ntp2mQZpc21gzGOtfVu21idXYSnN2YnoGGU7ar+hNM0dx0/1mDNvq0PqpTJ+zDXwImM1vXOlFwfLx3VlDlZTXg1t1ny868E0feXv+zOdzAaDG3W1jZY+tryl0dt6YeMdfdPYaek/B+mzL3vhabfZaHe5GatG6/y0fDwazuU729nt8+xeeRz9HKjndlvK9jamc82+2enR3u2FvN1Gm3JAy7iPrE1Acx88Sp6rx1fXeNs2vtx8fNSVQMf4UFzmN3kKo1rEbec5XfuvjsGlb9x8LLX3XWZ9f1Pd2OuDvNxTwsd1vl5N66nc9vZalJ7kaN+faRn0L8d8/qfHtU7Fk/qOa0Pd27hlPlq9DlOa69zrOszE1drLVjBJrvvcdZ4AAK+EFcdx/NSJwPMV+ZbmUaBT7nHPc7jUNHQL/zaWc7jU9LgevDRNl8hPAgj32j7wckTyLV+zjqACpOREe6rQvfECLsZzDrWcrmQf4tyFkUi+NZcK/wY8F/QjAABISudxoVzOQwAAr8CXX375Bp9ggbncY63SsLXf+4n0sLJ1uNuVsVtfbg+8HufQVxR85KQGL1huGRbJfK164FHd+kJhAAAAAMBz9MlTJwDPm70+yLPmsvLreTrBXZ5eSR5jvWPwI9prI08H4iuAJu5W26dOBDDUxNXHINR0ammV+2ePp1fwDJ3DZfLeDCfQifYJAAAAAK8KS4QBAAAAAAAAAAAYYIkwAAAAAAAAAACAAQiwAAAAAAAAAAAAGCLAAgAAAAAAAAAAYIgACwAAAAAAAAAAgCECLAAAAAAAAAAAAIYIsAAAAAAAAAAAABgiwAIAAAAAAAAAAGCIAAsAAAAAAAAAAIAhAiwAAAAAAAAAAACGCLAAAAAAAAAAAAAYIsACAAAAAAAAAABgiAALAAAAAAAAAACAIQIsAAAAAAAAAAAAhgiwAAAAAAAAAAAAGCLAAgAAAAAAAAAAYIgACwAAAAAAAAAAgCECLAAAAAAAAAAAAIYIsAAAAAAAAAAAABgiwAIAAAAAAAAAAGCIAAsAAAAAAAAAAIAhAiwAAAAAAAAAAACGCLAAAAAAAAAAAAAYIsACAAAAAAAAAABgiAALAAAAAAAAAACAIQIsAAAAAAAAAAAAhgiwAAAAAAAAAAAAGCLAAgAAAAAAAAAAYIgACwAAAAAAAAAAgCECLAAAAAAAAAAAAIYIsAAAAAAAAAAAABgiwAIAAAAAAAAAAGCIAAsAAAAAAAAAAIAhAiwAAAAAAAAAAACGCLAAAAAAAAAAAAAYIsACAAAAAAAAAABgiAALAAAAAAAAAACAIQIsAAAAAAAAAAAAhgiwAAAAAAAAAAAAGCLAAgAAAAAAAAAAYIgACwAAAAAAAAAAgCECLAAAAAAAAAAAAIYIsAAAAAAAAAAAABgiwAIAAAAAAAAAAGCIAAsAAAAAAAAAAIAhAiwAAAAAAAAAAACGCLAAAAAAAAAAAAAYIsACAAAAAAAAAABgiAALAAAAAAAAAACAIQIsAAAAAAAAAAAAhgiwAAAAAAAAAAAAGCLAAgAAAAAAAAAAYIgACwAAAAAAAAAAgCECLAAAAAAAAAAAAIYIsAAAAAAAAAAAABgiwAIAAAAAAAAAAGCIAAsAAAAAAAAAAIAhAiwAAAAAAAAAAACGCLDc5KxwaWkZnp86Ibo9LZF8y5IfDd1/6feRL8vyNXhzAAAAAAAAAAA8Y28mwBIuLVlWw9/wqMIIksDEYwVpIv855R0AAAAAAAAAgJfpzQRY3G2sOI4VxycFjuQEp/T/Y8Vr+6mT9wiSJ1zmUaBTlu841kHzG55aAQAAAAAAAADgbfrkqRMAW+s4vv9uogetdp4OsatJfu/rWG8hvAQAAAAAAAAAwJjezBMsnSK/sHRWecmu4tJa5XeLHAtLkBWeCIl8WctQ5/z2l6GuW6++O+UcLnP7WiqflGI6ip+1Zm+/kbxFj2BKsmRZ/fbzn5Xz0eVcWqYtX4bJZ350bi5H1SxvVljirG37AAAAAAAAAACMiwCLlARB5pGCU7Z01kH2anq5wH8Ol5pvPB2ypbUOkp+LPOxWvvQx+8zTZl66uL9babpfXJco00ofmiIjka/pSte0nFyFD9ElHf7surTZwdtp9aFPkOOsYyQ5s1nnNzfzvRbp9k+Bcts/K1z6muXKyNu15KO0/3A51co+XNJ+CiLNSwGazfxDYzmW6+DgSfIO6fJu/bYPAAAAAAAAAMBYCLAoe7pjLfeydpat94GjzT6SdNY+3MkJ3l+f/rDX2l6/LCf4eP2tvZCnSMfClX1Ph8t7XiZauI52x2O/tExcbdPfTtxtYb/2whua5UbeYX3J52ThytkddUzT7W63hTLqvfvzXuHOUfD++vzMxF3L24Xa58qprRyPx13hCRx74UnRMQmg9Nw+AAAAAAAAAABjIcCS2cwLS09NV7v0g6OOO8meTVp/XrRTQ/zkKgsOFHQ9aVJaomu+MUiTGoM6HQm9BotKy6iZ7X6n1TS/hNdc3T+/luNs5kib/eWJlmi/kexZ7n0yQ7YPAAAAAAAAAMAwBFgy3nV5qcvf2pY008yRouNjPAox0cxuCoScFS7n2uTTeej7CEny1Ew+QGHsHGo538g7xLklykw24OSWYMv+8k/E9LHRPAvuRIFO6/wbZcbYPgAAAAAAAAAA/RBgUbrc1MZveGF8uqTX6uEanIj8wkvp75qWc6hl7m3v16dbzgr9/s9oTNy1PG0q7yWJfMsgL46uuw/Ve/eThVxnp9XD0PBOskxbPrgTb93r0ys3bx8AAAAAAAAAADMEWCTJXis+2KUlpq6Bh4m71cG7Pj1hzaX1vR6NsNfJy+WztExDue9tSRO5HwNpNU3T90FaB3L6b1jr+KRAK03zy3zpUHivS6OJq4/5dH2Q1kHfvU/kbk8KouIybJbl93yiZiJ3e5DmxfqxLsGiW7cPAAAAAAAAAIAZK47j+KkTAbSL5FtzRcEpFww6K1xOFbqnfgEiAAAAAAAAAABG8uWXX/IEC14Oe5YPpBx13D1ZUgAAAAAAAAAAb9wnT50AoJut9cGTNbeUf+2LE/D0CgAAAAAAAADgabBEGAAAAAAAAAAAgAGWCAMAAAAAAAAAABiAAAsAAAAAAAAAAIAhAiwAAAAAAAAAAACGCLAAAAAAAAAAAAAYIsACAAAAAAAAAABgiAALAAAAAAAAAACAIQIsAAAAAAAAAAAAhgiwAAAAAAAAAAAAGCLAAgAAAAAAAAAAYIgACwAAAAAAAAAAgCECLAAAAAAAAAAAAIYIsAAAAAAAAAAAABgiwAIAAAAAAAAAAGCIAAsAAAAAAAAAAIAhAiwAAAAAAAAAAACGCLAAAAAAAAAAAAAYIsACAAAAAAAAAABgiAALAAAAAAAAAACAIQIsAAAAAAAAAAAAhgiwAAAAAAAAAAAAGCLAAgAAAAAAAAAAYIgACwAAAAAAAAAAgCECLAAAAAAAAAAAAIYIsAAAAAAAAAAAABgiwAIAAAAAAAAAAGCIAAsAAAAAAAAAAIAhAiwAAAAAAAAAAACGCLAAAAAAAAAAAAAYIsACAAAAAAAAAABgiAALAAAAAAAAAACAIQIsAAAAAAAAAAAAhgiwAAAAAAAAAAAAGCLAAgAAAAAAAAAAYIgAy12cFS4tLcPzUyfkeTqHWlpLPf/iMa/HyLdk+dEd04RnKfJlWZYs67ke9/RJVZF8y9Loh+u920Lky7J8PW0vc6eyAzCyx+/7z+FS1jLUmx1tBowB45YZ4z2erzffP7xYSb+S9G1PPQfF2B7/uKxpT7mxk/OLl2BAn/AszmHHUDwPfknjWuRndfZE12LPoZbpcd73mulLKl/pDQVYIt+qqZjk4OAk5DVL6tgyPJDrnMOl2aCQdiBjThKSNDxxx9hbqexf7YTprNDfyDvEiuNYW3fy1AkaxLh9o8braAuP7g59JW5z3/4gf1LWPD50j3dONB4AAAAgAElEQVR9xpj6fY0xJ3h6LzVvabrvlb7If8L50esfA+rPp57Oc0sP3qZX3w6jB60U6BTHiuO17KdOz1PpPb5wjalV9KDVztPh0p6SsdMJTorjWOuBDezVHIf5i9Clv3ybKs6TS3PgXMCqMt86h1reOsenT3h5zqH8TXbcbfUUU9ToYSWlx3k89EB/5t5MgMV+H8jZrfSQ60nOoa+NPK1f4QnQ1Vu+0ziSb80VZQdxHOsg/+mCEjc+uXMOl5qu7LRTjBWfXIUPj1+xvaLI51DLUtnH8UGaj3fB7lGi2b3q7KjjztFsds+EvExD6uil3aVQRFvo9pbHJOQ5ufHhFDjazK99bed413uMmcjdZp+fFDjF/Q6f3N+nHZv1f/fK2wvy7J6I7h4DeNL5eXjZc42X4S2X8bPJ+0h95PkYSfZMr/mKScWzG1/aPZs218P5GEneIndRPhk73cWbamHNJq62l7ltNg8O5ChXRpGv6UoKTunnB0+beTYvjeTPo/Szg7xN/vpXJH+6kn24LSjS2Se8sOPnpet1/B+P2jkzPd1lirOSZtN8nL+kfqzJJ0+dgEczcbX2Vpr7od5vXU0U6WG1kxN8JOL6Wp2PilQcrO31dnB9T9ytYtfoB9oa/aDd8biTvNxgOHG1XY+2+VFFDyvtvIPiQvDS1jp+hUfb+ahIesLBahzG7RtVr6QtPLqR+0rc7rH7g8nClaOVjkdJk+7x7k2NMa9OEhi6W/Oy14rje228wxsYA+x1rKcq3jrPLT14m157Ozwed5Ke6UnnY+o9vthaP9lA9PxV2tNIY+drPg6zee92Iin3xM9lGmy/V+BstNpHWs+OimQruQQ208zZXebXkZ/cnLS9cbpMn/DynI9PPUM96k00m/gtOQWxI8XeIY5PgRPLCeJT9tnBiyVd//Kfxac4cBQ7wSm3sUPspduq2VH6/UMcONdtlr97CpzCPpPPk9+q9OViek+F7UpeXJuMcp4KaUjSf/3MiQvZayi77PuFsmgtu/JvnTg4BLFT2l99WfRLS7mscglL8ti2MZN6P3iVsj54xXQcvPz+rm2knL+kvOvruriNchk11VOyLe9wqra5fB5b66a431PgXPMkxfL+S6nd1WyvlO9WrWV/iD05cXDKt9Ms7+X2n/vtwYvlBPEhK+/s3zvaTLF+kv3U11lHHi7to+34yurq+p2msiq0r9pt1NR3rR59UqF912/fKRdAYx221FFj/9Xwm4NXLftTsQ+pq7+4rh4qbay9D6+ro8a+qm9bKI87pu21ph/Kfdh43BTS3dr+i2VS7QcO1bJL01vsK2vaTc2Y1FiWl7pv6Gtqt1VXLt1tuT6PNXVX2w7Laci+k9bFIftO/t/b20M1332P8/q8t85dmtpaqZ1lZdTWjkzrpFIH5f01jnc9x5he5VFNt1OcnFTLp3Fu1TZu5TfZMvdr7K8G5u2m+Wj7vlr7jHy/VslLTVrb6qCSvqYxuuY4rBs/Su3HLO8tfULjGND02+sxVFtmHcdXta7L5XtoHr9rxpHyeVFTuRS/d0ubv3zYMN61jd/m6S6XT/2x1t62a0u7x/jZf/xtPzfqmgvUnSvWzWOa55Zxx7jW93hpLuNebb1n3efLuDJ+D+hTmrfXPZZey74j77XtYejx034u0Os8pmEf1zqp5qeu7+k1R2is1+qYXp4TNI9xcf3cqav/rTvnzM3X/uIveowvl93X9fs11xDGSKPpeXHPayat43bu+lk5rU39o0l7qv71OH9qmGPX94Ftc+j69FTaWZ8yGPVaYqVAS/uv/+01/1l7yZVVpXy6djm8T2jse7Jxq+38ru91zktRtPT1neeT/c/3i8dOU/+f36bhNbl7HP+FYlJ9frrmlr3nnvVpaTzfrIxHjzdvuKcvvvgiflsBljirIC/2nHKHWL14WT5QTAMs1ROvXAdx8KoXs9PPq5OK/L6qF+XbO8u6dCb/Vr240X4x4/r9Uxw4afo6y67826zxlyfrufyeqgGYYlrK320ZnPIHc+3JqkG9111wqvy/KieHxY6l7uSpqa5rcu91dUrXf798t7Uumssyy0/toNnWabXW3yUjvdpNpXzLJ9FNF10rg2BLmymn5RTEzrUQuvNS+U7X8VXTP9Ru1ils4+BV22ZrH1PcWr8+qSbYUR4Y+/ebdXXU3X9Vf9NQnvmgWm39neLAaasXwz48rjley3Xfoy0UAqiD22tbgKV6glfYR932Gsai6/+3jH+d7aJczs1jUuUkpTSZd66DhkGZdLfltjw2H8elzxvqvnqBoKV9lPOdG7+Kae042SjlvXnu0nHBorUd1AdqTOukbdLeON716Zdb9lu90NzUXlvKp6Udd45bLX2IyclvZ95y/97W95vNwWpuDEnbbeWktHwy3nQ8d/UZpmN04d/axw/z+WfH3LlH26y7iabz+OrsVwtb6zl+t1ycb8lHNcByS5tvPsaabjZqTY9B39BnflJu27Xb6DqeTeo117abzg+aguDVPDXPY5rnlu3jmtnxUt+fdZZJ17ypbh91F9UG9in18wGTAItB3i8XrkrnbobHT+vcvscx0dnW4u7j8dZ6LW4/uc7geT371qwcc+VWPWfqPh+ozFk6x5easjt46Xbrxrlx09jd5trmMEXt43ZT31g/xxvUnkzPnxrqrLMPLKW77ty6vrw6ymD0a4mlvZfrtuH6V3V+k5tfn4LY6Xn+MEafUHv8dJ3fmV7n7NXX99hfz+tzTdf4utpdv2tyZu2913Wxksp3TMfKPnPP1jlUd5t/jHnDPb3JAMulgZYHuGoP1XEC0OcJlvL3WyY4hU6vrnGnn9VOMNq2XZPO2kGx/4WW4kcdZVf32x4nVwev34Qg+33n8dM0iTWp95oL0LUXhAwCLK113ZHn9gGjflvtnU2xLJs66jECLN1lX9NuSxOD5gBLv/K7nqO2lMmQAEvn8dV/wluQ3YVR2d7lCy39QI/vG7bv7jpsmhC291+NA2tD3k0G0GK/YtqH9+ir+rSFfDse0F77BFiK5yyGJ1x9jrNsP0G1PhsvHjb1i3X/1nThqPHCkmnbL6azf1+S21alLZfHon4nToX2U9lnTdqNggv9Aiy1/XndRfjS99rTblgn5aegSt+tBp7GCbC0t9eW8unTji9p7e5Xs3+7V4Clue83nIM1lL3Z8dTdh+ePd+MxunUc6h6LG/PeZ+58S4Cl5fjq7ldb0lS3314BlpY71VvuPDdr883HWHJBovtiUN90t+cj7tW2S1sYdDx31WvbtqsX9LovLnaWRX5u2TqumZ+vdc/narbRNW/qsY9b+pT6PnjEAEvXk9Q95+LNfVhp7O3sk3q0tbh7rn1zvRY+P8Reerdy5QmQup13Xmuo+0mP84HO8aX7gnx3/m9IY+d8vW0OU85qx7jduz0MbE+m508NddbdB7bPf5rH1fY8jH8tMW7/Xo8AS+M28k8kjFmHlc00BVhazu8Mr3N2zo269mdwvl/pozoCLEbX5Ia0917n60Xl7wwZKxuPkV5zqBsCLCPOG+7piy++iN/MS+6vZpo5kuMu0pcyJS/bccpvpJzM7vBulnT9w3S/4dKSZaV/05V2l+/ZWnjSZp+8BDPab0ovAttpNc391pprY5CKc5Lh0gp8E80aMlz//SQPvcqux8uUdqtpLj+W5i0ZOofL3HenWu2av3thr9OXwO60eoj6p71rsy0vaeq5hY66rpO+2PbgSYWXlpkbVJa95Nt6Za83lH2k44D8NuezIS03MD2+miUvUb6ku+2guGgr9zG+n7mlDs37r8nClbMLtT9LOu8VXl6E2FF/kd+7X+nLpK9KbDS3mvr6evc7Lmv31jIWtdusGr67mRfKaDpWBqJj8tK72UyONtpn74mO9trI1s3dcU7ncTyZydZO4T57K3vSLju7kju0yeEmcrcnBVppalmyrPIL4rvtsg7k1jqZuPoYONqF+9KLDZvGu6F9V43G9np7+SSK45Z5H3IPxfLrnabjUbuaep3NnNuS01gHt4/RzeNHom/exxvb+9vlK+le/WqdiavtKZCysvFNW37fNt98jNnrWAcvGz97vij3lnQPbNtDjuekXtvadrJOeeUcYzbTjUeaWueWPca1e/VfhbY+YN5Uccc+5bGZl7nJ+HjPtmZQr/ZCXtZvRHtF7kL2wpXSOUG03+Su3Qxwl7lXQ9kNNSiNbefFY81hlNZPNseLlFyuqBv8xmxPI/QDtbLjIxm/r/POs/bhrrlvaCyD+15LPIe+NvJUKG7DbWfvXVnbkfx5pOAUK44P8mqvI923T6hP4DE39ze8TjBkblTYX9kT5F/SsPY+7LpYcbcd5de3fO91ftBi9HnDSN5ggKUs7VzLM5H0ZVv3EvlTrRToFMeK41jxKSgctHZy1V2RIu03joL3+W7USTvG/N9Wbs/xfZJkWMUcJ4ND/+9Lvcuu9rdFTnAq5SfWti5Dka/pSrn8nxT0Pm4nWrhO2qmOU+/Rzb2aZL8P5Gx8hee6um774ULeLReZbirLFpOFXOcaNKr5wuMec635bEjLDUyPr3pnhcu5Nt7hekwcvNHSOEw+D7fU4YD+a+Jq7SXB0fM+1M5bp99vqb9zqOV8I+9w3c8YRdi7r7rwdIjL+V03T4zvdVw27q59LGrjHWIl17JKJ235dpv9rce/CrmZZxeIIgWnljKt6D4e+x7Hlwsf05XsQ0c7vlObvE0awIhjnYJI82XYctLRbXiddMiPd51jjKHW9jpu+UhD+pD7652m2UxOzQld8rLTZueuA66xDkYYoycLuU5y0bg4fiT65n2csf0GN/WrA9I5cbXNxqBoruUNd/O0l3HzMWavs/mPXR1nxk73wLY9/Hhua9vJzYCVc4zj8cYLBv3mlm3j2uP0X4bzptpN3LFPeWT3LfN7tbU6bfVqa+Gl/fQxSi5uThZyFWqfnh/nA+Od8um/29yroeyeVRqHz2GK47at94GjjR/qHO21cQLVX64Ysz2N0A/0scsCUFOt7EPLsdVUBve8rhHpYbWTE7wv5buunJMAkexZIRB5DpeaR4E+upM0TdlF8JlmTt11pMfsE+oYXicY/ZzzqfL/SO29stuO8utbvgPnUON5ovKrQYBFWTAjH8E9K/ywql7Ey0W4w6XZUyP1O752gNFDKcpmv1fgbLT399o4ri5zivREMXkKo79CJ5FG4P3cScc5/KDVztO6rveqfP+scJmc6HSWXeW3kfxCRDEJeuxWDwaDUC46Gj003t19Dpelu9fSQSq9A6a73ttU030Ol8PuKsrqdDov1nVBJL90B1/tHQ3G+pVlRWvQbCJ37Umb8ontNQ+3lX3fdOQ157OSlnOoZaHdGAaxTI+vFte7Yc4K/ce/zXm3+nAtl+hBq901ANi7DvN11Lf/qqnXZH9zTVe7wl1T7fWXu/PyHOq2IhzQV9W0hZ4/HHZcDtU2FnWYuNvkLuP0pK3aLurdEpxOLpIe+k28U21tuVbXcZyeXJ1yE7l+8/kx26TSOx6b7u6+09ylxpA6KcqPz13jXfcY01ff9tqYaqN23LMPKfd/6V2txg8RjJmmy9dr+vDI17x8c8hupQ+5eV/9BYJEVx3cPkYn7WUXPughzI8fhnkfcWxvv3uybtfm7bS1z6s8cebf6YmYIXP8R9Q1P6lr2xe35625bddtO5I/31yPoxvqsHFu2TquDcxv73l6avC8Kb+JW/uUsoFjqWnea/Y7zvHT1kf2aGtj6FGv9iLrp5XOkyaa2TsdH/Yt58eZjeaXOkzbdeF8ZOjcy7DsIr8lqHuvNOaTe0Ob6xi3k6dBV5rO254mGqk9jdAPdEtvbD31vzDfVAZ3u5YY7bVRXXCxru3VnNucQ31Y2Tps3SStk5nsy0Xwo461T96P2ScYXkMxvM556xy+IRGP0yfmjdXeDY9/47GyjfEcqsUTzBvGRIBFkux1ehdubkkW+1DoZO31QV4uwn1cH3TLjQX2+iAv98jVflHeXnJwbzblQSx93DMqPq7V/NhnEm3P7kZKxnVb6/wj9Jal6crWoTHKV/7+VKGbdjCdZVf+ra/ZqZjXibtN7qoo5KfhYoK9zi0ZYMnaLxrv8Ji4Wx2UL6fk8cjLnQk96r3N5cJiVobHtU5tt5pPXCXXhMrLHaRP1kgtExZb65OrMPfIZHud9WBQlsVsrOVlj+E13QljrxWX2phlzaXsTrgby753Ovrks5yWaSg3Gwga66yN6fFVmzu5H/Pb+CCt+z9ZMBYncHXMymW+kZe/k7FHHVbrqLv/aqxXe5H2G6WgYlP9TVx9zP/7B2l946MgRn1Vkjit44Ps0vION7XXkXWPRX22kS5B4EfJsX+wS493W7kTzroxyUy1b+8+Plvbcn2u2o9je62TG6Zzgj5tQXdpk13a5y7FpWKmKyn46A5agmNInexK48N1fO4x3nWNMf0LqKW9tpXPsHbc1Yf0HtdGZNavTeRui31G8rRSqdy9g9bH6aVeNl7LXaFdfcYYY7S9kLfbaLMrjh9meR9jbE+fWs6Oyb4Np7NfrfIO6+Y+L12S7/LEmT/TId8XFZaqSZ5y/Djwjvn2Mm46xkpLV8438g49ytkg3fXzkx5tu3feemhp2+VzjMo5TFcd1qe4fW7ZMa6Z5ndYfzZg3lTZxA19SuMmza4DjNWX39zGevSRnW1tFD3qNeundQ2m2Auv5lpIHU/BLDv+0yez19dxYtDca0jZzdUScL9DGgtpKbc5wzle17idPj2s2gv+LWUyqD2N0A/02Udprml1jctNZXCXa4l1QbhcUiptrzxeJTc124Wx09b7SzrnioKP/bY9pA4HXUMxvM45YG7UL+mP0Sfm3d7eB405PcbK/uVrPocaLR+P0l/0Z8VxHD/BfgHkRb6suW4LmACjOStcThW695xMmHqOacJTiHxL8yjQaXs9UTyHS01Dt/Bv6Sd3aTfncFm9uPoE/XjkW/JnT39MmNUJ3jb6cuA5ei7jGmDkJbTRl5DGHiLf0lxmN0Q+W+dQy+lK9iH/pF4kP6moxqfSX1UZABjVl19+yRMswHPQ7+X2wBtW83JivGGlNYYfb43XnNILrzvfMzG2cyg/Gn5n+eieQ53gBRj5xcAAxvPU4xqAZ6rt5fYvVWmJrM73przGMgAwpk+eOgEA0sH6wGANNDnvQ+0cVx+5Jvfm2euDPGsuK794sRM86pMSE/ejgnCqqbXK/av3uHcnTlxtt4+1s3bPoU7w/CV3yO+StsGUB3hWnsW4BuB5ivbayNOruVwxcfUxCDWdWir0eC1Pr7y6MgAwOpYIAwAAAAAAAAAAMMASYQAAAAAAAAAAAAMQYAEAAAAAAAAAADBEgAUAAAAAAAAAAMAQARYAAAAAAAAAAABDBFgAAAAAAAAAAAAMEWABAAAAAAAAAAAwRIAFAAAAAAAAAADAEAEWAAAAAAAAAAAAQwRYAAAAAAAAAAAADBFgeavOoZaWJcuyZPnRU6dmXE+Ut8h/2rK8z/7PCpeWluF55O0+Z28xz7iIfFmWr5fbK0byLUv36Iqeuo8DAAAAAAB4bgiw3CK9kH/r9abIt2QtQz3m5dzoYSUFJ8VxrHhtP+Ke7+815+2pncPloIvPQ383vuTi84sOnuQDiJe/ctkm+bx8XuhfkgBS8tlS5aKI/BvLJ/JLaavp30rfKewvn79KvxjJr0kzzDzFmAMAAAAAAPAaEWB5hs7h8s4Xv846RpI9m9xtD0/nNeftGTqHWpYveL+wJwBe5l35joJTnAQR41hxvNY1lHhWuJxr4x3Sz04KtNI07VPO4Qet7OSzUyCtHq55P4dLzaNAH91bjx9PhziXvq2ryxbPoZbzjbxD+tkpkFbTNMhyVvhhJftwTfc1eUm+ouCjbk7eq3G/p1UAAAAAAADQ7ZOnTsCLNnG1jd2bN2OvY8UjJKe/o447SetH3ekjec15e3oTd6shTX7o78Znax0/7tH26KIHrXaeDtss5DKRu/a0mofan13Njjs5s4/JJzNbCo86y9bkHOrDytYhzgVD7pK8lXbeQdfkuVp7K83Dvc7uTMedoyR5EyXJO0v25BoYIrpys8cfcwAAAAAAAF6nN/QES7Isjh/ll8dJ7/zNL1dTfnKkvBxP/lbhmrv3k6WQGr6fLW8TZdtMfnt9YiVJ23S1k3YrTbP0RH51KZ+6JwcKHzek4xxqac21kbSZNy8RVC6H8lM1rfmseYKh+PusLq7LGNXdgX0Ol7L8KElPfh9Nyws15q1Y58W01ddJXR7Labyka+C7Xgq/L9RDtgxSfpmnhnrqu/+mdhz5uTbWtNxUYaeXz8/hUtZ0pZ12Wk1z255vJG00b1wmquVYbCyfpnxW7+CvLkeWf6dK/r+T3ybJndds/9iavkI6W4+XcvsrbavzeDFzPkaSM9Ms/4/2Qp52Oh6l2czR7ni8fteeaaJI/nQl+5B/EuYekifMnFkhdbIXnrQ76qiZZk6SzsLTaJGv6crWoc+Sf+UlymqWR+tqe8VtmfS9Peq6fLzVLoPWsrxaIW35/q6cj+b+o9i+mvvAW/s4AAAAAACA1+4NBVgSm/kH6WOyNM3BSy9M+TOd4lhxfJC3W+nD5UpUJH961Dq+LmXjbOaNF+PO4TK5CHhZGucgbzMvXZjaaTXPtrktLXUzkbuNdQocyQmSNG1dTdKLo+E+d5lwH2rnuFrU3Mzdmo6Jq218kCelS/SU05Bd7Ax13d1Z+3Anx11o0juf3TZzX7N0maPG66abufxZ7n0qkS9rHuWWRzrIXk2TOqnN21nhcnpZEilZFinSvHDRslonlTyeAkXzYvBlvrkug3Sa+cmF+p7O4fKarzjWwdtp9aGUpulei0uaVfjcbP/JskuX99KU302zW2l6OQZiHbxNqXzqTdxtckyUl6s6eCovEXUKnMrv88difPC0mV+DDOX8JZs81LxTx9bCkzb7yy+1D215XqTjpbD2CneO3MrBkjzNctl2qVx2K78xfYWttB4v1faXbOvWZZ2KQa38O0yOx13rLyfuOjleLesStIj8uaLg1HwcGisG2K55TZ8wa06d3LWXBgySclvbkfx5pODUI/hT6R+Ky6NdUtfS9gqM+t6edb1babpfFNJXGHOspC4ufYO90rSusdjrpO+VLsut5etvM2/uP6rq+8Bb+jgAAAAAAIC34M0FWJzc+v32Ir0QfHk/QHKxNru7O7kAm7uoN1nIrV4nTqUXVYP3uYuAttYHT9rsCxfvPOO7xG29Dxztwv3ljvh8wGNoOpp3916Bk7uoWLhAPcL2U06fdyk4xfdBRPuN5K1zv0vK5nqBvSRNe/D+mtqJu5ZXuCBerpOaPE5crb2sTKqfT9xtcqG+p4m71TaXr6QtFuXTNFm4cnZHHRvS12f/1/ZT2VPuGJDs94GcUvncQ6H+7YU8XYMix+NO8haX/NkLT4qOtem3F/m2lzwFsZjp2n6Px8Zg5ND0FRPQcrzUtD/Z6yS429Rmu0xcbeNiQGuXBRl7sa9B43it2eW9K8o9fXHDi+Ttde7dMElwbTM32F7+9+vZ9b0ryj2F1RAArPYPE7kfq+25d92a9L2969rLPYkz0cK9PlGkaK+NPK3zfcP7QI5h3yq19R/d3x+jjwMAAAAAAHgL3lyAxVRxmaipVo13Xyd3Zlderj6bqTEmYyC5QJZeJGy8I3+sdKQX/dKLisU7tu+bz16y5ZzSv2lzpaRKS1ily+p02a2mhf2U796ulIGR0jJAvW4NL14E7r//idxteid/1xJgTypbGipZxiofsIv2m3Qpqxr5C+TRXpG7kL1wpbT9RvtNQzByePqKWo6X41E72aoeLiMeLaWL+Ebbzt67snWl7B0n2RMPD9VW0rysXbOJ+zEXgJrJLHlJmpLkrWQfrk99VJNXv/yYJrMeAe2mujXoe2+p60LwsLS83nSlrh6un6YgUrPb+jgAAAAAAIDXjwBLm8jXdKXicjON18qSC4dR+QrW8TjOxbH0CYrVQ5RcwC3cpT1+OpKnPFZ6iJI7mb119oTDnfPZh3co3CFfWfKqorSEVe3ybDW/yi+plf7lnzqplEFvZ4XLuTZecSkhU2b7T5afq18ireQx67LV9ULzPAp0aqxjW4v06aLzMUouCk8WchVqf4603zQFI8fTeLzMZnJqLmx3LeN1U1pmdvo+k5xor40cFWMPxfeuHI+7S3BiMrNrnxiy12bHUE3qlCSvGM2I9pvqe2MK71056rjL0p9so9r+67et8/G2gGLfvne0ui4ur5c9aXTfd+PUG97HAQAAAAAAvA0EWDrl7kiOHlqeYEnvYl89FF+gPt+UltPqqWY5l2QppLmmq528RdMWx0pH+m6L+VSrnafr7npsfzaTo40uq+JEfo+nTHqmauFJG7//ckOThVxnV3s3fsuPavLY/nnyvoLcV9KXyrct23S90/6s0Dd5uUGP/RvZaO5f32ES+uVllro03/0/TBqkOOQuMOeWMKtjLzztwgc9hMpdhN/p+LDXps/yYA3Lj/XXcLzUtb/I13yTW0rK8HiJ/OqL0wvbsxfytJF/OUjq67T83pXZ7LpU1Tl5u/yAp37OCpflF6p/0Gp3XfaqcgyfQyXJy9dx+b0rM82crJ0lT6rUPV1R7R+S9w81B6T76dX39qnr7h2V6q6f8QMhPfqYyC+9XwcAAAAAAODtIcDSxl4nL/zOlmrZL1rXoE/WqM8v75JcwNwaXtmbuGt52d37+ScN7IWS3ecDHvdLx+W9ILl3YfTa/sTVx8BJX1RtyfJnOjQ/+mPGXis+2KUlv4ov+S5Kl8eKisuKdS2TNXG3yZMeVnE/2cXEchlMj+vaF7k3puljIF2WIPsgrQOjJdbM9l9cjmy6koKP+YvZnoKZf10GT21Pi1QSorWntK7TC+v2ewVOlrYhy5FN5G4P0rxY9k3v3ZCUHBu7jTa6BlPshafNpnt5sOSdM+nyaS8d8GEAACAASURBVDdcLa4/XpK8ePll7eaRglPu6Q/D48VeeNfv1m1PttanfPtKX7yeq9Pz5b0r15KZuOtLOq9PjpiaaOGqcHxOV7YO+Scw7HWyBFn2nWmy9Nd1d+fre1fy71JZZ/lO8lObvPK2a/I+SK++t0ddd+9I6/ggu7Q8YXPbT98Rk35/zGDHbX0cAAAAAADA22DFcRw/dSJerHOo5TSUa3QB7aYdKlxOFbrmwZJhu3vs/L0e53Cp6XF9+4Xde4t8WXMVL4A/uUh+JSj4yG1/CI6XV+wFtD8AAAAAAAA8qi+//JInWG7S8FLju2l9uf09dpd/uT36i/Qw+AkAZIpLQB11x9eWjILj5RV75L4XAAAAAAAAL8MnT52Alym5m3m1S16E/liX0bMLuB8f6WmZfbiT434c8B6Gt87WOia4Mpyt9cGTNbeUf+WDM2CZu8fD8fKaPW7fCwAAAAAAgJeCJcIAAAAAAAAAAAAMsEQYAAAAAAAAAADAAARYAAAAAAAAAAAADBFgAQAAAAAAAAAAMESABQAAAAAAAAAAwBABFgAAAAAAAAAAAEMEWAAAAAAAAAAAAAwRYAEAAAAAAAAAADBEgAUAAAAAAAAAAMAQARYAAAAAAAAAAABDBFgAAAAAAAAAAAAMEWABAAAAAAAAAAAwRIAFAAAAAAAAAADAEAEWAAAAAAAAAAAAQwRYAAAAAAAAAAAADBFgAQAAAAAAAAAAMESABQAAAAAAAAAAwBABFgAAAAAAAAAAAEMEWAAAAAAAAAAAAAwRYAEAAAAAAAAAADBEgAUAAAAAAAAAAMAQARYAAAAAAAAAAABDBFgAAAAAAAAAAAAMEWABAAAAAAAAAAAwRIAFAAAAAAAAAADAEAEWAAAAAAAAAAAAQwRYAAAAAAAAAAAADBFgAQAAAAAAAAAAMESABQAAAAAAAAAAwBABFgAAAAAAAAAAAEMEWAAAAAAAAAAAAAwRYAEAAAAAAAAAADBEgAUAAAAAAAAAAMAQARYAAAAAAAAAAABDBFguIvmWJT966nS0eQlprHEOtbSWCs99v76UtQzV8+sAAAAAAAAAADy6NxNgCZeWLKvhr2fEIvIt8wv/51DLlxgUAQAAAAAAAAAAjd5MgMXdxorjWHF8UuBITnBK/z9WvLafOnlVhk99AAAAAAAAAACAx/PJUyfgJbHXsWLTH01cbWP3HskBAAAAAAAAAABP5M08wdJf8p6TZPmw4hMk5XeDnMNlYamx+mXAyu9NyW+/fsmxc7iUNV1pp51W02o62tIonUvLoflqXp0skm8tFZ6r2yvkrZyxyC8usVbOQ7os2mV7x+qe+5Vd/rs8zQMAAAAAAAAAeD4IsJRs5nst0qXDToG0+tDwzpVzqA8rKTjFl6XG+qw0FvlzbbzDdXmyratJ6TsTd6v4FMiRk25/Kzf3peY0nhUup1rZ1+2fgkjz1vfG7LSaZts7KXCSoM70uE62cQrkbObXAEjky5pHuXyfFGil6WUfkfzpSroswbbWcb7SrlB0S01Xtg5ZGZwCRXMCKAAAAAAAAACAl4MAS4l3WCuLk0wWrpzdUTUPYKR2CvcDogKbfctTJd0a03jeK9w5Ct5fIz0Tdy1vF6otmdftTbRwHckJdMqiRZOFXEeKjmn4ZL+RvHUu4DOR+zGQk+0j2msjT+vLF2ytT4Gcy97O2oc7OcH7Sx40cbX2msty4m4rQSYAAAAAAAAAAJ4SAZZOkY511/0nrranQFpN65fRamCvYx28jea1y3uNkcZsWbHsb67NGLuQJJ11jCRnNiv+82SmwsM7zkylb1TssnJL/+bjJRIAAAAAAAAAgLsjwHKLiatttkxWNNeyZ7TEXqdLYx1sraZt70gZwiksW5b8jfX0x0QzW9odS8/0nI/FPLQ+9ZOm8rKE2PVvyyMqAAAAAAAAAIAXggDLs7ZTOZbRarKQ6+y0ehg3ZJNnLzxp4+eevDkr/LDSLls2zF7I00b+5QvJO1mu72BJliHbrR56B5Z4yT0AAAAAAAAA4LkhwDJU5OeWuJpqpUAfO5/AOCtc5pbvmm8K71MpmLhae9JmbrKU2ETuNnmaJr/8lmWN+JSMvVayMlou7/ZBcfbOlvSdK5el0yxfs9NBXiFrW52CKF0m7frXc5U1AAAAAAAAAACenBXHcfzUiQAAAAAAAAAAAHgpvvzyS55gAQAAAAAAAAAAMEWABQAAAAAAAAAAwBABFgAAAAAAAAAAAEMEWAAAAAAAAAAAAAwRYAEAAAAAAAAAADBEgAUAAAAAAAAAAMAQARYAAAAAAAAAAABDBFgAAAAAAAAAAAAMEWABAAAAAAAAAAAwRIAFAAAAAAAAAADAEAEWAAAAAAAAAAAAQwRYAAAAAAAAAAAADBFgAQAAAAAAAAAAMESABQAAAAAAAAAAwBABFgAAAAAAAAAAAEMEWAAAAAAAAAAAAAwRYAEAAAAAAAAAADBEgAUAAAAAAAAAAMAQARYAAAAAAAAAAABDBFgAAAAAAAAAAAAMEWABAAAAAAAAAAAwRIAFAAAAAAAAAADAEAEWAAAAAAAAAAAAQwRYAAAAAAAAAAAADBFgAQAAAAAAAAAAMESABQAAAAAAAAAAwBABFgAAAAAAAAAAAEMEWAAAAAAAAAAAAAwRYAEAAAAAAAAAADBEgAUAAAAAAAAAAMAQARYAAAAAAAAAAABDBFgAAAAAAAAAAAAMEWABAAAAAAAAAAAwRIAFAAAAAAAAAADAEAEWAAAAAAAAAAAAQwRYAAAAAAAAAAAADBFgeQyRL8vyFT11OlAR+ZYsy5JlLRWeH2mn51DLxv1F8i1LPo1lPJEvaxnqXtV7DpdG2zf9/t2dQy2t9Di4S8N7rDZ9Vri0tLwcWM/gWGo91hORf69yfymSekv64Rc4TvaoY/z/7N07sqrK4/bxx7f+g9DMYWDmDDDEbId7CDICGMIOVybhMvqd0EyGYSaz4A0AaaC5NOq6fj9Vq+qcrUIDfaOvAAAAAAD8XHSwmMyGRuNvR8vJz5QlisNIlzxXnr8rWH52gPB8mZI4VHQINOfxpvHi4ztDynzoo9rc07e9dLwpz3PlB+9jTgpU0jftddQtz5XnB327GLgMdIhOSs5fo57w8jwrjZ3qR/UgBttABrNzrf7rzfusdbRup1zznN3Ps2TXPMZX6vAGAAAAAHw7dLB0+Dre8qKxsfx7p+Xd0RcYOT7F9aqTv9b6s8OB18nOSk6Rtk9qtf1ys08elumaSt6aPI6ZCJ8jKyLgrA7Qr8LbRjol5x+UL/TIEu02oaJLWT+6HaX9qreTJUt22uhyr0sVX+92ePhVB2/5N9zPa9bRbjr6oTZGnpzGC23SqsMuV36RYiN8abzQau+VAyvKcAWJ/pLwAQAAAAAz0cGCXyu7fvUeIDwqOycPdaJ5h1z5+7zZL7MtA72PNjI+y1XX00ecB7C7/oQIuF7LPyX6CpNYXplnpW97naJLnTctAx0i9XYuLYP3xqy45TaQr1TXp92npbaBL52uukqqOoz9YFtfv3eoB8lkieLQ1/HWnCm1DN4ZSAMAAAAAmI0OFifFzIzeZSVay1d0RnWaS2sMjYK37NnSHjnfXuLCnC0y+lmc1kto9EwzmXKMxneqL6SxFouNQknhpv3bofuXKl7slKTVPSxGkg+FwwiRkt1CcVofv/pe3++LUawn6bTXqhP+nmdY7uWRVse8h7+9zElrhG4jXuyUXK23vKV5r+7XncbdZVYGRt67xJNmXCifR2aGw/JM2g9kbPmY1ufNOFA9x+b9bJ9iWpwoXK+nxuj4zn4XluW4zLRW/3cRpkacaaXh69B9sYWt9/utGWDtZXGG0qwtbfc9kyzRrpFWqzg0FJ/t6XQ0b+zRnRFUHKeT7owwDC85NOF8lriTJTstVnuddNJ+NXzcwfNPSOuN33eeZd/9Hc5jetPExLgz9vym3XPXsBf/vikiYCNuzivDBq6h2odpsAxu/d6SJnt/u9wq8E+6Tsrbe8rQ1jGHyi7rdzt5Vn2Ph/NU+zJd3VkpZefFutld7W0jo4Pjo2U6Jycp2pYdJkutPem0f7Pu5VN0uAfa0pcCAAAAAHimHLXbMfelXOaff8xvxYf50ffz46368iWPpNy//0P7/2/50Y/yS57n+SUqjhVdjM/M77Zcolwqf3sPml+H5XbMfZlhaX3P/G3ru8XnA+eedYzi2u+X1/l/2/3J80tk3pPi86Hz9ivup1rfnXQd9+ebl/e9+4zrILafo3Fu49+ax7XHk3ZY2/ep8XkjXN372LmOnuttftS6N9V5e59HdY+N75TppXl/xu6f+Xl5zEYas117Hc6xZ9q6ym46sxwviqJWuq1/0763tns9nh5aoXJKPyN5xeBx8/Fn0vn/afG5GXem5Y3W+9F+fpco96Mo940vm/nE7eh385BW/Ok772jcmZDfDJ9/PK23w1A9s8F8cOyZ9IZ7atwZeX6W8shuRtjzdjkwtwwbKV9Gy+BuOC9Rf57bDrNLOjWvoR2eRnj77klPPmrPs8bz1OE0ZOreB9vxhjTPZYbPVueysNXROnHfPGYzXN3nBgAAAADAY/73v//lzGDpaO3Bcl9qY6ng3dwI3dM2Mn6WnhUq0uH+haWCd3MZikiXel0NbQNfp6nDXa1sm+oWozn945/6vLYNeP2j/vUuhzHnGMW9SIfW/ejcH8n7c5QfnhsjTaNLe5Pj6ZsH+8d/xvOZeB2NIIZSdGg84z9HX+G5EULjOarc48PX8Y+xDEpwUFQtF9O5bk+H21H+yLVEFyOueX909KtwF2Gql2Qpr9NcEqVhYjyRp8MlknqfR7kUi3/Urbr+5VaBXz/3sfvX/Xyp4N+xs7RO4zl6W0X3JWVcn6ll+Stvq0ihqkd6vUrr7Vq638+rridfgesQZ9f04Pj9yfs7tNL2tDhtGIvPpWY6Hckbh5Qj/6vnl11TedutvHs8LEbNR+UmOu2lfLzJJ3LPD6zBHTr/aFrvhmEZvOtiuYTG/Z30TPqvYzzuTHl+dZoZ4x5208wybFL5MlAGW8LpHcp7MunY5cwJlzLdzEu1VHAw8l/vYFla635yozyowz6UZw3lqc0ltZ5RN+mRxtqEvo7/zOXLlgrezT3vLopOe60GZwA262jFvi7mrKrqmBdFCrWxzsYBAAAAAOB5fk0Hi8uyQr1aS+1sQuP4xdoZbns9pNd5m+IuA72Xm8valn05Vf9uCedUc44x3ihTNHbcj7vaa3D1/ZHrnML5Osqlaqq/1X7K/gDVskLVX7Hs0t0De4DYLLdB3Skx1LjWe/+KjofOxubr9WjHz6je+2dfXkbLdatDzaa59M5j8dvszEh1TgNtva0CGR1iT1pCxrWR0v79pYL3m44qlyVrLz83hXOcHonPNgN54zCzQTfTOfG09Txto7JBPzsrOUXa3iNJa6kmx8zt8bxx5PwT0non3U0y8Ex607lD3Bl6ft5B+SW6L/no3ljtHp/mPSfH8kWqy+DrVSd56n80M479kNayXY3zlWmm7Dibt+xVlaeWHUPtDvt2Pi1JWms9t4DIEu02YWsQhI29o3/IMvjX7HAyj5Xnuh395pJhc+tdAAAAAAD0+DUdLMvg3RglOWMD6bKBILrUxzBHHi+L4asftw55uRF2nt90TDeNRi//eGtca57nzhu4PuMYXZEurWPmeXvGSsvAdU7hfB3RpfP9fDSytGY95bny3BgR/nC8aM3EKEd079/SonGtMUOhxXr/ioayzoyJ6/XxRsPe+9czwju7OncYTH+m9gZBbxsVDYrZVam31lJLbQMpOWdKz+HAbKDPUo/yvh1TbSbub3LnHKdH4nPbSN44enXboJwNcNVVRQeFt40Unqv4Xe2vkCnZbRSa1+NyIj2ar004/4S0PjizqT/kw8+kN5+cEHemPD/vcJ9h4O1XjgMUHOOT5j6nGeVLZb0e2Xx97Ng9HcgOsqux01G80l5H3apztWY9FrOA9npLiw6R6PDgpvbVvlKLlfbepede2/Pw9BwOdyxmiXarvXS8fcpG8sXsn+LZFvvF9M2eAgAAAABgnl/TwfIcvu7tJ1miuDHKt1h6KL43bGVKdjNGm0tlY4+xJEsaT5xJUY5s7dngdZpnHKPQaEjs3J9Xc78ObxtJYey0aXa1xNH+recsnetOFU8Y/Rxu6riTJXF3iZptJIUbrfan+/JJDoG23JtU8SZsLRvmZuz+dT/PlPzdD3cQjYZ7+PvWTh1vq+iU6O0tUZWgl2tPp+ubzuGE5cE+bUNnd85xeiw+9xrIGyedM9Q5Piv01kVD8XotPz3rLenG77oRO1My+URT4874RuW95x9N690wZMlufHbG7Gfi4oHnN8Q57DPLn0fLF0s407hcdmrSsVud4Fmi3dhM2dNef4248rZvLY1WpQVJ6Vu7zChm4oWblfaNGV6uUp3DVgfYQOdrJz8p48q9g6ecCRXXEXy4cyWNWzNTZ5RD6Zv21SzOLNGuNVMrfdvXM3zK5dX2q+Z3smRXhqOcOeTaiQ0AAAAA+NXoYOloL2dSLomyDPTvqPqzv9LhaI4pLdbbvy/TslgpCWY2Vi8D/Tv69yVZFvFaF/NcjeVcipGu1Xr0y+C9GKm8aF6Dy4jjx49R7hNS3ovid54O5ehn85iDDRkD1/mS6/AOyi+e/fn3n6VYhidtLsNUL8fTjhex1reLhsfd+zpe1veliIr2qdZIbG9bHmOgcW0knlwic9mbjdJHRxiP3T/vUK6Xb4TJu0yYIVRzfabrYqpOK4552kYnhaHqzhRvqygMR5cHWwaH+7r+H9MI11ySarVXaw+DEc5xeiw+234yljeOKRrVwzCsO1OWWwUKFTYaj4s9e+q09Fc6jO9nVAdzJO4sAx0ilfnuztIpNXb+8bTeTner60G30Xs18kx60/nEuDPy/JrLaxYzeKYnWff4NK/8mVG+dMJ5UWQsp7dR1fE74djZVakc927yjwquq8Z9rfJf79AMy3nbLTPu+//cZ3jN4elwC5S08ofe5TjbefhqL+/SPyO46hhqL/l2P763bVzntHKoVUfbpDreyhlRy0DvFzXiziY96tbYSy9vlX0LrZLA2A8HAAAAAAA3izzP888OBABXmZLdSknwOcuufBtZot3qqsPUpYIAwFUaaxGv7w35WbLT6nro7TzOkl3RqP/+wNJeWaLdKlFwG15ubfwY7U6SVPFiIw10nAAAAAAAgMJ///3HDBbgWxra3B61avmpV66uBOBXa+7dlOpt7+ny4t6JeZvb2xjLw0mz9sUCAAAAAOA3o4MF+Iae17j20y0VHCKFMWvqA3iBLFHc2LvJ+4AZc8Xm9nWnzkzt5eEmLPsFAAAAAACaWCIMAAAAAAAAAADAAUuEAQAAAAAAAAAAzEAHCwAAAAAAAAAAgCM6WAAAAAAAAAAAABzRwQIAAAAAAAAAAOCIDhYAAAAAAAAAAABHdLAAAAAAAAAAAAA4ooMFAAAAAAAAAADAER0sAAAAAAAAAAAAjuhgAQAAAAAAAAAAcEQHCwAAAAAAAAAAgCM6WAAAAAAAAAAAABzRwQIAAAAAAAAAAOCIDhYAAAAAAAAAAABHdLAAAAAAAAAAAAA4ooMFAAAAAAAAAADAER0sAAAAAAAAAAAAjuhgAQAAAAAAAAAAcEQHCwAAAAAAAAAAgCM6WAAAAAAAAAAAABzRwQIAAAAAAAAAAOCIDhYAAAAAAAAAAABHdLAAAAAAAAAAAAA4ooMFAAAAAAAAAADAER0sAAAAAAAAAAAAjuhgAQAAAAAAAAAAcEQHCwAAAAAAAAAAgCM6WAAAAAAAAAAAABzRwQIAAAAAAAAAAOCIDhYAAAAAAAAAAABHdLAAAAAAAAAAAAA4ooMFAAAAAAAAAADAER0sAAAAAAAAAAAAjuhgAQAAAAAAAAAAcEQHy1OkihcLxelnhwOTpbEWi1if+8gyJbuFdkn2+lN9iesdkCXaLXb6iFuBEVmi3WKhxWKhxQdmamn8sef7DbJkp8Uu0SuS1cPPizT/sT4pXT/mi9etvnq5+pAvfu8/249+9t+cc9nymrp4Gpf57aSwtMPwjdMfaeMBT4qLv+kZfKu6zQe+939FaVzmib/4HgD48ehguSsqs50Mvyy4O2U2jUMwZMnuR1RmixfC3xqve/KATz9WrYhni/vfK94l0re9dLwpz3PlB+/5J8Dn6CvLHv3uKzzh/HXj1uvSyncymq7NRorFwrFjrmg0MO+3+zF+k69f1uBRDzwXoxFqSkNUM69r19/sabM3P2znA4uFpW5bXNv9c8vB2nWVX5cXZIniMNIlz5Xn7wqWnx2gpjT+hc/k0/2wvLqVT9V5S099oJVf9A3ScR28wzvLd5EpiUNFl1x5nuvdlim249Rvr7gD+JboYLnztI2k0/Xa+NfsnOgkKTyn3X/3A22/WKX526CD6ospKv6b8LPD8XM9OuI/S3Za7b3yhT1XfokUbp6dhjJdU8lbk7HhG0tjbXQp0kme63b0X5BWvpOxdJ0p+ZsouJV5S35RdNpr5Zhf+VUjR/X3Hoic5OMxG/AbyxLtNnUjVH47SvtVb6NsluxaeZ20X3UH+7TT5nA7pK/jPS+46eiH2twb41PFi41S43gXxY28NY0XzbpKnusWJPr7RTLgD0kf16tO/lrr154F39wz4uJLZipPfkePGum8yFuWCt7N/KOV/zy1E4R3lu/jquvJ17o3U0wVb1THp9tRfrj5OR2SAH6N//vsAHwl3jaSNmelB09V8X+9nuT7vk5h99/lHWg8gCRpGbwrDz47FPOl8Uahf9Ttn/R3lXx2cD6Jp0Oef8FjSVKmc3KSf/x3z4Pk/dHRD7V/SxU87YXlqutJ0uFJh8PXsQz0PjWTcvnuKzx6fu+g3EgSy20gX781X5PG0/VSwfu78f/FgBO8ylcua/Ac855L+rbXKbrovcq/loEO0V6b5Kws6HZYLoN3mWep8rprJnlPeUFZahv40v6qq6RldlUqX4Exusw7vNf1kixRHPo63g4yayXL4F1mDvPTZddU+sLdK94hF7nGRyOvfj7eWb6N7KrhXNHToVlxV+DrV9fcAXxPzGAxrdfyFaqerJLqHPoK/h0UKdU1M/9dirbtRk1z2nx35Ef/8j7FdNr2tNqhQS22ESvNkTCtKfyN7459tlOSVssE9I1gaU8BNkfMDV9Pluy0WO110kn7VfMcQ0sgZclOizitl0MwpxkP3PdB5nTUzgigoWu0Hcf4vL3MwuQRSj3Pxrpkjn3N5jlLMngHx9HGA9dXPafGs2xff+P3OyVXDWudzxzR0v/8XdOV7X7ulGS2dF0es3WwOl2axzJmB4Wb1v1wiGMdS609SenV+pz70kvv8iNZot1ioyKYlmsdTOv1PWqk84ElSRrPbSR9TIpTvfG/u5Z5d0m/gXWRLWtZt/Pf0XzLKU+bn44b59olaiYr4z6M5ifdezb+vEbC7ZTmW+dP4+J4g/n1wNHe9iMzTu1LWtT3wlYmdn/TuC2j8caWv7SOMbkcGQhLb7oekCWKrXWc+YbL6bElh4brVs3v9eXZ5uXZ02S3XmVZ0qVvbfs07p6rdxTwVyxrBuJhhy2/bKXZobg7tARWmdbT6hlZ0/mEtKOeOGfN+8ywO+a/vXnSnPpZMRrbbw3x9Yrp9RqrJr1GMbhD0bboMFmu5emk/Zs9gsyZ3T+ljHxOfXIofUjSdbiuOHHptmIGz0k67bUaqHs5zzoY+H1nJoQlnpv523hZNG2pucHR5UPl9Vj+0C7vJ7xjtsPyaLwaf7d0rVtOzaul0bhoHLsR19r3ecYzGHpH/1Imv7NY6majZYw0lmc7veN0ytspz9e8znbaK6+191qG78G0NqTxMnbwfpnxJo1bcWrCu276pv2p2Znf/Hz83WysfWA4f2m/1/bHh+I833+ZeABPksNwy4++cv94K/73EuVSlF/a/3475r6i/HL/3SWPpPK71Vf8XP4xv5n/b/7mdsx9+XlxyOL4uv+/ee6ekLaOX/xEuaJL57+birDer6Xz3e619N0n8/jN8Ey4nsb1T7lH1efNsI/dp16XKJfMa2g949FrtB2vCkf7WH3a3xt6Nt3wNM858lyn3ifLc7FcbB51npPy6lTd51SErQ56O6xVnOs7b/v7t/zoF+e/Hf3uNbvEw+bFW59HX7ruxNfGdXbjQDdNusWxS9RNl83rbV1Nb3ox77P92dT/PyOt2+6NNS237qv68qw5cWooPyziTxQZYR6K95Y407gHA7+dk6f1590j2s+2yuPuz6obP8fyk2aaHnpe08oV1zRf/3wsv7bdDhW/UX8aaXy3FaeH8oH++9cO80C8sd2DxjN0K0cGw9JJL7bDFPl4dc/comCVD5h/zXg+mk8bJ7zc0+Z43arpwbpYOy1fotyPotxvhK2vXO2mgf6wfrWypv15/Tzt8cAWN4fDZARuuAzqpHWbsbQzFOeG877J+e/EOmT1/9OO241D7fCNB6ud31nS5lB+2MoH2mm5853WNTmXX5eoGy8tZc3z6pMD6WOorjhad2rqpP3O78tzjpQ7zXQx8PtWeG9HP4+iqDc+2sui/nxzuIzs3OCRtDH8DtGtu/TV7Y3fWN9DXOpetvs9nubc6pYOefWD7QEPP4Mp74LVOcy/ToLojyuNOtrocXoDMfrOYq+bTStjBt+pR/OtZv5RHMv1+bbCYamjdK9l/B6MtSFNKWPH7ldxDya+Z7XCaS13rN8dqGP33td577VDZZvt/RzA7/S///0vZwZLQzEV/pScixE+17QctdX693OiUzWayxBd6inxy20g/z7irFre50/9m2WgQ3RScq7HD/jHf/VGiN62NWtmhvBsGWV5VqhIB2NzMe/PUX7ru+a1dGRnJSdfxz/1N5bBQdEpkXE5jtcz7R7JP+pfZ2M0c9aRi0iX+9JK5TOu9uCZeI1Dqvgy2eCzQLMHmAAAIABJREFUWSo4RI1nmhbTqIr7NfG5PoenQ27Ej3Iab0PjORXLzaTVw++E1dPhdlT7EHed7y8VvBfnXwbvjY3yPMu6No+mq750vQwOisy4V4Zz8qBvxzjmHcq10BujiXrvWqGVXoo4czA2XPX05+h39phyDWPjHo+m5e7ny+Bdl7EliZziVDP+e1sz7Vx11Vrbteq85Xp9cE+tVj4lWa9zcp42I912nq130O3YFz9G8pOR6+g8r7H8xzXNWw3k1xbeobn+/2pgFOg1lfxgW87gsx+7USZa0oW8gy5Rd7+20au6GBsge3909JvxY7QceVZYloHe83oPFm3cR1g393mor2swn7aE3zs0N4Xur1vZza6LLbcKjPufXVN52628ezop4op9Zk+Rl9bPqzzXPV6N+7SypvP5UsH7RY+uEmeLu9PKIDOt9xtKO/1xbkLeNzn/dcuT5uTrTtJYm9DX8Z85G9ncD2Hq/krmHizVvi7G6N8qr7hE5ej7B0a4e4fGngzFEmft4DyxPjlgqK7oXHdq6f5+qeDfUf7Ed4rR33vbRh5xvUrropJTpsFi/4Pe0eAazjenlJGtow2kjQnvEIp0MWbVe3+698o/3uq9hJaBDvcyb07dqxWvJE15t3xV3fI57QGPPoOJ5zD3YHFdrji6NPZvyfN8/F1gyOT60EgZM1anHcy3LPHPOzTKo8nPt70kY1lHaSa91rV8YP30znK/lsG//u/38Q51XLgFSlaWGYtOLGl41nttdTh7GV68bwy0mwH4VX5NB8vYVM5KUalMdM6KArJ6ka4rm2XB2b9Ll6FZYJ72q0YYxjcUbxei03mHXJeoaoxtv/w0G2mLaZuuqmme1V8xTXfsN2PX43yPvEO52feE6epTNJZbmnONUvFCe9NR5ZRtp2mjA8+m8QJlW6buGc91mmZ6Wmk/4USNlzGHzT+zYs2Mnu+3puyOJyo9kq6qcxbpunghqyqs/Q3Uw2GZHsfaDSW5Dt5J8tZue0FVyxGUf6vRhzcvHYyl5WdsStl8wR9LO+VzS89Kg628bXBvfEjPoVNDaMMy0Hu5EbFtmQnXPG047x42rVyqTjSWn7S+Pvq8RvKfV2z427M8Xlvxotf3clkstddpGB+6l9erTvLUviXr9awWih4Ty5GXhMXT4RJJDgMKhg3k0z3hHzueW2PT1LqY2QiV6Zx42nqetlGZTrKzklN/x0Zdf9T9JX6oQXN6uD+irHF9BkNG4q5zGTTHQJwbyPseyX+L09rzpGnHXWt2ss0S7TahvVGoGZIibTt09vQ2lHmHchPr1pJhE/PlMuDNpVom1lvn1ifdtOqKs+Otfem3Yrm1Z/3e7CBIdU4Dbb2tApX5UXpW6NzQX+U/M8pI6+HqeDHnHcKV+zu3Ea+mvlu+sm7ZDNmD7y2lD34GH+6p9aGhOu1QvlXsC+P2jtPzfMslGe95b1mvGEx6H1I/bbK/p5fLWM+1DPSvqLjPG5gwmIbd32sfrhsA+DV+TQfLMnhvNUz2fbEozK7XYrTPvRBbruUp1DkdHwXUpzm6s/h7H34Tesh9BO/F035lvuC2Rpzkc3remyPc2iNW55p1j+4jHi7y9quRNUKdQvPANdaN4bdjqs3kkcBDz8ZoZEnPCv2j/nhTf/tEaazVXsa9ual3oHwfh/XEl2uv5/uZkt1GoTkC6qGhT+7q0WvFfk3HP653+5E4Nt4obmUZMTY86mxeGMfScvrQ9DybsbRTvKRk17R48VlWjQ/lXluPNITeR//fdEw3jYr8nDytP+8eNjyitHOWkfykafx5jeQ/n7aHgDTpRa9aw3yx0t67DD+j9Vq+pZH/en20haLcsPVuQjnyqrCs17NGgXeN5NM94X+loTS53AblKNViNPJaRT4fntPe2ct35Sjp/Vv13cPDdaLK68uaZz+DgbjrXAZNYaadsbpBOfsgTpRZ8r65+e+Y8eOWDdmtfDw9h8OdCFmiXVEpe+k7hV3RKVk13Bb7xUzvmE3jlfY66nYftTxj9slHlS2z4639uVabPj/r9942KjpBsqtSb62llira+rPnNPS7lJFD5rxDXK8jHW9FJ5Tp4XfuSe+WL65bvsoz3uO+oqfWh/rrtMP5VtFR/sx3nHtn4Wov7zLy/vVh9dOa/T29myZdLR/qodFAGp73XvuqugGAn+XXdLBMVzY6bTat0T59/z5FOSpy//a0zLgozOqXmCzZTRqdU43cix/pei+nqPZtcjmdOWLj+fcojd2XOLl72jU6mPBsqinKcftl6RnP1YkxOiZ9cxv51Alrqnho1GLn+5mSXV2xqUfRZUriaXOMnsb7o6Mf6hxPHB1ojux8KI6VDUgjjeKd4G4jKYynj7yZFcaxtNz9fHL+1WdK2tlGOiVvektUdpwvtfZOur6NPLv1Wn5jeZ544sjVZ+dp9s2uK51nOyGcvflJw4TnNXb/XdP8g9K4u6npprczsmywvjk0mtnSRbU8T5UgJ8abcBMb9zXuLLMwakpYxmSJdu0Nuv/ujaVNyrg3tzzVQD5tCX8av2p04IQ0udwqqPL0anbgei0/PevNmNXcp0iHG63249918sqypvN5Wb70Hrw7on34+8ZluJZBA8bSzlDdoJhttNdq86wR5s/RuT9ZojiUokO5XFK5aXVcX/hw50oat8qMVPEmbC5fM8bYbLjaHNw83tveWAqvXEam3fjU/Z150fUs3PTNsVyYW7Y4zbJ5PN52f1/msRM7YSf93tsqOiV6qys5Wq49na5vDzb0zygjx69o5B0i1CY28qO4vUSadNr/Neo7RRwtyrznv08OmV23rDjGRatZnYxjz+BJs2YeMlzv7XhGfUia9k7dm29Z4l8az1thoxwAcDM6AkaT3oR7MLUNaXL91HK/suSv9ieH+mxPWdU7W3fuu9kL2nfY5B6AiQ4Wi/taza2ld6p/n/Mytgzei1F85nTTgaXKxgN50CWqpziurgdj3dLW1NVNaKyt6+lQ9uSb4XBrOCmXf0ib0+WdCpdqvdxNPdVyzj1qTnEuRiw+XO9/+BqbS1Os9mqtid1nwrMpG3/CzsvSY8/1fh9Xe52MqbPWe+8djGmyCy3OW8c1c4s1su9LKi1irW9D6723v79SEvyRV65BXf/7X+kwb+3t+YqKdBiON9IUa0iXIwDjVK5xrDOd37sof58Sr8xAHMqRN8001l/xn5cOxtJysYdHHYdW16H9QiZd2Hj897aKTqFC1S+83jYaf3blNPVqmvkiXutihrVs8Lo/F9XrervnaUN599gtOJRr5dfhvI0lzN78pH0Lxp7X2P13TfOP8f4clW7a97HvxdTToVrr2Qz7YOFc7lFhLhmzSXW8GSPgxuJNKTqu7+VF0U5aPe+p5ciEsIxZBjp41ejkOh7fHPOX9pIsxfMfy6e74d/oeTM/2sbTZJ2n3ztIllsFChUOLA92523LeO2wR8q0kL+wrGk/g5Wuh+ERzd6h3Mvj/n0zPQ/EXecyqF9/2plQN7jvOWDmfQ/kv4McjtvOx1d7eb15V92w10l7VYT2ts28YbFROjrTpbV8ipGfLIN3XTR0vGLmUqOOuFholQS6WS7COzTT/nnrWi64ly3d9DHlNA/G2/ZzrepwU19YJv2+mE0RhqrjtLdVFIYzBgY2Tj6jjBy+lvF3iEjHdVxfq46d+OMfA12rMG3Cxn4Rj75zO71bzq1bamZcbKn26No4vPONPgPLO7pd+Lx2jad4Qn1I0liddizfateZFxu5DZy5B+Nw30Nw+j2ecA8G25Bq/WWs5X418uGFVntPF5dVNLw/rTpKOQu1L+GN1LH70/Cc99pX1Q0A/ESLPM/zzw4E8Hyp4kWstXOlCgC+oCzRbnVtbkyKx5UjwJuNmKnixUYaaNh83EecAx8vU7JbKQk+Y7mm3+I5aSeNF9rIoZEb+I0+uoxMYxWH7qvrkMf+Gr+83pslu25HxWj6eAbqpwAwx3///af/++xAAK+QJbHS4z8dqHsD+AHSt6KBg3edV2htGlqubc+9hrNqc/t/VD6+tnIPswupHBhHGYmPR71Xnf23sispDwC+MjpY8CMtg3e9f3YgAOBJvMMvf8l8lWWgf8dEq9VCe+Of+5cUA/pl50QnPxD9K19celaoSPSvACMoI/FJfnu9dxn80zFZabVopLwXz14BADyCJcIAAAAAAAAAAAAc/Pfff2xyDwAAAAAAAAAA4IoOFgAAAAAAAAAAAEd0sAAAAAAAAAAAADiigwUAAAAAAAAAAMARHSwAAAAAAAAAAACO6GABAAAAAAAAAABwRAcLAAAAAAAAAACAIzpYAAAAAAAAAAAAHNHBAgAAAAAAAAAA4IgOFgAAAAAAAAAAAEd0sAAAAAAAAAAAADiigwUAAAAAAAAAAMARHSwAAAAAAAAAAACO6GABAAAAAAAAAABwRAcLAAAAAAAAAACAIzpYAAAAAAAAAAAAHNHBAgAAAAAAAAAA4IgOFgAAAAAAAAAAAEd0sAAAAAAAAAAAADiigwUAAAAAAAAAAMARHSwAAAAAAAAAAACO6GABAAAAAAAAAABwRAcLAAAAAAAAAACAIzpYAAAAAAAAAAAAHNHBAgAAAAAAAAAA4IgOFgAAAAAAAAAAAEd0sAAAAAAAAAAAADiigwUAAAAAAAAAAMARHSwAAAAAAAAAAACO6GABAAAAAAAAAABwRAcLAAAAAAAAAACAIzpYAAAAAAAAAAAAHNHBAgAAAAAAAAAA4IgOli8hVbxYKE6fecxMyW6hxWKhxS5R9sxD4/dJYy0WsZ4aRV/GiPsvCnOW7EbSVRGG4TT9inT/DX2ruPUs7s9+PM4932ec88eni18Z358gS7Rb7JT0RsafFm+KMmRXXfAPjjcfks+87P79tHj3nX2VZ/EV6qA/SSsvxGRpvNBiIEH8tHjUvJ7Pjzc/7f4Cc3zXdJDGVTk+9O7x9LN+kXrMD5Ml2i3K5/kBN5cOFpN58xefkaieKH3TXkfd8lz5e6BleW0/NsGmceu51X/1NZsvPd0Xnzoj7d6nLNl9SIL8sT4y/plxPz/I+4BT9oXhz6ec/LcrKifPeal65rG+n2VwUHRKdP5Kl98upzuV9uF8vlFWdDN67X5iI/ZPL//xHNZ61A9MD1Yfk9eb9czqr33OLNn11GH1O/Ov7+Yr1EFN1nfbgXKxEyfNMrX7TpzGP7OOlMYMUMSAgXaHyW1H1M1q7fvpelO4l9P8kPvUrEu9oK02SxSHkS55rjx/V7B88vHxodK3vXS8Kc9z5YfX18roYOnwdbzlxQN4RaIaHYX5pNNcU8lb6zlBn9Kb+sk9rt7BeGbl3yWSFGlbpqM0XhkvPbkuUahN9ZKRxtqk5WeXSGFsVKrTWKu9p8sHJMhHjY1WmuK7jjSoPDfuz5OeQ/nBtg7DB6V7vN4z0tiYr5MGPW2jk5Iv08OSKfmbKLiX0RdFp71WxvMYzOeVKt6kZRl/URTGRppMFa/28i4DDWKkY3wT8/OQ6oWy+ntuA/GH5G1fPZ1Gl0Zd9d18yUhjrfaq30MukcJNVbd+MP/6Ip4SB77wM/4KddCu9rutEU+yRLtNqOhSfnY7SvvVvdMkS/5q7xVx9naU9m91eZslO23So/4NvCh/RJ0JeJxjO4bZ7lC2N1xe1Xb0LTzSDpQq3qi+f7ej/HAz0HHLKP+v6iPy+zRe1G12Vbm0evLgkutVJ3+t9TOPiU+SqaiWfVymTAfLD3W9npr/sAz0nuf6Bn0ET5IpiUP5xz/FS0SWKA59Hf8F95ce789RvkKd09YL0Xot/3TVVVL9Qvv1X1q/tA+Mf524/+FSncOPzchh8nRoN1p9iWN9T+u1r1Ny/gKdPZK0VPBuvrh62kbGxyP5vLKrUnkqkuZaa/+ka5HRK403So+3n1lG/rryH3D1FfL6qt76r87jvD86+lJYVFR/Z/71zXx+HdRN+rbXKbrUcWcZ6BDpXu5fryf566KZabn2pPRa1AeyRH/3ni7vwRfrTHoO71CuAPHZAcHPRd2s5Olgdvoutwp8x0NwL6f59vepaGOJDnXevAwOihQqfuKIi+xK793PcdVHV8voYHFS9Jjbp6RVey7U37EuM7Xa66ST9ivblDbz+O3PRpY9aX1vE0oKNz1TVvvC2rq+XaIsjbVYbFQczn5d6vlOpxfbMi3Rtl5q79IILtI37U++gm2Z/V6vOt1fTEtlAZ5es+ZLw73XOlOy2yg1X3Z7dcPemGbfnvrquKzN4JIRxQkUL1rP/f6lqfe1+N5qf5JOe61s4TSvo3MNlvjT+ux+3jTWYpcora7LOpoxVbzYKUmr5Q2a8bd7r7pxvx6B13//quXf7tNNyw/H73mP7KpUvsr30QfTvUs4LCN6WqM8Jy890loiou8e2a+/O7K0u9SCJayDccslb2ivu1zGo8x2n8vjtg5W50vmsVzSWDt/bqaNsbAPpcGr+Qy7mfFIGrTfh2zgmMttYHQ42wycs0znmUO+4ZTnZ4niUIqqaYoj+byWa3lKdS0yel1PRTqdMgp3MB2P5u8Wjd+Y8cW2bngrvbSXfKkz1p5nYc9/h5/LzDKpN2ydGzAQV9vH2SnpRMCReNNbxkxfKnQxNe8074kln9s1M8PGOR9Z5sAepgnl+Ezt8zWfbV95ff/1C/O2VhiHytveON9TbnSu54H8alTxEtgcnLHUtsjAlD2Qf5nX2FtPHXzHKY8wlA5G0/5wHBiOX60wvPxdSjPykC9SB3VSjOysOlAq3jaSynJ/vfZ1Knvy6sFoU2ZMPeO9xHRt/GYoX5W6+bFr3m57P43TZrjt78M9YXQut7vG4kTjGi03tPH7XdKq1/W3Y8xL91Ouq/suUJxroE40uY5h0xOmKW0dD+gv29rX71DOWd/JXN8B2tfp9i4z5f7NysfabTiNz7rnsh6/t547nIYfK+N6L6h53yxxwJY3WZcpbOR1Q89ruK2v8XzidPA9cNrysUP5fWGwjje4TOWYtda+7uVUk3u+lsatekr9QX8YZ75zuNUpp5VDw+9nM9pnzOO24mO7rbf/nWZGXJ2c3gbqE1miXSO/+KCZzzlqt2Puy8+PN9uHlzySct/48Hb0c92/f8uPvoz/dzlHcWwpyi/msf1jXnytPHZ0MQ5jfm4JbdT8fvO89rB2ftMKn/Wjoe9cos41RVFk3MMiHMX/d6+x+P3YeXtCE1nulxGW3vOrvi+3o99zP3rO13pe9+u8RK17XZ5r6vMdjJfD1z3nvlrjVvmb+jita7Skj2ZYWvGjczzr1XTSxZS0MPrsW/ez+LwZ9vwSDR5jMP214r3tnH3X1z7uWNht96v5+I3vD/22E0ebx7Leo16WuOFHeeQb12Heo9G45RqH7XGz7z538wbz2tvHmpbGhvPvOq9xSYPdZ9B+3tPSYH2tRp5XP+jcH4pD3ZDmR78bb5p5n8uzHb83VRil7vfG8/n6Pt7v5e2Y+53fDJ27dS9G8/eW6p6086y+8qP4xmCczM3jTCnDZ6S5aWVSf9i63xuINz3/36lvDcUbaxkzcl22vHvweke+d4lyP4py3zif+YxuR7+bXgfrEa08bKxcG6gjWvVdv+181TPpzV/sXpO3dU7Sk07H4/xQuTErv2q5RHXepfbxbflvnlvKq3n513A+M/aOMxbnpqb9oTgwFL86B3n9u9ScPCT/AnXQtlaZaUtrnefWyAuq+1rf20s0tT74jPcSSzprpxVL3vVo3m6NO638vXHMwXr0nHK788XxONH5f+PY7fB16iL2toG56X7qdTW/d8uPfpRHkRGGxvkueTSQZ9qe2ez3VBc98Wtq2VY/omn3zP5ONvUdoB0H+upVtvs5Xm+b/v7QUsXHdhjtX7Y8q5F6rpEPNt9tp9arppdxTd37eonM+DxQ7va8X/S1m43mWZb7NBpHJ+S1jaNb4vDoOUbaIJps71iWMqX9mVO+Ziljx8I4q77gWqccL4fc4vBI+0z77JZ6R+N59/52Tlx1eZ8cq088kLfP8L///S9nBktHNSKq1cOWnhUq0sEYIbYM/unoN9en9yfNdrCLjJFAjVHD2VnJydfR2DH7GZsPW8Manp+3hqG3VVQtzSLpepXW27V0X26mGIEXbJfWa5R30CUql0ZwUS0T47TD+FLBu7F26rXed8Xsje2b+XFNZey5UYw4rHrS02Iuo3Gvlwr+HeVXz2/S8525D8Iz76siYx+a5jXa0of35yh/MD5Fk/a1MdOFe1rIdE5O9VJxxQ90aO8r4bdGf3qHxiZYy22gqbOVXaeV9qb7qWF3Yv9tN456+nP0m3GkfY96lXGjSufZVam31dar84LsmkrR1hj5OBC3nhSH++5zNbX4fqgyLm+nZh9jcbLz+VLB+0WR9WAjGs+gWB4rvVZDnaalwfo+lCOj/aNu1b03Z3vcL2YtT/VSNE0jS3YVZ3R4thPuTTm9PS/3YNFmeMRn9+fvxt4H13oU7tDm0QNG83erqLGsivdn7Ptdvcu2TS7D3dKcS5k0vqTcSLzpxGVPh9uxzoMnx5tWGTPpuoy8oHlV4/nucqvAqBNm11Tedivv/kyKukI142oZvDeWpPK6iafHK8qGSqhNZ4Sq5XzydCgy4Z78xdET8rZxA3G+7xeD9Q/3vNw7mPtg3HT0Q20+JP8arqeOv+NMi3PzlpOcHr+meO671Jw8ZOTaXlwH7WiUmcV+Eaf9ymGEfrF8Xl7u3bK+z5iSMWrUYVTozDqdby6BVy5j5vYe80Defg+DuXzfVtF9Rtm0evRD5fZgnOjGs2XwrouROXXC5x10O3ZjVbNt4MF0P+G6vK2Zzq+6aq2iqaA84vWqkx+omMzwwFJSTytHHA2VbTZTw9POMya/A7y3lqAsn+Vo3jalvm8zMX2Ze9rcAiUr19lJNkb+XcYVMx8p0lCVhl9Uxlnuq3co7+NYuWs+H+NYfe1mtrJoUrvkUBy9XnUy34lb+d5kA+eY1AZRX2VR76pmlywWWiz+Khk9vXu+ZpoWRsf6wsw6ZX85NHZdc9pnXFnK2Qfi6mh6e2o75/P8mg6W6VMU7RsBZsUc6tZmR0utX7qGoZmBtTt+iulOz+Qdqg2BnzWFysxAU53TQFtvq0BlgkrPCqtKk21pFxVT012lb3ujMlZYOj0oY9+VNK430rpECmPbi3ARD+pMoMzg1mv1Tb8vGi1NA893Gei93HTSeTr0E++rVbWsmqROw8xqr9cseeieFk7VvSv/NqOJpzXd8GXXYtOsuLiHvcdYPGotKbjaz79is1EjOyfytp68bVQWdkX6iMZ6MMwl+14Sh6v7XORTVUFcVKJcKxdjcbIb/mdpNhB+VBo0tKZMT4qfjXzjkXtTNsKVlTS3fN7ct2Bo8+ghU/P3Z1oqeL/pqOrlop5m/XAZ3nguc8qk/rB1zzUSb0Y3l5wbbwauyzvcNxVvTP+fXAabjdaZzomnredpG1V7AJ2VnMzO29bSEI6Z+9PKhobWJvfvgZbWpatU7Ff3jFP2+JC8rRHnp3hmXt7qjHXMN9zyr6F66vR3nP4455D2O14dv579LvXN66CNxodiaZXJjH1XlPzV3rvUmwy/TXzir34vsXk4b+/TGnzSW49+Rrk9HifG9n7s1FUmmpPuJ1+X2UCYnpUGW3nb4D4YMz2HRsdwuz1nJbdXlU+oI1v0dew/3g7z6PWN5G2u9f256WsZ6F+x+dhrO78snl7G9eR30pRyt9kgnp2TVvvW69oG73F0va73sZTKTqHn1IMa6cCpDcLs9M+V5/8UyD1/cy6XZ7WTfET7QLMcGrqup7TP9OkrZ8swusXVientM+oTE/yaDhZz1Fc+Y3On5dq7r0dbKxpXPka746ecafHkRrv76LqLp/3K5QWp53jbqCgYsqtSb62llirqTVmz0rReG6MIas6bRVZr8h9aGxPajp+dlXRe6pr7rtTrDZfHGNqL4N6bvtLeu5QjU8uX2nZlKru27u3I872PQLvpmG6mr035rPs6SathxuigfC73tOAfb63vD29mm8Yr7VV2rOW5cnP09AjXRt4xrmEfDtxAPIounfPkc3fBW24V+EWF7HpVsR+Nt1UUnpV2GhlHfEAcrkfQpTo7z36TxuPkjNE+s7wgDbb2FGp+lmi3CRVd6vNdnKfmPHhvzEa4yfl8a9+Cgc2jh03N30dcr44vwfWMy9sxbYyAf14ZPrdM6g/b3ZR4M7jvjzQ/3oxc130U5UWeOcp7Yhm83AbliNFiJG6R9RUvL9k50eneeVvUNUIz33VMPE8tGwYVjbCdUbfO8fYRH1W/GPPKvNx2n4sX3ns9tPrXufmXtZ46/R1nOM5NSPuTr1svil/PeJf62nVQN/YyLD2Hloa/5r4r12vdQdfYx3LMU+p0M96/H8zbJxmsRz9Wbk+JE4MzI9TfsD9mbrqfVh/xtC1HWGfXtKirLavBmEWd/L4XRxprtZeR/m6yTMIZ8FXKkX6P1eFcr6+9+fNA3ja3vj8zfT37XXqqp5dxPfmdNK3cLRrEE52zsvG70b71MW2DkrHfTTUA+dkneKQNwpzZ48C5Dj0rjB/fPjB4Xc9sn7HpK2dnxdUJ6e1D2zmn+zUdLA8rl7uKGxs//9X+1JzaN83UxptSuezE5NFBLzJWcbN+x9sqOiV6e0skoyJ+ur41K022a0xjbczGzjQeHdGRnZPmVMaK5fjFTJejzLbUrByR1XjpNEfSW0fVlo2yN3uGWzTexs2Nnv7udaqmGj77+ZovOVPuq81o41aLJX28hPO9Kkd/7N/cGxqNBo30zWEUUG9lyjHdO4e9aKSop0QWL8NTwt2NoyPKjcf6ByMVYQ/Psc6h2fCT6vxmNjJOMDcOu/D+6OiHOsfGrLohY2nM1Pm8bFgdC9NXSYOjjVxG50vZwT2Z673JEu3aG1P/NWYsTsznzVG4S6kcOd7dPNqumY5H83erUBtzs9/YnHreHWk+Kb4804fUOQZ+DAfhAAAgAElEQVTiTScut/KyuWnqI66renmJzwrNwRnpWW+WkWH1iLsyHkw7ybSyoZ2HlKNP3VfdsJ0vVbwJW8s6TfQheZtreTvBlHg3VDb25V9G2u/c53Kz32Ozojoj/xqup46/4zxQl7JpxIG58esT3qW+ZB20nNnQk7DTuBUfW/WnThnWM1CtnjFV/P96XS8x1xiMZg3E4+8lp/3fOoztdNEZZR0/NAt7Dud69KyT9MWJbjzLkl1j5HInfJPu0ZPTfY9iMOab6qaCpdbeSdc3W53cGK2cvk2fwTKxHGl3cCe7hdMytJ9m4vWFm9iII3G9RNWkvG28vj+lraj7o7i78ftmfDWBWefq9UBcHyr3be8lcdmWNaVtsVri6e2t2fj9QW2DxcCgi0OjuJxnBj+Wd5bvB4PvXG3uz3pWGF/VPtB/wgnXNb99pugQrJf1apcx/ad8YVz9iDaiOXLUxjbj6mwU2N38csrmV/Uml81NroY3BjM3Ybed33KOkU3um2HtHr+7efCEjZkt3ymut7sxVHeDRnMjRcvGXJ0NpjpXbd+sse/41o3c7RskW8PTvPjOJpLdzQjtn3XP03q+jY3fBjZPboejs7Gd2+ZxjXONbSBpPY8ZVttmYGMbs/ZtSjWcFoY2WLPFb/tmoc1riS7NjRWHNxi1h3teuh8Oe0cjHvr58WIcbywetT830lLnens247WGxZIOGr+bFbeG4rB9Y8up99mWL/rNL1rS2Fj+3I5Pxff77183DY5uLme9TwNp0HrM7vWObabbiJ/+Mb+YG3fPeLZj96azSfRYOdLzuXUj6Va8Hz5/d5Pi/vy9cYD7fZp6DUX+U4W5Ly0MleHj+W9fXHArk6an08F4U3yhmZfdLnlkq0f0xZuxzRYt19X7HF3K4NyWz1XnbIXHll9P3OS+cw97nnm3HB/Id6ZsXmopH8zzjW8i+Yq8bSisZvk3FOcnlBuWcHTi3WDZaIl7li827/PwBrWNaxnLv0bqqcPvON3zNOOcSxltiZud6x5/n3r5u9SMPOQerg+tgw5t8Jt38y/Ls2mHzxq/BsM4UJ9/+L2kSmPtezJwDVUZa+Yxjnn7cP5QX0O3PmuLx3PK7bbhOFGcvnmNt6Pf/y7qH/NbWR/pv0bL7yale5frMo7T2VS6G572NV6iqZvc28JreeaN8No21LYFf2CT+8GyzYxD0+9Zf718wjvAsV23ahx5MG8bq7d17t/kutO0srFzDyxxsb8O2Pc+N/WdeyDPGn0nbv3Wsdy1b6Dec9/uv+9Lz5ZN7kfqX533rqntYeUxJtXxBtogurdj2vfMe+SWr/WksaEwzqwvuL0DTyuHRtuNprbPWNjy38Zz7k3DrnF1Zp3S+t2P3+R+ked5LuAbSOOF4vXtRUtgPCBLtFvt5V3MpedSxYuNdHFfjg7f35eNq0+SJTutrof5S4jh2/jpcRkAnuXLlo3UU3+uLNFudW1u/g0ADeT3r/Jly/0nSONFsRfxez2jMUt2WiVB498AFP777z/932cHApgkSxSnR/07fNWsvLUkQ7kG/88rajGFt410is/Kgp9Y+Uj1tvd0yYndP1+5/vXt58ViAHiur142Uk/9idK3ouOM5wgAH+2rl/tP0Fr+sdjfIvis0ABfHjNYgCfIkl1nLduIUSK/WKZkt9L1QBzA98UoJQD4GainAsBvxQwWzFHEm8ZWG/6R90Kgx3///UcHCwAAAAAAAAAAgIv//vtP/++zAwEAAAAAAAAAAPDd0MECAAAAAAAAAADgiA4WAAAAAAAAAAAAR3SwAAAAAAAAAAAAOKKDBQAAAAAAAAAAwBEdLAAAAAAAAAAAAI7oYAEAAAAAAAAAAHBEBwsAAAAAAAAAAIAjOlgAAAAAAAAAAAAc/foOlizZabFLlH3zcxRSxYuF4vTlJwIAAAAAAAAA4Ff79R0sAAAAAAAAAAAArn5VB8tLZpJkiXaLnZLXT08BAAAAAAAAAABfxK/qYAEAAAAAAAAAAHiGX9PBkuwWWu1P0mmv1WLRmclyTXZaLBbFX3sTkyzRrvrM+DxLdlqs9jrppP1qocXkmSyZkp1xvEWs1Pz31vmbM2/6fgsAAAAAAAAAAD7Kr+lgCd5z3Y6+5B91y3Pl74GW1YenvWL9U57nyvOLonBjbBSfKl5ddcjz4vPbUX75+TJ4L/5fvo63XHn+rmBpP38tU7Jbae9dyvPluh1TbXaJMi21DXwpPBudJqne9idFh0DLwd8CAAAAAAAAAICP8ms6WAb5R/2794x42kZSes3u/3/ID/Kq7y63CvwHzpWdlZx8Hf/cj6hlcFB0SnTOyv9WqHPVw5KeFSrS1hv/LQAAAAAAAAAA+Bh0sPQ4Xa/3/87M5cMWK+1PDx+9XFKs+tsovH9WdPCEZQ9Leg6laFt38Az+FgAAAAAAAAAAfAQ6WMaksVZ7lUuA5crzm46PzGCRpPuSYuZfvbyYV/SwKFWqc9icsTL2WwAAAAAAAAAA8Hq/r4PldNV1/FstntZVB0b6ZpnBctJ16kGXWwX+Sfu3ga3pvT86+qHO8VmhH2i7dPitKY21WCyM/WQAAAAAAAAAAMAz/KoOlmp/k81iocXUjeG9gy5R+ZvFQovzVpeocVAdIincLLRY7JSMHnSp4P2mY7oxlvlaaLGIjY3ti83uwzCUH2y1dPotAAAAAAAAAAB4tUWe5/lnBwIAAAAAAAAAAOC7+O+//37XDBYAAAAAAAAAAIBnoIMFAAAAAAAAAADAER0sAAAAAAAAAAAAjuhgAQAAAAAAAAAAcEQHCwAAAAAAAAAAgCM6WAAAAAAAAAAAABzRwQIAAAAAAAAAAOCIDhYAAAAAAAAAAABHdLAAAAAAAAAAAAA4ooMFAAAAAAAAAADAER0sAAAAAAAAAAAAjuhgAQAAAAAAAAAAcEQHCwAAAAAAAAAAgCM6WAAAAAAAAAAAABzRwQIAAAAAAAAAAOCIDhYAAAAAAAAAAABHdLAAAAAAAAAAAAA4ooMFAAAAAAAAAADAER0sAAAAAAAAAAAAjuhgAQAAAAAAAAAAcEQHCwAAAAAAAAAAgCM6WAAAAAAAAAAAABzRwQIAAAAAAAAAAOCIDhYAAAAAAAAAAABHdLAAAAAAAAAAAAA4ooMFAAAAAAAAAADAER0sAAAAAAAAAAAAjuhgAQAAAAAAAAAAcEQHCwAAAAAAAAAAgCM6WAAAAAAAAAAAABzRwQIAAAAAAAAAAOCIDhYAAAAAAAAAAABHdLAAAAAAAAAAAAA4ooMFAAAAAAAAAADAER0sAAAAAAAAAAAAjuhgAQAAAAAAAAAAcEQHy5eXKl4sFKcfcapYi0WsjzjVd5ElOy12ibLPDkhDpmS30C75WqECXubZeRN53TxZot1ip/6s5wPLqw/Rup5vGW9mPJMPv86Pjzdfs2zv8WHPg7oFAAAAAMxBB4tNGmuxWDT+fk6D0aOKF/Cxl/0s2X3DhijgmYpGw3s+MtqYN/z9NF508qX+hrAqnbb+dokyS/5W/5WN530Net+ygfmLyBLtKEuAH+vn13va5cpPvlYAAAAAmI4OlpY0XmixSXW85crz8u8SKdwwqq9oIFxpf/rsgHxdabzQ4qktqD9tRPhvkSnZbRRGlzIfuemovVa9nSwTv3//vPh7D5aDofCPt8b38/dAS+/QyNukSJf7d941cshBT4n/o7MkgO/hO8yS+A5h/ByUvW1pvFIS1GXKJQq1Ie4AAAAAAB0sDVmiOPR1vLUaGb2Dbkdfp/3bLx6tlyn5u9cpupSNssOWwbvy/CDvA0IGfDnpm/anSJdDlQKWCg6RdEp0trVGuX4f388y0Hue60CmCPxIP73e4x2anfreNpJOV10/MUwAAAAA8BXQwWLIzolOfqCtZQT3chvIV6hzKlXLJMRpc7mE9kjHYrmI1tI71s/mrI9uWSbIugRNa03tvt+OWip4z5VPbR1sLyVUhu1+7t4Lbi2T1Phe67PGPR14JuY1N0ZbpooXOyVZ87jDz6JviYziGJtQUrhphX3mshpprMVio+KQtrBdHeLf0HXZ1l1vjd4den5DcSqNtdglSquw9I12bR3fPEZzaayJz3zgOtvfb6cB+30rf9M6eN+MjeyaSv5aa/Mfva0inXS1tEa5fv/rcYn//c8oS3ZarPY66aT9qptv9qdl23kmpLNG3DW//0ia6FvqzbKfR3vJNsdr6ksb09P+yDJ2jWvcKenExZG8szf9uyyH53Zd3RkZxbk6+ZJxL/vzmHFD+cVqf5JOe62G8r6OoXtjK7Pa4Z1ank0I4+y4OSWcY9fe/b5bvWmovlC7msesrnGo7B0tC6v7MKV8cl1G8n4neu99Gvc9x2a4WOYLAAAAAJ6HDhbD9XqSvLWsK+Qs151RieHmr/TPXEbMeFFNY632qpcauwVK3srX22Sn1d6rl+W5HZVuJjbqpHFrCbOLvP2qeGlfbhX4Ung2X/iLkfGHYDn825cqZr/IXK7I2lHTXiYp10VxeV9SxYuNUuMYt6O0XzXvm/lMLlHZOBKvdSuvNzrt9bdxo0/ar2Ktb+Zz7HsWmZLdSnvvYoQhLZfI8HQoz3lfxungjfxmhHcowiwpuhS/NW/baR/3xr+H4pjtuvue35Q4ddprcz3US1R1jp8qXpnHvylIitliWbJTvDaXJDlp/7d57wbToUW4Wel6qO+LzPCmsVbXg/Gs/PJ4S22LxNVoRDyHUrTtxuXr1W0dvcnfrzovJjaMnfar2Q3HUqhNo4FyocUm7Pnu9PhfLbloy3eWwbvy21G+/DJOmbMJQ23O28YSanVanpPOQm3ueYPrcjf9aSKNm3mYPc6XTnut5l5TGmsTWpZ3yxL9Ncue3lkzmZKdkfd18sd2ujzoutnr1Ph9c1m7dVw0SrevsZn+u3n5xdtrVUWIB69ruQ3kmzO/0rPSKJLZU5kWCVeepuUxffrz2WJAwu3oS/6xiGND8WDyM5GKMuusrVkO3sM78ZkUd2okjI+mt6Fw2oWb/u+7lWnT6guNuFktyxinA2Vvqnh11cEIgx9uButQQ+WTU15xN3zvi1kl5szHTEkcyj/+kfdIfcQWjrhORwAAAADwm9HB8gD/+K9u/PO2ipTqWk0UOYdSdKg/XwZ6Lxscz8mpfNmtPztEJyUT1gLqHFee/hz9slOlXFbIaAQ2G5KGf/t6p+Q8/BKfnZWcfB3/1K/r3qFsXEvPClV2FJWWwT8d/eZ9M5+Jty33l7g3WngqVrRoDsOOLkYjrvenc8yh8C2Dg6KhZZzm/Gai/vj3WBzrY3t+0+KUufSVRefZLhW8F8usLIP37pIkLUPp0MY/3uqG2WWgIsmU4fUOjc6/YuZa9dWDovsstjrclv6Vl/AOdcNynt909Mc7BJp7sLjur2I2cpt7tjiwxH95h6Lz0znfaS6htg38Oi3PSmdm3iB5f47NhvkJevO0RkfckEevyYiPzZBNSOtLBe/vjbTbSF6ddOnpcDve00M3fEsF70WjdP812o5b3vvGPXvgupZbBUYenl1TedutvPvxM13TumN0Sh5j94p8duSZlKJLvQxV0aFULtM0+ZlM8Xh66w1n3xl7v+94ryfWF+QfdWsvyziYdj0dzCXAykEtQ0bLp8l5RWns3rfrMOX3g+3yqfWRLPnbWtYSAAAAAH6vX9PBMmVpifXal9JrzxJGV6XytV7bPqxUy/kUDTj+wJebI8vLpXWmaoxiL5f4qHhboxHYMsJ+6Lcvs1TwXo4OHRp5f73qJE9rSyOwdQklLbX+8Hf7aumi6q9vdPCjv5kXNrPv6KE41jDy/B6MU/ZnW2ktoTLpIh5ZVqu1fMrKHLFfNHZWHQNm52Xbej3S6vbg96Wlgn/uHQIfridNu19vj0Z+/VHpTBpKE96hnA0za9aQpl+Td7jPBmosdbcM9F7OzOosYdQ5VzycR/Smy3sgrPn1uNbsKDOdPXxdZmdApnPiaet52kZluZidlZzMjtE5eUzteflsFZyRZ2L/kdFoP/eZTDnNo+ltuPN77PtT7/Ur6wvNuuRK7lWounyan1cM3fsy/pedv92lb5+QT6axVvtTo0MMAAAAAH6zX9PBUmw+OrK0yNrr3VR6aH8Wy5G09rozJUzNkeXF3/vU4eXmkhKdJbeMRuD0rNA/yhw8PvzbVyr3cBlakmK9lt/TAFM8m/bo16Ij67muGl6tyW8sUTNtZsCc3zzuoTjWMfD8HoxT9mcr2ZaMc55BMaoZh9J4pb2O92WjcnPEvqqR9rGSLNU5bM3MGLum9Kywp5PW9fvfRk+adl1CbZoH09n1KrdQ9aeJ+2yji6f96pE9DkauyauWN2otzbcM9F7NdEo39r22skS7TXhfAqlaVrFhdANr1wbzimV2lDkz4JHrUjn7ITwr1VVXFQ3t3jZSeE6LsvzeMfp4HvPUfHbKMxk195m4+vhybeq9nltfyMa+0F76Nb/p+GBf8by8Yvje18vkFTN/ooO59NiDzy2NtSjjKJNXAAAAAKDwazpYJimXVui85Faj9Q5T1scuD7WNpDCuRyRmiXbFRinF6ML926xGt85xrZdRLLcSn0P5wbZeAmfCbz9VubTL/s3Y5SIuR3WWM3NiI/DVEhWHB1t0mnuXxJ2lRYbCZ2WO8p3wG+umtJ1Dujw01zhWdgjelzsqGx0n/PIpcarzbIt9CKqw1zPByjXfH3Ta/63Dm75p31nCqt6HKX3bNxvdq+e52igc6nC1XVNsLqdWjpqvWo7Hvp8l2jXiSLEHyKmxPNsXMRb/01ibgc6pguMspKlpsyHUpt65uvV85qeJp5l1Ta6MDrwsUSN5deJksSfLPT10wjfxHlny8qdbbhX4oc7xWWGVntdr+elZb8mps2/SvDxmYj7bbugvN0nvn1g08ExGgzTzmYx2pI2d59Ucy7Sp9YXWnkNv+9YyZLKVvcYMofRtxgyWB02599XyaW9vzdlajz63sc6VcvbV6/f1AwAAAICvhQ6WhmJEcr1kQ7VkiHTp3Si4h3coN1WtlkBJFPyp13y/HdPOBtKTXkq9QznSsfnbxkjesnEpDMt1t11+OyCNzSVUXJa1aC7BstpLx3+2zqpyvXhjyamNqgbPYv1/GUuEFBvePr5ERXRc38NXjE7tO2a5LFDaXBKrsTzQn6P8U7lsUNmhNvabYcWeJtXSKFMbLlzjmHcoNlNelcueXA/muv0Dz+/BOFVdY/PZrpQEf+SVy2DV//5XOjRnlMzhHwNdV3VcNvfg8Q7N+HfetvcvKDe7lxqdl1Ouae9dBmb2jHx/uVVwX45qyvEK7SV1xjryHmWP/817utikOt4GRkxX++JsXJbNmZHO/KMu67i+nzL3Y5ibJlpLzG3CB5bRGb6m5lJFxSyMg6fWElPFdf2zdhgH+meWUX+lQ2M4fjtOxlrfzHvQfrYrXQ9TRvR7OpQzU2xx8+HrKsO2DXyFYVh3piy3ChQqbCwP9lgeM5bPVvs2baamvdFnMnoA52fiHMb7eR4p19y5lWkT6wvRRYfrqhHX3o09hzplr3do1g/P2xkzjCpz84pp997bRjqFoTFba/pve8Nb9vZVy/fNK+8BAAAA4OdZ5Hmef3YggM+RKi56zz5xqYtU8SLWeqjBGU+SKdmtlAS3B5ZKUzmKV0/p3APwu2TJTqvr4YOW5gQAAAAAAK/033//6f8+OxDAb5YlsdLjPx3oXPk2is3tL3SuAHCU6m3v6ZKTewAAAAAA8FPQwQJ8omXwrvfPDgQcpCr6V2ggBeDK04HOFQAAAAAAfhSWCAMAAAAAAAAAAHDw33//sck9AAAAAAAAAACAKzpYAAAAAAAAAAAAHNHBAgAAAAAAAAAA4IgOFgAAAAAAAAAAAEd0sAAAAAAAAAAAADiigwUAAAAAAAAAAMARHSwAAAAAAAAAAACO6GABAAAAAAAAAABwRAcLAAAAAAAAAACAIzpYAAAAAAAAAAAAHNHBAgAAAAAAAAAA4IgOFgAAAAAAAAAAAEd0sAAAAAAAAAAAADiigwUAAAAAAAAAAMARHSwAAAAAAAAAAACO6GABAAAAAAAAAABwRAcLAAAAAAAAAACAIzpYAAAAAAAAAAAAHNHBAgAAAAAAAAAA4IgOFgAAAAAAAAAAAEd0sAAAAAAAAAAAADiigwUAAAAAAAAAAMARHSwAAAAAAAAAAACO6GABAAAAAAAAAABwRAcLAAAAAAAAAACAIzpYAAAAAAAAAAAAHNHBAgAAAAAAAAAA4IgOFgAAAAAAAAAAAEd0sAAAAAAAAAAAADiigwUAAAAAAAAAAMARHSwAAAAAAAAAAACO6GABAAAAAAAAAABwRAcLAAAAAAAAAACAIzpYvoAs2WmxS5R9sWN9B8++3l9z/9JYi0Ws9LPD8QJpvNAi/kpXlipeLPQ1gpQp2S20WCye+/yzRLtFedwPvNCv96zxeb5SOgO+omenEdLcPOP37WeVbUW9Y5dUNWvizTM99t7SfjZfwQeG6Qe/CwEAgI9HB4spS7Rb7PSl6pkqX7SqxssvGD78dsXL8td6QYNV+qa9jrrlufL8IO9ph91Lx5vyPFd+eNZR0ZYlO6MsoDzAb2B2Ck/pGB75fhq30tBisHGyWf8yj1mUe93Pir9dkvXXKb9oXfN7oL6BD1QOHqEzyE0aD+er30a7vCAiAACAAXSwfHFZstNGl6LhMs91O0r71e8cbfPs2SU/a4QgMC67ppK3/v/t3Tuuq0q/rvEXaTXCziztTuDMPcAhzubOZhMgPgE0YYQjg2RLdvSt0JnJThecGemkO+cEgLlfCtvj+vykIa01bUNRV6g/FFo9d6vKN/vcraIunzReH2xdirGgGg+Y/FmGu6i/gyRc14LCmS6Br+1IkGXe94NGO8qO7nifGFTnYNk9OG3Lu///RYGk4FJ95+gu7w+fc65D/cYPQUDyk/3WviRRuFU1VtwiOf6W4C4AABhEgOWLW7nHxh3hq50rR4munN/hy8gnmh6ZUMLHuF5Pr9iqXrJZVJJ3HU6BLq2njlbuUZdA8sMfcKco0JbGCn1H0VsVALH/RHLk69w32Wf6fXxDnG/gA61cHbNMPJhrxvZmBK6/PFte/ZxrtZPrfGZ6AADAV0eAxUB7eZb73TxJ2LNUS/OOn8Hfvsi1vr/WzkbTUn+Xwujj0MPLcOTbr90x2rr7bCovmktyhErud2+fpNNB64ElPfoeSe+/EzQvm60vyd/2HudY/rUfGR+9m2kkP4fzIT/eMGnmcZi09j1wXHOWPelJaKs8p8qlfjw96yW3jns4j8bSnCi09orT+ne6dzE20jXRsNJ4LytMmnlf/03PeszNOrS0bLrH2k7qWLso030/1oHj7Cwhdf9ent56ne8rk+H9DJRTGmtvbZVvtl4+Y8v0lHlYbXNuP2lS1oNtLwnz9DfacfsO9/G21Exnq06O9Q+z+9fWcZ99Kdj1Lulm7wLpFOucluk2bDM9ZTN3OaaxfBiui+PpHG2bk+XWzriBskhCWY162x7PZ/bvffnRqivNJyWn+ruJvjAp68/Q3dytbcwab2b0i33H2f5+u88bqOvzx2lJ16tOstV4OK6Y5Er67jIx/f6XM36uM96masbqd/6F0f7B/Hx1eGx7pE30L4/b9z6P6T5vsv73fWbQX48v5Ts+9nd+3/nCUPsf768fOq6ep0a6bfeJ1zkD/W4a72WtDzrppMN6rO+bKIP2Mbe+M/zb1tMbfeOQ4dNmj/bF7X73OrXD9jJXvem9NurSnLFy8jjmnDfPNTQu9y7h1uojHhjTm2l41+HkyN1977ARAAB4oQyVW5Q5crLo1veRk0lBdun97iULpMyp/fAWOZmcKLtN/rb53SmXQKPfzfdVT0uetuBy30Cm+/+003bLIqd5HAN7ySJH3e3c01X/vLXN0f335NUluP+2L58a/3YJMjXKb/x4LkHzGKr9T+RfYx+tz3vyqXf/M8qhvp9LoEyql327znXrYN/xNfbf3l/9u5cgU+242uXS3Hb7ONtpuWWRUyvTRv5087K9nU79qNWB/vozfNzzyreZ1t66vaBsGvWmVY9m9REab5udbZT7reXFaJ0Y3M9U3Wq3gZn9Q6uvnZcHc8t6ou2p2Y82+9WJetnuA25R5pRpGO0f5vavBsdS7r81Fpm0maqPnSq3lpF8mK6L7XSWdaL2nVuUOZ22OVZupn11T99t1L939eVXva0Mt795bazdN7X23im/S1Acy6xxd6Rf7DtOdceAZnrbbbnYnsE43a1HT/h+WY9qf2Ple+/fR78/kF/Fcbd/r/Z40Hccfec6E/37dJoW9A8j58Wzx7YlbaJnLC622Hu+sfiYBo9vfn99i5xu2+09H679/8j5Vbd99bX/if764ePqyWcnyAKnOXbc02R0bWHYV4/WwWp/w2XQ6l97zi2mftsZhwbPfyc82he386pnXOzsr6e/7Z6PtfN7xlg5dRxj53yD7bv6/uA5V895Vff6pVYvx+rWaDqyrDlejNdBAADwu/3nP//JCLDUGV6QXILq3/pOJuuTVvN/O6Jzoth3CP0Xs+OTc61Jrqm09ObTJQvak21S5jgTx9az/6G0TgZY2r+fuCgbDLCM5N/gb0YmeWeV7VQ+9FwENNLSd5HQ2GZL/fsD+TQ6CXIJhvN96oJlRLOu9lzUzagvY0GEyfYxM8BiVDa9E13P7iMG2k4rbbMCLO39TNatOZMh9f6hL61TeWBa1iNtb/B4xvuKsT5gLD1V/2DQH/Qci0mAxbTNdLdzP6Jmv17/ZCLvx+tiN53dujejXxk59um+upsGs/6958jnTCb39Y2mbax/55OTkP3bNj9vmN1PVL/IImcg0GhyY0vW8/sHvl/9xuw8oedbIwGWnm1PlNVkW6gSN5LnwwGWJWNqf/5NjW2Ptom+Oj8xWW96TOW5areQFvbXWfP8aLBfHQ+8T55DTPXXTziuTsAmuGSXoI20BlYAACAASURBVBUYGo7CjpSBYV9t0reVRsug3h9N/HbuTThzo/Bthn3x3OuW+m87aWvkx8L6Z3QcffsYPrdof3+yfoyc55r+dlQZMF9a1gAA4Ef7z3/+k/2aJcKesUTX6bBubGPrV5+tdq6ccpmW9Ky49Rjx2G9nHoD2W19O9KYlS0+fruVD5K0lBdYHVa9PWMk93hSpWJpidPmV8nH98i9/hLzalCsvkE6nkwKvvg7v2P7zdzksf1n2SjvX0Sk+Ky+GWCfH1TOe5q7yT9WyYsXf+jD0Aoqx/BzLh6V8ba0F2+xbVkXSZuM0/9s/39OfnP3Bl6Wn10RyNtrM2Xfr0f157aL5DqJnvFy9Ub6f5LE+YqDtbDZ6zpLRpnVron8Y+tVEHswva5O+rMdgvUyVV++R2j3YPyxN00obe6SODrTf1gEVbWaqj51bbmP58Oq6aGB2X/3gb2ayvfKl631L3Szsv0uj9WDZePNIv9g851qrysb54/RqY/biA9PvS9LKfVPknBSfv/ISYq9uU80x9eHzVQODbcL2lF2C+7JE5sv6zDymlavjLZLKz+8XByb9dWuZs06GTfXPS89jRvrrJxxXfl1z1VV5O7V3tuxdIP+cLw17jk8KdmWbe/Cc9uF+d6QMVhvZqrXx4hqtGr6mym/O7q8zlwl7vC8ePf9o7at3nF5tepcbNfOMa5iTZg8xY/XD3im4v2crUb6iqj3vtyZWrt6i5rUQAABA3a8JsKzco7Isu/8teWGhE90a28jqL9pc7eQWF+npOdYp8BqBkNHfTklj7dcHKbo9/GLPJFzroEi3Mh23qHWBvpJ7zD+7RYm2g2sLO4puWeuYjtUxJ6G2fqAocuRvqwu48f1vtHlwrfSV6yk4HfSeFBd/3gteshhcOmWZDVao/vycLodFCdOlna7WS7F7bTZyWpMRUt8L0asJwG0S6TZwzKt8Nnh6XegiaBhcqvRegqkfdX2PtfXbui+Gf6iPGGo71+sTAneSed2a6B+GfjWRB2ZlPbcvUzOfRuvlRLBDmugfDNJU0w5w1o29n6VnSxN97NxyG8uHV9dFg20a9dUP/MaA7RXbvNg6rOuTmwv779JAPy69arxpSq/N9+XkpyzlcdwU1XY4e5zuO6b0rHgoSGj6/W/jA9uUHh2LumPblME2YXvF/i+yD+uH3l04fv6ev8g8y26Kkm0tmDOnv04V77fy6/1G50Smv102vrHoPGaiv37ouFRc1+QT19er8oCEvVPgn5WkZ8WnQOU89sN9zEP97pwyqAXZ1gfZlzKf5v32WZ7RF88PfA+M0+l1IkCQB2bGfMSY0jBaP2ztAuWBv+Qs34n0x577WzNLgvgAAOD3+DUBlscUd1we3kdOSldyvUCn+F3vjbu65vx2xBODK3e1Jw+S9wV3HRXBpMP70BElCre+nOiPXPdNkeNrW78yHtx/T14lYfPOxcmJ++JEe7vWoXbxN2j2XWfF1neB5IeDL9k08mg5NBOmQL7CJQnrK88k1NZ3FP2xdb9TsTbhnB1HAledtKSK90N3SdbuIkxjhUY3DnbrSxrvH7vbdrORc78TTsVE4XOmsOqBxjQO5SuQ5670cB8hDWyjaocPXRKa1q3J/qH3RxN58OyyrvdJqeLQlxpB8eF62ekD0lj7YluL+4fiiZmhCcSV6ymQ35kIy/OgbKdzjPSxhuU2nA8vrIuT5TaSvgH1ic3J3/S+ULeSB5eLJ1llUEcf6b/vO++WXxLWnwh44ngjSaeD/tZeNP5+OLXKt3bXfvKuZjc6c5zuO6b3g073CbTiLuqyXcz6fvPJoTT+q8Op7Iu/kMa5zvI2ZRqUXjIWDY9tD7SJp3nG+Dqtekqg6Jfuu2/XyWJCfyR9s/Jo0ThrKk+bfw519sv2vNHGSXR+j3VqB/YX9jHz+urppx0Gy6CYdL/VJtjb8+uDv10gCSdefP9AX9zJq4lz1G7epor/Hjo3AZ4Of2vbzF/m3j6v6PQlzx5TBsypH/afSI5/Vnj25bi7e7oeumZLwtqTX1LZ51Y3tLTGHwAA8OsRYOloP3KfX4yv3GN+p1f9MfL2RIu9U3Dy5bcmDGb9dkB50tpe3sBaeCuf7V0U1B6XPu8uqu7Vaj4mvz5I0VvfRHqxxEDSfOy6XGogCbfynUhvxeSx+xbJ8bcKk6n953lVLRdhydqqulAvJxmt8RNae1dsceKubvtPJOdULJMwNz9tr7jLslmW/ctXDOfnVD6Ys+UVd3k2ymTWif9K7rGZHmubKLqVd/jln2trzdy2La++NIW1Vuz2TAKtXL1FqvLyr+RFZvfAtevL+urpZriNbpqc+7IkVrjR5ZHt3TmKLpt7fchjptXd6Y/0EVXSW23H2ip5SmDWtG6N9w9j6R/LA7OynurLAkWb8F4/D6o9kTVVL21Pt/rn61huOREx2j/M7V+HyqC+rEuxjdjVbcaTQe187u9jDcttJB9eVxdHyq0nfeN9ta0/kXMfW8Nkzm8m2J4uQXUOsb56taefWkuqbH0Fl7IPeKT/LnX78a3ySbTnjzeSnEjudX0vXz+4VOVre83yP+86TyfOG6d7jimJdBsM8E99f6Wdq0b5rg+2LlNPCvlmfdmj+s51zNtUT/2etW/TsWh8bFvaJppLzOX1a+mDZKPH1FgOMu9T8nNXg/Pht/r5zl/Jq9/N366Ta1299hNdS85jJvrrh4+r2MvOleP78u/tNG9Dvn9qLMP0UB8z1e8WSw7n52XtpRWLvBgrA9vTzY0bY2dVp6fK77ke7ovb42640W3siZv29621Dval8wRHcPF0Lb+z9RVc6ucV3b7kJWPKyDFMjsvF01a+31ye+6Ex3f7Tal/Fk05PfKIVAAD8LFaWZdlnJwJ4qjTWfh3LvZlNPGJIorAzmZMq3q8Vu098sgr4CEkoa6vpSVV8LV+g3NJ4r/XV+/UTLGm8z4N7Y08yTm+EcRrAy6XxvhtIfdl4kii0Qm3o1wAAAH6Vf//9lydY8PM88+X2qDTXsDdfZx0Avq9E7wdbl18eXHkWxmkAH8bZqP6q93TqJSMLpXGoJHojuAIAAPAL/fPZCQCeK39fiOO+Pf/l9r+WLe8SyNpaqq9M7TzzvUAA8KXZ8jKCK8/BOA3gY6zcN0XxWmvrUPvX4CVPQ67co45P3iYAAAC+B5YIAwAAAAAAAAAAMMASYQAAAAAAAAAAAAsQYAEAAAAAAAAAADBEgAUAAAAAAAAAAMAQARYAAAAAAAAAAABDBFgAAAAAAAAAAAAMEWABAAAAAAAAAAAwRIAFAAAAAAAAAADAEAEWAAAAAAAAAAAAQwRYAAAAAAAAAAAADBFgAQAAAAAAAAAAMESABQAAAAAAAAAAwBABFgAAAAAAAAAAAEMEWAAAAAAAAAAAAAwRYAEAAAAAAAAAADBEgAUAAAAAAAAAAMAQARYAAAAAAAAAAABDBFgAAAAAAAAAAAAMEWABAAAAAAAAAAAwRIAFAAAAAAAAAADAEAEWAAAAAAAAAAAAQwRYAAAAAAAAAAAADBFgAQAAAAAAAAAAMESABQAAAAAAAAAAwBABFgAAAAAAAAAAAEMEWAAAAAAAAAAAAAwRYAEAAAAAAAAAADBEgAUAAAAAAAAAAMAQARYAAAAAAAAAAABDBFgAAAAAAAAAAAAMEWABAAAAAAAAAAAwRIAFAAAAAAAAAADAEAEWAAAAAAAAAAAAQwRYAAAAAAAAAAAADBFgMZYotCyFSfm/oSwrVDLnuy+UxntZ+1ip0a8+Ln3LfPX0PUuqeG9pH5uV3reUxtpbe80/1F+UN0/1gW1ntA/8/sz71t/Sb71GElqyLKu/TjXq2kf3Dabl+vXqQZW3Jn3wg4z7fAAAAAAAvhcCLL3yiZsPnYQAniSN9z96wvunyydB+/qesl8amYD+NvLJZwJnaEhjhX6gS5YpyzzZH1VP0lj7TwiGJKG14MaIhRp5e5S7+oidAgAAAADw8xFg6ZOeFStQ4JwUn5kA/BDc5QoVE45f6ZbvD5VPJm/9gU/DtQ6KdMsyZVmmS+Br+62DLI9ZVFee3s98vacUvrXrVSdno81np+MnluuXyVsAAAAAAH6Wfz47AV9R8n6Q3Ju8jWSFZ6WuK272xHexco/K3M9OBUwl4Va+E+n2Jv1dx80P01ih7yi6VX2R/SeS4x90TjzZ9ocn90G2vCz77ETgi0mvidQIAXxQPVm5On5Cp2l7mT6qFXTzFgAAAAAAPANPsHQkOvuO3N1KsncKTrGe+hBLEtaW+KktfZKEPcsCNe+izZd+qn47dnetyXfL/QytzV6t217/vFiuqLXh5vsK6tsdXgoljfey1geddNJh3ZeGsfSZLZvUfywTaU3C/P/rZbePlbb23c5jszLoJLTx207eFUvaNL5THk/POzGax23w1EN7P7WDSOO9rDBpHmc3E2q/3yu+Dh5w9fSGv+3Z1nU0rwfbVfnZPlZSptOwfjaOt7c883oQJtX2mu9oGkhXi+1lyo4DwdzrVSfZ2tQ/XO3kOlJyndlBDaWld3mk1vstDI5jXr1vvz8jUWjtFafjfVH13aG60u4PWv3nQD+zqK0moSxrqzwZfb8bP5b5++x5mqL9JM5IO13WNsbS2jyW4T61bBfj/WR9O+vDSTodtLb6y3C2nieVustx1fO19t8PlmvPkQ1+v/1+n3l1omgrSVnm0/W4k7fVB8/vN6f6/LG6OmhmXZoaN9vffcK43kz/UNn8pOUdAQAAAABtBFjakrN8x9VuJUm2dsFJh/cnXQonoaxtouiWL/GTZRfZh3V+AW/vFKi5JFkah/KdSH/s/KJ+fbCL9dMzZbdIyXZgcieN9feg2n4yeSN3uPvbs3bF926RdPjbnPAJN7f7di7Bqfh8pZ3rSP65NlGQ6P1wUuC5WilRaG2VRLXf2geteyZTVu5R2S2SI6dIc3N9+OH0pYr3ax3sy30ftyjRdmhSJQm1va9BX99PqngfalMrl+B00N965p4OWp9397x3TgetrbWuXrlfR/62mjQxKq+edDbryU2RDlrXJ7jWB6nM23ve9a+rn8b75nFfpHBeQhSur/Jqx+D42+aEk7/VX71V+db4vJXOzNN1e9Cpd1/5neqXQFJQlGet0p4OofRWpj9o5PVou6o2oO3Vyz8/mtXPch/r8vc95Z1nRVWHPHtmumbK7z5/wFhaikCNf65Pyr/rcArkuSuz4zDse5pOOqyH+6LKUF3p9gd5XcknSQf7mRll28v28jovKbh0j3WqX13cP3Skiv/W21mt7SxqGy1JqHW9TG+u4mJMHB4f6vnwd7jtNrIzz3s51TJ4Zf4aW+3kNpb4THROAgW66j7fn5zlK9CuXT8fKNc+s79v1HZOOmzLvjmvx2N1qpO3nv2ifnOqzx+pqzOM1qXJcbMvGx8c14sxrxlkaZeN4XkKAAAAAODbIcDSkpx9Oe6uWoZnF7SCCI9tW4FXmwS39SdyionN/L9P8fkePDjHpyItxX9Hf3Sfili58oKxd8TMf39McPHu213tXDmnahJq5R51rM3a27tqumvlegrk6z4vW5+wKv7bq//2TyRnQV4Opi89Kz45iv5UEzQr15t46qiW3upXco/HRrnsOrN6gS7lRFAxIe1EN1X/5MpRomtxt6p5eVW69WQl9y2SUx5XelWi4imre3pOuvY+HdKTFttrlOkwW17m1Y4hP+4GJ9LbfVt5vt2fqOjUAVveLVJ7E3M40VuVH/ZOwT2vp9pVqVZ+vWmbqJ+215gIzMt7JI2z0/UxxtOykus1+7n8+zvZk7/ts/zdVWN90aSe/kC2p0ug8TyfUbZLDB/LY/3DkGrsqCxqG1PbWLk6Ft8fGx9KY233dfIbAO55kl6V2Dvt7Kr/T6/JvY6bMK2jZt9fNm4vqVMv6Tdn9vl9dXUOs3GgNW72enBcly3v0j1HbJTNovMUAAAAAMB38msCLHOX3jj70umwrr6br0PTMym/ULmkTfG3PlT3duaTL+Uken5Rfp9EVytd1vDLsLVydbxFUvl941vm6xNgreVAGjvNJ9TLCZn6pGxxsNrWf7seenrBVD195XI/5V++tEsv27vf0d67HMqcvDUwu7waUl0Tydm01spfbWoTZxvZ9Ym4oq60f5K76nqS7M2cgEpPahrtZq3DjAI81SM9L3upciugNNKuhpnUz9YSL3Pr8qJ0da02T3jJylha7F0tWJr3g0H91v65x/Fw39NmMBnft4yapM1mKlyysGyNNY9lWf/QZyX3WNyt37f80EN1cKA/uhsbH4YMBYOfqx7MSM+x7J0texcU41U+WR50Hl9ZwjRgNPD9J7Qd4zr1in5ztM+fqKvGyro0Y9x82MBYutnMCMganKcAAAAAAL6dXxNgWbnHakmKgaU3yiW5brXvZcVSNE+76zy4NLbdWCKjtqxJeo51atyNmd9Z2f7t4JMIK1fHcpmMZDv6zoRhqeL9Vn7QXHKnrnrCJ393TePucdWX4yr/vCdOeEi6L/dT/+tfKitPsHdf2uO+HEoaa7/178vBlGX+cMpMyutupY3dClJIxVMrTffJtPVB9mXomDfamLyno669NFB2U2R6a7/JEwiPGGtXwz+aXT+TcK2Dan3D3CdxFqWrx2ZTu5O6kJ4VmwTPRtNSC5Ym5/vShIuO4yl9zwJ9eSTpeh2fNF5ctg9a1j8MWck9Diw/9FAdHOiPJM0ZHz7VaifXyYOG16vyALS9U+CflaRnxaee5cE+24Ntx7hOvaLfnOzzR+rqYvPHzeUGxtLrdUZA1vA8BQAAAADwrfyaAMu0+pJcTc9aJizfTjiyzn6+VM8pftd74+7aYrmTw/unvBi1uis0VRy27ru0/yhyfJ3D+rtrdL8jft67PkqGdzYXAannvCOn9gRIGqt9mGYeK69uPcnXrb8H3IoJ8HogcHhOrCctSXifuOu++LmTmuqJgOR91hMstQNp1YF8ff7JTSRXowm36XY1J21zfrNRlRXTx7EoXUN66nryftCpHQh5IC3lUj9h7zKJTzqOZ6vXlb7+IAm17QR+e/oZw7LtJsMkc0z7h3xitwryz2xHek7ZdbaRxtrXnq4YHR8+VZ7P/jnU2S/7sY02TqLze6zTjOXBFgWmP4X5mPOSfnNpny/l9Wrw6eI5SZsYNx/Wl8eJwq3fWjas/bOp85TiCTreyQIAAAAA3xYBllLPklx3i4IFPWxP2cVuLRXRWqrK3ik4+fJbd9eu3GN+t6fV/G3vZERjuav87uy3RTMM+Rrm9yVLrL+S1767u5jE8v1WcMqWVzwlUk/v4CTCypUXqFi+a+7LnovlRpLmMidDy440l7vK77z27Hzf+WEWn/2VPONHNdqHY1BebbaXvwx5XStD+1LdWWx7urlxscTK9LZX7lGXoLasy1aNNfTH0tH43Xln+GRPvv5+VX9CbW7jL622/5QvGjZYImdOu+pLm0H9tL3iZcbF9867GS/fNkzXvX6uDzrVlpTJs2El99hMwzaJdOt7KfnStBR3/Pt+qx80OY6n9T0zDqlTV7p5lL/0+th4f0i7n1lUtlUq8ndnFfVobpU16x+Kd0nc0xhqc6n3w81lutYHKXor6sWittE+xFZ/tI7l/rE1b3z4XKudK8f35d+DKSvtXMn3p5YHW1auD3mw7RiPOS/pN6f6/JG6+qipcfMJOmOptVUS3SaePDM7TwEAAAAAfD9WlmXZZycCwHxpvNf6YOtSX5YlCWVt1fy3SYlCK9TmxlIlAIDPk8Z7ra/eUwMiAAAAAAC82r///qt/PjsRABZovUg4vSaS4dtt0jhUEr3JI7gCAPg0id4Pti4ZwRUAAAAAwPfDEyzAt5Mq3q9b70MJDJ9eAQAAAAAAAAAs9e+//xJgAQAAAAAAAAAAMPHvv//yknsAAAAAAAAAAABTBFgAAAAAAAAAAAAMEWABAAAAAAAAAAAwRIAFAAAAAAAAAADAEAEWAAAAAAAAAAAAQwRYAAAAAAAAAAAADBFgAQAAAAAAAAAAMESABQAAAAAAAAAAwBABFgAAAAAAAAAAAEMEWAAAAAAAAAAAAAwRYAEAAAAAAAAAADBEgAUAAAAAAAAAAMAQARYAAAAAAAAAAABDBFgAAAAAAAAAAAAMEWABAAAAAAAAAAAwRIAFAAAAAAAAAADAEAEWAAAAAAAAAAAAQwRYAAAAAAAAAAAADBFgAQAAAAAAAAAAMESABQAAAAAAAAAAwBABFgAAAAAAAAAAAEMEWAAAAAAAAAAAAAwRYAEAAAAAAAAAADBEgAUAAAAAAAAAAMAQARYAAAAAAAAAAABDBFgAAAAAAAAAAAAM/O///q+sLMuyz04IAAAAAAAAAADAd8ITLAAAAAAAAAAAAIYIsAAAAAAAAAAAABgiwAIAAAAAAAAAAGCIAAsAAAAAAAAAAIAhAiwAAAAAAAAAAACGCLAAAAAAAAAAAAAYIsDyhSShJStMPjsZ+GTUg1Ki0LL0sqxIQllWKHL6q0kV7y3t4/RLbPtbtcc01t7a6yVZ9yzfpd19QDrTeC9rH+uzi+sV6ZjcZhprb1myrG/Uvh71Xeq+kVf215/su5XXh6b3I8v90XPBVlq/W7m2JWHeb1qf3+5eMXaYnnMtS0NeJyzLeu0Y/Iq69uHneT+4j3/Ud+9LnuCrnMe+1Gibe/FcxUt85TR/5bT9EN9hruCb+4UBlrzhWrW/D2nExWQCHQaAb+0L9GVJWO/DH7i4MT2WL3Ds6Erj/a+/yDXxFfIreT9I0U1Zlinz7M9JQ/jiybVP2n//dvNz3588SdYcFwbGiNrk9FeYoAbGdPvqVHHoK7hkyrJMR3f1ian7QuyNjHIieddBkW5ZpuzoamV4bvcVxtBeP+octQiC/YyDAYBv6cuOd1/Y7wqwpLH21lZJeVGfZcqyi7Sl0uCbeFXU+adHs3/g8X3MkxVf706SJLS0TYoL4yxTdpHCTyvYr5c/j/gqT+t8eDp+YP/wtaW6JpK9+bjJwe9wl+Wz6r39J5JzOui9tqk0DuUrkPeDJ2RtL6ud2+d/l0BSsJMt5e18K13Kz2+RdFg/sf/+WeNB3VcZG3DV9eRos/nsdHxdc+pqmg9AZkGZX+E1fdicMqGPwa/A9Qbw4/3z2Qn4SMn7QafgoqxxgWnLyz7g7smVq2Pmvn4/APBKn9qX5ROzjrurLoxtT8elXbjpsdCPf0kr9yiKZb7Pz6+rridJ3memoZiQ/4n7X7nygoO2Yaw/R1crJXo/nOREb/qcZ4U+SRor9B1Ft+KoV66O9Qxf7eQ6UnxNJZupVnw9nb46vSqRRHylstrY0tXsN9f2AGR4bvf5Y+iAH3WOupJ7zPRTjgYAvqMvO959Yb/oCZZEZ18KdhOXl63lA5p3POaPq4ZJbe3Wzp0erSXI7r/v3hXSWM6g966NoW2Vn+0VJ+U65gPR8PbxNJZLGNt+e7mFsWj7+DHXl2Co36GSxntZYVI8eja0Fu6MPEjr32mms7HtVv6PfdZYH35ijfjhfJpOX+f3I/tJ472s9UEnnXRY17aVhLL2sZLyePax0iTs7mvgronB7fbk0ejdRUU60nqd28dKNdZeDOpZUSbNdbSnl/oYO77Odjr1r5n20UckFx7/VB538yevT1tfkr+dKJf2kog97WOoDSahLGurfDfdZVfuu3x1uTestLGl0+F9vBxG+rW+/JnfL9e+35M/97GhrwyHyqjV19Tr8WT7a/x2r7gzyTC3/o7VqfY2pu5unPn9Rjk1x6T+dIyMBa11sHvr9UCiP6x/kDrtrDsnNL69sTGrf9m88pylyruq7nbTel08Fs85tvsXtW+0m9o41ne89/3MOf/qy4f8++vDSTodtG71Y33neIN1d7Cvax+fwZi+j5UO1XuDcbyt/hRLGofynUhv95uLxsaFvvX259zVfDUa58rPe5cza9QFszbW2Mz7QSfH1e7R2MloH1D/Tns8uH84Og53NzVeNnP64ufl69T5xni5my3J1sqngfF3KA+XnVPkJq8VJsaT3uXpBsdQg1UT6mWWhK2xqr2dOecfM84J+64FJ54suI6NtRN94vQ518R1lO0Vy0zOOTfO86jxnc52Z4w17fFqqt8f7UPGx9bp87zutqbPz/t+OtaHSVNtvb/9zSmTnu/05uVwXRg911u8LGR/PZj6/ejcwuJ5F/Nr0cacwKxtGJzj9fSvo31Aezu9/el4/z6er52dDLdH4/O4qTbXY6DOTV5vfGQe9Rxvns5559pj19qdMaNn6cLpp8rNjrU9xnXn+1pLbY69V2qk/pRlc2+rc65RO/k2fl4/fu3fcz4+dV0woz6P7nPJNfbo/PMvkP0Wtyhz5GTRbeQ7lyBT4zu3LHKUyYmyW/3/69+5BJkUZJf7/ypTcMm6LlkgZeVHt8hp/C7///pv8+87tQQ3t51/Xt9G/zFX+2ym9ZZFTv1YW/trHdewiXTW87S1ze4xF/n7QB7cIqcqr5Eyb+d/87t5OpzRylJtp5O+e32ZSF9POrp50tlh95guQc9vunnX3vfUdjt5VB7PUNra6Sjqnybq/VT+BZdsoC536+9Q0ublW7vc2/VxIg8XHv9oHo+0w+G+prmtTh2o5cPcNtjcTevfnl7uU+2v7Id7+r+ZfXi17WX9cpUf3fwZKtP+omqX0S2LnPy30+2v/duyv2n2Y7Prb9ZXp7rbKMu7/3hmfL+sL7V0NMt/KB3zx6uy3IbKuZvsj+of2ucOPecXQ9szGc8uQZHOnnOWkfxaPBZPHlsnM7rl0dPXNfNz+vxrOB/6y6Z3+3Pq7mCduGRB57xi6Bysm6ZuvTccx1vy7wZZ4HT7rOFxoa//HWs/0+WSXYJuvS4/H+izG/XXoA+bl+Z6OkeuCybLe84+p8fh7j77xvy59fM1+To4NkyV++zztG6aLkH523nn0rPPKab6jVZfOzWetH/fzKtH6nA3rVPXsuPnHzPPCVtppn1eoQAAH0hJREFUGzvXnB5rx/vEuedcY2XfNn1u3POdnmvA6bpdv54e6BdmjRnT17nD53mdHY6fny/qw+aNvcPtb2GZdP6tXRdq1wKt64/F14oN1far7Jsxpo/OLSyZd3nwWnTWNuakrfb5LcqcYlum59ud75fprW2/XX+m+uhWBsw4DzNpk0va3EidmzEf+TF5NDC/smhsb11r97SLIAg610/9/ZD53Fn7+rg7BgdZELTq78L6063v1f6H+/Hu8Q2d18+99m827+myHqvPpnNRk21+op/8DQiw1PQ2hsmJ90sWtDu83kpUr3z9HUt3wqK1nVuUOfd/m3vx2G4ww3lwCbqd+eRJyGQ6y0HAaXXgAycInQtEwzyof1408G4HPpz/jYvPuRdA7fT3BQh60z+jHrQNTgR261zf5NHgSXVnuwPfH+skO5/1bGOqHfblX9T9TV8e3SLn4XxrbKM3rSNtyPj4Z+TxSDucvGDpLavmPifb4MiE0fDA+Wi5zw1wlicJ1XfN+3DDfrl38sA0f1rHPXJBNV03+vrH4lhN62/nWIe2MVL35nx/Kt1j229tc3TCrGeSaH7/15/OR/qHwT5rNIBS257heDb62Yz8MhmLJ4+tmxuLAyzD51/j/cZkgGVh3R0dd4o0LQ+wGI7jHUUfWT/uyXFhWYBl7Ly4+5OR86AH+7BqF1OT2N2L3O5XTMt7Xr2eMyHb2YVx/Xxuvg4FWCavh+aep82dDGp8f+SCfeycYsbkeH28mBpPOsdZ3/cDdbib1qHttbc9FnQzPyecDLCYjLWNPnHJOVc2WfbPCrCM9mk9dai3v5nqQ6auc2ecL7V2OHn+adyHLenjG+1vYZl0/m3ghqZGvjfTanyt2Pym4VzNdF/Sd8yT8y4PX4su2EYrbc/sA7rfnxo3zfO1tcfR87B7mgyuUZqa6Z+sc3MDLC/No+H5laVje/O42nniZNElypzG/M7S8d70+viSBU6UXepB4Fb/NK5Zf6bnTfrS3Nri4Hn9nGs2wwDLZH02n2+YbPOG888/0S9aIkySTroOr1uRr+3ffnPgajNjzepqu7aX6RL42g480lY3/YLXcjvF3/qg02RaajYbOfJ1vj+9dpYvW/fdth7f2vr1xHnKLsH9MeHxR2LH05kvVXHSyYn0x3gB8CV5kOiaKl+LtniJad/ja6fy3zvHv5J7vClSuZzI2CNtrUcCG5k4kb7Cq170u9q5ck6xzqmk9Kz45MidvVZGvkZ+J22bjZynpnI6//zDQJm3HiVfH4xax0iSrrXHOsvHeMu//PH555iRx0btsCnNO7TWWt35Elufb0m7abPlZZlukVMsGfZIH17b6sPt0dYukPyi403ytSl709BfRtLs9tf727oH6+/1qlN9zLgnY6AXMP2+ibHxaqbT8AmAQTqW9w+dutlN4fD2BsezgbrydONj8fSxvUp5/vVgPjxSd2t1ovmY/VqPDkuPjeMbbZzmO6s+blyon2+3liZp1J2Vdq6jU3xWfohxa1mvJX1Y8c6Z+ru6GlLF+21r2TQDjT5gnHF+D435xvXzFfk6R+s6a+552sDxjaufSz92TjF8PTDym+JANxtH8s+qLrX81gvUX3ke2TZ8/vGR54T1sXaqT1zWZzevoz7G0ByCyTVjodGHTFznTp7nLWDQhw2r58czzulf5FXXigNG+5LF8y7P6EMmtjGYtoFrq6m9PeN8u749gz560XlYvU082uY+uM6VTMexwfmV/q0X7X3OtXY+DiXXVFKic+JqZ+/kqjiXTc7yjZdvLfv8OXMnOwXl95OzEncne+dKxflQcvZHzg+XnsfPn68cPq9/0dzbaH1+3j7vbX5q/vkX+D0BluJllv556LSnWNu/PSAULxQ0YXuZsixTdrF1WA+faCWTZ4eBLlmxrfufZ/yS0vv7E7aJolvx+zTWfusruFTbvgSdAyk+u8g+rEfWchxLZ6r470GKIgWng/5OrV16be/kwTxYuTpmmbLspijZNk5YnOjW2m6m4/1iO3+5XpZlukWJtr1rKRYX6cGl2kYnE6dN14OFVq684KTDe5JfXAee5s8l5BMznbRdr2ZBvlHz8i+4ZMrnFVttqf678s979pWio+jWrn9Hg3wcMzOPZ7fDplXeobXehZCfGI3ptsFne067Ka12rhwluqbP6cOf0R7tP5EcP1ScJjr7jqKByHJ/GUmz60bvb+serL+bTZG37WQM9AKm36++MN6vzBmvPoVZ/k5fcE5sr3c8G6grDzIdi599MW3uwXxYWnfrklDrg2pleFP0aGzxoXG8Z3MLx4VHJOFaB0W6lfXmFjUu3KqLzVTn+KTAc2sXvuZ9WBqH8hXI6/1SqnhfpOfoDl5gP8ui/O4b8xfUz2fn6yJzz9MGjm+ex88pxq8H5qgmV7ZJpFvjGD8orwtD5x+f0fbn9Ikvuwb6UHOuGYdMXOdOnud9tuee0z/dU68Vp9vLYF/y0LzLM/qQkW2Mpm3g2uqDze6jn3Ee9mib+5D5iS7TcWxwfmXUvGttexfkN3ikVyX2RiutlMc40skAx7g518e2dsFJ8TlVek3y4MGqDPDk4+LgjUqL64/BfOXgef2L5t5G6/Pr5vt6559/id8TYNFKrhdI/rbn5Z35kyb2LpD8sPlSsb+Hhy9o+9Kyc53Gi5rTeN+6k2GnQL5Ck7c0tuSN9jIyGDu6B6DTWOGim8jH05nGf3U4BfJcV94l0Onwt/lUTyPoUtx1GP3JG+ET8qBfN/8fUUXxU8VGmTijHvQaexKrKa/TW60PJwW7qa6tvt2+PEoUbv2qfJ5kTv6t3GP+ZFhx0dJtq3PMz7d8pzu5Tj4AvsYT8njsLrSe9lO1x1pHMNYG77t5/gXwonaTxtq37g6sv8j4sT58aXvsyZ+y7qy343fpdMooVbwPlcypG53fJgrrd8wsrb/1OtW3jSTUdihoNPv7vrb1FwCHvtQuo07dfsJ4Neq1/UOnbiZh8662xf1NT11JQqOn3SQ9NBZPHtscnTueTLcxIx/GLjJM6/qg+lPC7+ZPsPT06b3jeHG36eyXmFYbmxgXiovn4k6/++SZ4W66+63u6E/eW3f2FReb8fu74lOg+6nKojaRBxP6nxr8mOBKYzyYOw5PWVI/n5qvMr7r3eg8rSdNSWj2ovpl5+KPXg8UwavaxGRWr1sz8joJR16Iu8TQ+ceMupgHYYo7azX/HGjcUJ+4/Jxr0lOe0PgAU9e5U+d5L7LknH+y/c0pkyeX22Qf1PPy7bbGvEXyrsNpqM+d05csOI99xrXorG0Mp62Tj2msvfHJx1JL+ugHzsMebHPzxj3D641Jy8ex9vzKHLOute2dglOs9/dYZcVabWydru/jAY7pFM+aO8kDPO+qdr/Sxj7p+j7n6RnD+rNgvrJ/fm7OseUBkeqBgYn6OVmfnz/fNzn/PKPf/e5+UYBF+Z0B9SU2ikckdSkK3vaKSG7tsTD7YhB1bi2DsPUVXPojdvcOrXx88Orp1giR2vKKOxjqj/uZnISv3KMuaj6meF+2bOXqrX6sfyWvtv/m43H5nSn92TCSzjTW38OpygPb0yU46fC3dgxOJPe6buynirY/mAeNx13zi+pyOYiVe8zvMmrkTdnYm486rw9S9NZ3Mb6S+1avT38lLzJ6pG66HnR+oDxOWCvLMfZO+U0otYvrmdttp82ytkqim+FdfWPM8s/2ikfww6R4lNpuPe48soSWab6V6Tvmd4o325DJnR4Te5jI47F2mC+9VyxJ0DtK2fJa/d36YOvSvqNiog3+iZz7Y8fPGQwfaDcrV8eLGu12m9Qmyx7sw43b42D+5Ccskibu0mmX0Vqxm5/QTLe/9m9DbW4XVTfEmdffbp1ayT1eFNQfd98mim5Dd87N/L4T6bIJqzJS847fTjomxquHfUT/0K6b4Ua3xu2LE9ubGM8adWUrs8lbSQou8paOxZPHNic7Xb1FTnXHU7jRxbCMx/Jh5XoKyrvMe88hTOt6D9tr7v+8M3rSarBPnzuOz9vL5LhgexcFZTqsta5evV9ZsEevma/nXXd79i7Qyfd1agRGFozBYxNg5YXy/diePab3jQczx+HC8Ji/rH4+K1+nzzf6fmRyntY9vq3m3tz22Ln4+PXAjH3nJyUD1ymvP4/sS1P/+ceMulhep62rc6CHHkaY6BPNz7lm7HJJXX3I3GvGPlPXuVPnec+25Jx/uv3NKZOXlJvptWIPJ3J1LX+/9RVchvvc0b5k8bzLM/qQiW1MnWO3z/HWsVzzNd8XM+qjHzwPe7jNTdW5Rdcb0x4ZxxrzK3PMutbOnyLxfVXBFHunwPcXLA/WNGt+yt4pOPnyVe3L3gXy/YmnZxbVnwXzlQPn9dPHlve3zv1cKdTmMna+M12fnz3fNzr//EtYWZZln50IvEYStiYflQ/g69j9kKURpnyltPxc+R2bsfvMwAh+CtrgCyWhrK0GJ9IAYB7GceBrShR2JiNM2mui0Aq1MQnkzkoW5x/AlDTea331Bm7CYtwF8Co/t3+Zmn/WaL/7M/yuJ1h+o8aLFg3XE8f3Z/xSXADPMPZyewCYjXEc+NKaL4jNXxo7RxqHSqK3p7+PhfMPYEqi94Otyw+e5APwRf308/rB+eff0e/+89kJwOvY3kWBtZVVX+PT+ZgXe+JrSM+xTo6rNwoc+ECJzr4UXH72CQSA12McB74qW94lkLW11LzUmndX6so96vj0NHH+AUyz5WW0EQAf7yef10/NP/+GfpclwgAAAAAAAAAAAAyxRBgAAAAAAAAAAIAhAiwAAAAAAAAAAACGCLAAAAAAAAAAAAAYIsACAAAAAAAAAABgiAALAAAAAAAAAACAIQIsAAAAAAAAAAAAhgiwAAAAAAAAAAAAGCLAAgAAAAAAAAAAYIgACwAAAAAAAAAAgCECLJLSeC9rHyv97IR8CanivaV9/HNy40eXbxprb+318cX1+fXkI8o1CS1ZYTL2BVmWJcsq8yLPF8uy8rQ9s3ySUJYVaiQ1MJCERTl9SvsBAAAAAADAT0CABcDLJaH1/YNcaay9ZamKt6SKQ19OdFOWZTq6Kyl51+EU6JJlyo6uVh+dxiQkYDBHGiv0i3LKjnIXF1Si0PpZAWkAAAAAAADMR4AFTzd51z9g6Gs+hXTV9eTI3VWz8+k1kYKd7PIfVq6OD03gj/i0p5d+gOtVJ2ejzWenAwAAAAAAAN/aP5+dAAA/n+1lyj47EY9auTpmbvX/6VWJ1Jikv15PkrwPTliN7Sn79hn9eum1XXJL2fLIcAAAAAAAgF/rVz3Bksb7+/sSrMZSP7lr/fPOExj5UjDV76s7x7t31/csGzP4/oT8nQ1hUnt3Q5m22vsdunfvN78//G6GPC31w8nzof79vvdpXLvpqW817MuLfF9bX5K/HcjHIt2tf28+9TKc1/f0t/JjzlMzo+VbLP/U/rx3aatWWU7Vqzn7uW93HysdK/fG7/eKr6OHrE5e3rfXLYdGvvalZeL9H2P50CyzkTrf3arivaX14SSdDlr35IlRu514CqZRrwe2dW+b64NOOumwrn7TqPsD9bfZdso87WuD3bbbyM+e/Xf3N95PzKm7fW2grzznlX1tmyMNZThdZd2pyrXqNsLGb4aW7UrCVn0qNjCVF/PKLVFo7RWn9XrXesqo3QfwHhgAAAAAAIBv6/cEWNJYfw9SdMuUZfmfZ9c+Px0U6q347KLA39Ym2BKF1lZJ8a6FLMt0i6TDOp8UW+1cOadY5/sc21lJEEjXavY7OfvNpYNa/O1f6S3f9iWQ/K0lK9zoVqbndNDf+wxcqni/1sG+1NKTaNs7eWxrF0j++R4O0Dm2FQSJrvfNnRW3ljo6HcJ7erJLIH/bDCiEmyovLsFJh7+x0uJu7ksgKSjS5rWPeKWd60j+uTbRmyjPHnsyrxebKt/1VV6xv+wWySk+t3eBVC/b+3s3/sgu8mJ9sIt3OeS/TbZDaR3eTz2d6/OuSOdNkerlnihcH6R73ni6bg86DR50Ny8v9kHrMJG0kvtW23/ZPt5q7w05HbS+18FMl8AfqGOSklDrq1crM6dRZ/rU63y7jlVWco/59uREeVqOzTSatNvq+LvSeK/t/b0cmW6bMA+Y9LG9vPzkNPqURt0vy3hkH9lFChdU7JV77N1/c38T/cRUn1geak8bOMcnOe5Oq5595GU5EWgcM6Mu+dtQm1stzUkoa5vUjuUi+7DuTYPtteqTZ0/u06zcTjqsz9rV+6+/ZbtpteF7Gb5oGTkAAAAAAAC81O8JsEiSTorPA5NiTqS3+wxXHpRIyghEcpavQF5tBmzlvilyiu2tdnKdatvpNZG928m+BxFS5a9mGAqvSE70dp9gs3eBpECX+0Rynp5TGbApAiLRn2p7K9dT0JgErdh5hKVIy1VXbbTbqMqL61Unx1UtvtJIj+ydAlUBmZV7zF/oXd++gZXrKZCve8ynyN88vjKR10uNla9seZlXe2/GTm45S23/ae67EYwqJpqLYEuRWHnBUFpH9nMX6HKf5c6DUfdy7+SNLa81gd/Qk5f2n0hOWRdWrt4iR/52r30eXWlN8tbrYPHbgTom22sE01Y7dzhdhbE6Npthu20cf0O3LFfuMQ+YPE1PfbG9Rlt6qln9xIx2NdYGevYh28uDxOeFEZYZdclp1dU8gO3V/s3Wn8iZn4bRfZqXW3Cp2nkegL/qKhXLytWC2cXYcZ18Eg0AAAAAAABf0e8JsKxcHfNHIQaW/+kqJ7bTayJ1Xoi80qaaKa9NhOdPiOxsW7ugCCKkZ8WnIoDwNO2lgbYautm+MXmdnJW4O9k7V4rPyv/JL+5GH99fNQnYWnZp8Db/wQQ1nqqpP90zndfPc6rNajaXB1rrcH8spCjbIq/Sc9wJRp3KOlVfJmrA8H5GJNfqqRHjF3P72tbLat184iUPdp10OjUDEeZay0Stx56sGfKcieZTYyPjx99mb175GMFV19Or99E20k/M7hNH2sD1qpNstQ9ps5kKr41ZWJdaS7OtZzWuOft8RrkV/e9qI1vdYNXmGa+DAQAAAAAAwIf7PQEWqXhJdbH0UrIdXKO/87ONLZV3IN/lT6Xcv7Nzizvj8ydENsqf7PDPST4hObI82DKtpYGyTFk2tMyMrV3xVEV6TfKJwtVOrmKd00Rnv7k82LhU8X4rP2guCWQqf5IgVFzsv7wDfk5eP10Sat1YKummqDY/XC0Bl9/JHnhuIxjl1JagKv96726f2M8snbyZUlvW6P5X3V2fhFv5QaTI8bWdCjper4MT3Um41kHRfTmx9tJYn2f8+NsS40doTGy0cV69j7aJfmJmn5g/+XLQe9JqA5uNnJ4nj65X8/BaaXFdqvdJ5V/fmmfG+3x+ud2DsuuD7AvLgwEAAAAAAHxXvyvAspS9UyC/seZ+Gv/VoX7X/2on1/F1Ds/y7U01+Zic9R6fRpcHM1YsK3N4nx91sHeBTvG73mMVd0uvtLFPur6f5beeyJjDud9ynb+TpKP+1EWf8hjW2+b+Z+R1HoSpljnK349glv6u2l34yXvzyZJy2a/399aTSMWd/Yf30XeNzN7P5E/beZO/z2FwEz152ZCE2vqOoj9u830sd/WgS1HOjWWY2vvbqDq0JU+wTDANLk0df0O3LJ9Tr8b3oSQsghr5U1rlUyL3QObkNkee+lnQTwwrnjrbrnWot4G+fdzrVT1oatheDetSvgxi+Nh7mgb3OVZuhpKzfKcWyGm/9yYJZVkPvL8GAAAAAAAAH+r3BFiKiav70kyqv7thSv6uC9WWgspfbF6/Ez6fhPN9vwqmrHZy5ct/+vJgK7nH/I7z+pI4ljXyUnF7p+Dky1cVzLB3gXx/zvJgrX2/1fPir+Q17zDP39Vx0HrGskOSWvufkde2p0tQLX20vnqPvSvD9vIXuJf5eN51tmfvAp18v/Mk0so95i8Ob5TDwATpjP1MJLSVN6E2t4uGN2HLK1723agn+1ipEoVbv3qXxf19LPU6FCjahI02cxt4IsD28hfMl/s478bSZa58b8/2nv45xo6/bx/HRvmsr17+MvSnHkdzH9ZW98Ch7V0UlO3GWuvqTeThypUXSP7WkmXte4ILE/2EYZ94f9dSow2s5B6bZZ+/bL72VIZhe11Ul2xP2cVuLYdmzQ6CTO1zrNyM2J5ublyU8UR/AQAAAAAAgC/PyrIs++xE4JdKQllbtQJV+BIoG7SlsfbrWO6NJa2WSuN9N2BMWwMAAAAAAPi2fs8TLPhy6i+3B/C1NV5uj+Wc/B1dpfSlL5gCAAAAAADAKxFgwSdJlMdXCK8AX1/+cnuz5QTRtnLfFOnQWCKsu9wkAAAAAAAAvguWCAMAAAAAAAAAADDEEywAAAAAAAAAAACGCLAAAAAAAAAAAAAYIsACAAAAAAAAAABgiAALAAAAAAAAAACAIQIsAAAAAAAAAAAAhgiwAAAAAAAAAAAAGCLAAgAAAAAAAAAAYIgACwAAAAAAAAAAgCECLAAAAAAAAAAAAIYIsAAAAAAAAAAAABgiwAIAAAAAAAAAAGCIAAsAAAAAAAAAAIAhAiwAAAAAAAAAAACGCLAAAAAAAAAAAAAYIsACAAAAAAAAAABgiAALAAAAAAAAAACAIQIsAAAAAAAAAAAAhgiwAAAAAAAAAAAAGCLAAgAAAAAAAAAAYIgACwAAAAAAAAAAgCECLAAAAAAAAAAAAIYIsAAAAAAAAAAAABgiwAIAAAAAAAAAAGCIAAsAAAAAAAAAAIAhAiwAAAAAAAAAAACGCLAAAAAAAAAAAAAYIsACAAAAAAAAAABgiAALAAAAAAAAAACAIQIsAAAAAAAAAAAAhgiwAAAAAAAAAAAAGCLAAgAAAAAAAAAAYIgACwAAAAAAAAAAgCECLAAAAAAAAAAAAIYIsHyYRKFlKUz6PksV7y3t4/TF+6n2ZQ1/AQAAAAAAAAAATPiVAZYktGRZ9b+9nhLbAAAAAAAAAAAAv8IvC7DkT3dsk0i3LFNW/t1cxetQv+mZDmez+ewkAAAAAAAAAADwbf3z2Qn4SEm4le9Euh1dreofrFwds89KFQAAAAAAAAAA+G5+0RMsic6+FHit4Eqv4j0ltWXEOq8sScLmMmP7WM1VxvKnZQZ/P5HWzntU0lj7xlJmze0PvlMljbW36u93WWljm6QFAAAAAAAAAAC0/Z4AS3pVIkfTK2OlivdrHexLtYTYJZC/rQU8klDWNlF0K5cZuynSQet7kCVVvN/KDy73zzfhVv7zDqa1/UwXhd33yKSx9uuD7EumozsdVgIAAAAAAAAAAPP8ngBLR+sJEKt4B0t6VnxyFP2pPeZhe7oEkn/OIyxJ/iiMqpjFSu5bJOcU65z2bWMl93hR8Kyk96TR9o5qxFCusfbrWO4tk8cTKwAAAAAAAAAAPNUvC7CcdL2W/23Lqz2hcne96iRbm9YDH5uNU/xXqmvS85L41UbNOEZ3G08zkMY6/3DQ6UW7BwAAAAAAAADgt/s9AZaVKy+Q/LD9rpSWzUaOEl1bX7pey3BF/g6TUxWpyaVXNd+C0t3G0wyksS64ZLpF0mEdqv12FttjyTAAAAAAAAAAAB7xewIskmzvouBUf1dKj9VOrnPS4b0WlkhCbf1qSS57F0h+/Z0nqeK/B53KZcM62yjemTI7pRttnGpJMilRuK49kdKTxiTcd97BsnKPugS+to3jTRXvLVlhO+wCAAAAAAAAAADm+uezE/Cx8mXBdqGltXVofBJcsmKJr/x9KVdrK+seEXEU3WrvOLE93aK91mtLh2oDyrzmO1fq2wguN0Vaq/Xcy4D8nS7xuvy9o+gSydnGg9tXcFHW81CK7d0U7ddah5ta+gAAAAAAAAAAwCOsLMuyz04EAAAAAAAAAADAd/KrlggDAAAAAAAAAAB4BgIsAAAAAAAAAAAAhgiwAAAAAAAAAAAAGCLAAgAAAAAAAAAAYIgACwAAAAAAAAAAgCECLAAAAAAAAAAAAIYIsAAAAAAAAAAAABgiwAIAAAAAAAAAAGCIAAsAAAAAAAAAAIAhAiwAAAAAAAAAAACGCLAAAAAAAAAAAAAYIsACAAAAAAAAAABgiAALAAAAAAAAAACAIQIsAAAAAAAAAAAAhgiwAAAAAAAAAAAAGCLAAgAAAAAAAAAAYIgACwAAAAAAAAAAgCECLAAAAAAAAAAAAIYIsAAAAAAAAAAAABj6RQGW/6f/+e//0v/5v8X//t//o//67//R/ys//Z//1n/dPwQAAAAAAAAAABhmZVmWfXYiAAAAAAAAAAAAvpNf9AQLAAAAAAAAAADAcxBgAQAAAAAAAAAAMESABQAAAAAAAAAAwBABFgAAAAAAAAAAAEMEWAAAAAAAAAAAAAwRYAEAAAAAAAAAADBEgAUAAAAAAAAAAMAQARYAAAAAAAAAAABDBFgAAAAAAAAAAAAMZFlGgAUAAAAAAAAAAMAEARYAAAAAAAAAAABDBFgAAAAAAAAAAAAWIMACAAAAAAAAAAAwU5ZlkgiwAAAAAAAAAAAAGCPAAgAAAAAAAAAAYIgACwAAAAAAAAAAgCECLAAAAAAAAAAAAIYIsAAAAAAAAAAAABgiwAIAAAAAAAAAADCTZVmSCLAAAAAAAAAAAAAYI8ACAAAAAAAAAABgwLIsAiwAAAAAAAAAAAAmCLAAAAAAAAAAAAAYIsACAAAAAAAAAACwwP8Hx+YuKMQkOgwAAAAASUVORK5CYII=;fillColor=#424242;imageBackground=none;" parent="1" vertex="1">
                    <mxGeometry y="40" width="1628" height="792.95" as="geometry"/>
                </mxCell>
            </root>
        </mxGraphModel>
    </diagram>
    <diagram id="iAaYhFtdq0rwnrEoz4Ko" name="Diagram">
        <mxGraphModel dx="2980" dy="1690" grid="1" gridSize="10" guides="1" tooltips="1" connect="1" arrows="1" fold="1" page="1" pageScale="1" pageWidth="1600" pageHeight="900" math="0" shadow="0">
            <root>
                <mxCell id="UxS5vO754omxInx-nRrO-0"/>
                <mxCell id="UxS5vO754omxInx-nRrO-1" parent="UxS5vO754omxInx-nRrO-0"/>
                <mxCell id="eEcE5dqjcx6CU5Euk_YD-2" value="" style="edgeStyle=none;html=1;" parent="UxS5vO754omxInx-nRrO-1" source="eEcE5dqjcx6CU5Euk_YD-0" target="eEcE5dqjcx6CU5Euk_YD-1" edge="1">
                    <mxGeometry relative="1" as="geometry"/>
                </mxCell>
                <mxCell id="eEcE5dqjcx6CU5Euk_YD-0" value="" style="outlineConnect=0;dashed=0;verticalLabelPosition=bottom;verticalAlign=top;align=center;html=1;shape=mxgraph.aws3.user;fillColor=#D2D3D3;gradientColor=none;" parent="UxS5vO754omxInx-nRrO-1" vertex="1">
                    <mxGeometry x="40" y="290" width="45" height="63" as="geometry"/>
                </mxCell>
                <mxCell id="cImlKm137JUsySoIwqGq-1" value="" style="edgeStyle=none;html=1;" parent="UxS5vO754omxInx-nRrO-1" source="eEcE5dqjcx6CU5Euk_YD-1" target="cImlKm137JUsySoIwqGq-0" edge="1">
                    <mxGeometry relative="1" as="geometry"/>
                </mxCell>
                <mxCell id="eEcE5dqjcx6CU5Euk_YD-1" value="Un usuario nuevo se registra como referido de otro usuario (Wallet referido) pagando un fee (0.25 Bsc)." style="whiteSpace=wrap;html=1;verticalAlign=middle;fillColor=#303030;dashed=0;gradientColor=none;align=center;" parent="UxS5vO754omxInx-nRrO-1" vertex="1">
                    <mxGeometry x="120" y="280" width="170" height="80" as="geometry"/>
                </mxCell>
                <mxCell id="DIKwp7WH_rV6DLpLhPs8-1" value="" style="edgeStyle=none;html=1;" parent="UxS5vO754omxInx-nRrO-1" source="cImlKm137JUsySoIwqGq-0" edge="1">
                    <mxGeometry relative="1" as="geometry">
                        <mxPoint x="550" y="180" as="targetPoint"/>
                        <Array as="points">
                            <mxPoint x="460" y="180"/>
                        </Array>
                    </mxGeometry>
                </mxCell>
                <mxCell id="XnQvhNlUesndukltAPSy-1" value="" style="edgeStyle=none;html=1;entryX=0.421;entryY=-0.025;entryDx=0;entryDy=0;entryPerimeter=0;" parent="UxS5vO754omxInx-nRrO-1" source="cImlKm137JUsySoIwqGq-0" target="XnQvhNlUesndukltAPSy-2" edge="1">
                    <mxGeometry relative="1" as="geometry">
                        <mxPoint x="460" y="451.5" as="targetPoint"/>
                    </mxGeometry>
                </mxCell>
                <mxCell id="cImlKm137JUsySoIwqGq-0" value="el nuevo usuario se vuelve level 1 y puede aceptar 9 referidos para el nivel 1 divididos en grupos de 3 en cada momento." style="whiteSpace=wrap;html=1;verticalAlign=middle;fillColor=#303030;dashed=0;gradientColor=none;" parent="UxS5vO754omxInx-nRrO-1" vertex="1">
                    <mxGeometry x="370" y="281.5" width="180" height="80" as="geometry"/>
                </mxCell>
                <mxCell id="jh6vxc-mKZLEM6dpU0_i-1" value="" style="edgeStyle=none;html=1;entryX=0;entryY=0.5;entryDx=0;entryDy=0;" parent="UxS5vO754omxInx-nRrO-1" edge="1">
                    <mxGeometry relative="1" as="geometry">
                        <mxPoint x="783" y="169" as="sourcePoint"/>
                        <mxPoint x="867" y="169" as="targetPoint"/>
                    </mxGeometry>
                </mxCell>
                <mxCell id="3vlLXUfGD3bEvnmVMORs-1" style="edgeStyle=none;html=1;exitX=0.75;exitY=0;exitDx=0;exitDy=0;" parent="UxS5vO754omxInx-nRrO-1" source="DIKwp7WH_rV6DLpLhPs8-0" target="3vlLXUfGD3bEvnmVMORs-0" edge="1">
                    <mxGeometry relative="1" as="geometry"/>
                </mxCell>
                <mxCell id="DIKwp7WH_rV6DLpLhPs8-0" value="el Fee de cada usuario se reparte asi:&amp;nbsp; &lt;br&gt;Los primeros 2 usuarios de cada grupo de 3 ( 70% referidor y 30 % para el negocio&amp;nbsp; &lt;br&gt;&amp;nbsp;{ Wallets de cada uno } )." style="whiteSpace=wrap;html=1;fillColor=#303030;dashed=0;gradientColor=none;" parent="UxS5vO754omxInx-nRrO-1" vertex="1">
                    <mxGeometry x="554" y="130" width="233" height="80" as="geometry"/>
                </mxCell>
                <mxCell id="3vlLXUfGD3bEvnmVMORs-2" style="edgeStyle=none;html=1;exitX=0.5;exitY=0;exitDx=0;exitDy=0;entryX=0.665;entryY=1.025;entryDx=0;entryDy=0;entryPerimeter=0;" parent="UxS5vO754omxInx-nRrO-1" source="jh6vxc-mKZLEM6dpU0_i-0" target="3vlLXUfGD3bEvnmVMORs-0" edge="1">
                    <mxGeometry relative="1" as="geometry"/>
                </mxCell>
                <mxCell id="jh6vxc-mKZLEM6dpU0_i-0" value="el Fee del 3° usuario se reparte:&lt;br&gt;50% para la wallet del referidor y 50% para la wallet del negocio." style="whiteSpace=wrap;html=1;fillColor=#303030;dashed=0;gradientColor=none;" parent="UxS5vO754omxInx-nRrO-1" vertex="1">
                    <mxGeometry x="867" y="130" width="180" height="80" as="geometry"/>
                </mxCell>
                <mxCell id="3vlLXUfGD3bEvnmVMORs-0" value="esta reparticion se repite 3 veces, lo que cubre a los 9 usuarios de ese nivel." style="rounded=0;whiteSpace=wrap;html=1;labelBorderColor=none;fillColor=#303030;" parent="UxS5vO754omxInx-nRrO-1" vertex="1">
                    <mxGeometry x="690" y="-30" width="260" height="80" as="geometry"/>
                </mxCell>
                <mxCell id="hPNQdAQp8xXimQNCEHfE-2" value="" style="edgeStyle=none;html=1;" parent="UxS5vO754omxInx-nRrO-1" source="XnQvhNlUesndukltAPSy-2" target="hPNQdAQp8xXimQNCEHfE-1" edge="1">
                    <mxGeometry relative="1" as="geometry"/>
                </mxCell>
                <mxCell id="XnQvhNlUesndukltAPSy-2" value="Cuando se completa el nivel 1 el usuario puede pagar 0.05 eth a la wallet del negocio para subir al nivel 2." style="whiteSpace=wrap;html=1;fillColor=#303030;rounded=0;labelBorderColor=none;" parent="UxS5vO754omxInx-nRrO-1" vertex="1">
                    <mxGeometry x="360" y="440" width="240" height="80" as="geometry"/>
                </mxCell>
                <mxCell id="jVxcG2BiUGeE0H5P8EOq-1" style="edgeStyle=none;html=1;exitX=0.25;exitY=0;exitDx=0;exitDy=0;entryX=0.412;entryY=1.025;entryDx=0;entryDy=0;entryPerimeter=0;" parent="UxS5vO754omxInx-nRrO-1" source="hPNQdAQp8xXimQNCEHfE-1" target="DIKwp7WH_rV6DLpLhPs8-0" edge="1">
                    <mxGeometry relative="1" as="geometry"/>
                </mxCell>
                <mxCell id="jVxcG2BiUGeE0H5P8EOq-2" style="edgeStyle=none;html=1;exitX=0.75;exitY=0;exitDx=0;exitDy=0;entryX=0.333;entryY=1;entryDx=0;entryDy=0;entryPerimeter=0;" parent="UxS5vO754omxInx-nRrO-1" source="hPNQdAQp8xXimQNCEHfE-1" target="jh6vxc-mKZLEM6dpU0_i-0" edge="1">
                    <mxGeometry relative="1" as="geometry"/>
                </mxCell>
                <mxCell id="jVxcG2BiUGeE0H5P8EOq-4" value="" style="edgeStyle=none;html=1;" parent="UxS5vO754omxInx-nRrO-1" source="hPNQdAQp8xXimQNCEHfE-1" target="jVxcG2BiUGeE0H5P8EOq-3" edge="1">
                    <mxGeometry relative="1" as="geometry"/>
                </mxCell>
                <mxCell id="hPNQdAQp8xXimQNCEHfE-1" value="Hay un total de 10 niveles y cada nivel sigue la misma logica de pago de referidos y cada nivel acepta a 9 usuarios referidos." style="whiteSpace=wrap;html=1;fillColor=#303030;rounded=0;labelBorderColor=none;" parent="UxS5vO754omxInx-nRrO-1" vertex="1">
                    <mxGeometry x="680" y="440" width="200" height="80" as="geometry"/>
                </mxCell>
                <mxCell id="jVxcG2BiUGeE0H5P8EOq-3" value="Cada que se completan los 9 referidos de cada nivel, el usuario puede pagar 0.05 eth a la wallet del negocio para subir de nivel, Solo se Permiten 10 Niveles a cada Usuario." style="whiteSpace=wrap;html=1;fillColor=#303030;rounded=0;labelBorderColor=none;" parent="UxS5vO754omxInx-nRrO-1" vertex="1">
                    <mxGeometry x="960" y="440" width="240" height="80" as="geometry"/>
                </mxCell>
                <mxCell id="VKO7SWcuqZckmXffQ6Ze-0" value="&lt;font style=&quot;font-size: 16px&quot;&gt;Considerar los costos de gas, haciendo el codigo lo mas optimo posible.&lt;br&gt;&lt;br&gt;Entregar antes del Jueves 25 a las 12:00 pm.&lt;/font&gt;" style="shape=process;whiteSpace=wrap;html=1;backgroundOutline=1;labelBackgroundColor=none;labelBorderColor=none;fillColor=#424242;" parent="UxS5vO754omxInx-nRrO-1" vertex="1">
                    <mxGeometry x="20" y="-120" width="450" height="160" as="geometry"/>
                </mxCell>
                <mxCell id="EpSMziO-z8jyTbKZVTCq-0" value="Contract Referral" style="swimlane;" parent="UxS5vO754omxInx-nRrO-1" vertex="1">
                    <mxGeometry x="460" y="710" width="483.75" height="355" as="geometry">
                        <mxRectangle x="40" y="640" width="130" height="23" as="alternateBounds"/>
                    </mxGeometry>
                </mxCell>
                <mxCell id="EpSMziO-z8jyTbKZVTCq-2" value="Variables:&lt;br&gt;&lt;ul&gt;&lt;li&gt;owner (wallet del negocio).&lt;/li&gt;&lt;li&gt;struct User: nombre, level,&amp;nbsp;Num_Referidos_ PorLevel, Wallet_Referidor.&lt;/li&gt;&lt;/ul&gt;&lt;ul&gt;&lt;li&gt;const max_levels, max_referUsers const Fee_Per_User,&amp;nbsp; const Fee_Per_Level.&lt;/li&gt;&lt;li&gt;mapping de balances(registrar balance del owner y de los usuarios&amp;nbsp;&lt;/li&gt;&lt;/ul&gt;&lt;span&gt;con referidos).&lt;br&gt;&lt;/span&gt;&lt;br&gt;&lt;br&gt;Funciones:&lt;br&gt;&lt;ul&gt;&lt;li&gt;Constructor.&lt;/li&gt;&lt;li&gt;Registrar Usuario. / Aceptar Referido.&lt;/li&gt;&lt;li&gt;Calcular / Repartir&amp;nbsp;Fees.&lt;/li&gt;&lt;li&gt;Subir de Nivel.&lt;/li&gt;&lt;li&gt;Cobrar Fees.&lt;/li&gt;&lt;/ul&gt;" style="text;html=1;align=left;verticalAlign=top;resizable=0;points=[];autosize=1;strokeColor=none;fillColor=none;" parent="EpSMziO-z8jyTbKZVTCq-0" vertex="1">
                    <mxGeometry x="3.75" y="20" width="480" height="320" as="geometry"/>
                </mxCell>
                <mxCell id="EpSMziO-z8jyTbKZVTCq-3" value="Constructor" style="swimlane;" parent="UxS5vO754omxInx-nRrO-1" vertex="1">
                    <mxGeometry x="12.5" y="1200" width="282.5" height="120" as="geometry"/>
                </mxCell>
                <mxCell id="EpSMziO-z8jyTbKZVTCq-4" value="Steps:&lt;br&gt;&lt;ul&gt;&lt;li&gt;&lt;span&gt;Setear la wallet del negocio como owner.&lt;/span&gt;&lt;/li&gt;&lt;/ul&gt;" style="text;html=1;align=left;verticalAlign=top;resizable=0;points=[];autosize=1;strokeColor=none;fillColor=none;" parent="EpSMziO-z8jyTbKZVTCq-3" vertex="1">
                    <mxGeometry x="7.5" y="40" width="270" height="60" as="geometry"/>
                </mxCell>
                <mxCell id="EpSMziO-z8jyTbKZVTCq-5" value="Registrar Usuario. (Public payable)" style="swimlane;overflow=visible;verticalAlign=middle;" parent="UxS5vO754omxInx-nRrO-1" vertex="1">
                    <mxGeometry x="380" y="1120" width="563.75" height="445" as="geometry">
                        <mxRectangle x="40" y="640" width="130" height="23" as="alternateBounds"/>
                    </mxGeometry>
                </mxCell>
                <mxCell id="EpSMziO-z8jyTbKZVTCq-6" value="Recibe:&lt;br&gt;&lt;ul&gt;&lt;li&gt;nombre de usuario&lt;/li&gt;&lt;li&gt;wallet del referidor.&lt;/li&gt;&lt;/ul&gt;Steps:&lt;br&gt;&lt;ul&gt;&lt;li&gt;Validar que el usuario manda los fees correspondientes,&amp;nbsp;&lt;/li&gt;&lt;/ul&gt;en caso contrario rechazar el registro.&lt;ul&gt;&lt;li&gt;Si viene referido, validar que el referidor no ha completado sus&amp;nbsp; 9&amp;nbsp;&lt;/li&gt;&lt;/ul&gt;&lt;span style=&quot;text-align: justify&quot;&gt;referidos del nivel, en caso contrario rechazar el registro, hasta que el user actualice su nivel.&lt;br&gt;&lt;/span&gt;&lt;ul&gt;&lt;li&gt;Validar que el referidor no ha completado sus 10 niveles,&lt;/li&gt;&lt;/ul&gt;en caso contario rechazar el registro.&lt;span style=&quot;text-align: justify&quot;&gt;&lt;br&gt;&lt;/span&gt;&lt;ul&gt;&lt;li&gt;Registrar el usuario, asignandole el level 1.&lt;/li&gt;&lt;li&gt;Actualizar el struct del user referidor con el numero de usuarios que lleva referido en el nivel.&lt;/li&gt;&lt;/ul&gt;&lt;ul&gt;&lt;li&gt;Llamar a la funcion que calcula y actualiza los balances.&lt;/li&gt;&lt;li&gt;Retornar la confirmacion / evento del registro llevado a cabo exitosamente.&lt;/li&gt;&lt;/ul&gt;" style="text;align=left;verticalAlign=top;resizable=0;points=[];autosize=1;strokeColor=none;fillColor=none;spacing=2;html=1;" parent="EpSMziO-z8jyTbKZVTCq-5" vertex="1">
                    <mxGeometry x="3.75" y="25" width="550" height="390" as="geometry"/>
                </mxCell>
                <mxCell id="qnC2Wq7h_jaAF6Hh2epO-0" value="Calcular Fees. (private)" style="swimlane;overflow=visible;verticalAlign=middle;" parent="UxS5vO754omxInx-nRrO-1" vertex="1">
                    <mxGeometry x="1020" y="1140" width="310" height="240" as="geometry">
                        <mxRectangle x="40" y="640" width="130" height="23" as="alternateBounds"/>
                    </mxGeometry>
                </mxCell>
                <mxCell id="qnC2Wq7h_jaAF6Hh2epO-2" value="Steps:&lt;br&gt;&lt;ul&gt;&lt;li&gt;Identificar el numero del usuario en el grupo&lt;/li&gt;&lt;/ul&gt;(1°, 2° o 3°).&lt;br&gt;&lt;ul&gt;&lt;li&gt;Calcular los porcentajes correspondientes&lt;/li&gt;&lt;/ul&gt;&lt;span&gt;&amp;nbsp;al usuario y al negocio en base al numero de usuario.&lt;/span&gt;&lt;ul&gt;&lt;li&gt;Actualizar los balances del mapping para cada&lt;/li&gt;&lt;/ul&gt;&lt;span&gt;&amp;nbsp;uno de ellos.&lt;/span&gt;" style="text;html=1;align=left;verticalAlign=top;resizable=0;points=[];autosize=1;strokeColor=none;fillColor=none;" parent="qnC2Wq7h_jaAF6Hh2epO-0" vertex="1">
                    <mxGeometry y="30" width="300" height="190" as="geometry"/>
                </mxCell>
                <mxCell id="qnC2Wq7h_jaAF6Hh2epO-4" value="" style="endArrow=classic;html=1;entryX=-0.01;entryY=0.521;entryDx=0;entryDy=0;entryPerimeter=0;" parent="UxS5vO754omxInx-nRrO-1" target="qnC2Wq7h_jaAF6Hh2epO-2" edge="1">
                    <mxGeometry width="50" height="50" relative="1" as="geometry">
                        <mxPoint x="944" y="1243" as="sourcePoint"/>
                        <mxPoint x="994" y="1245" as="targetPoint"/>
                    </mxGeometry>
                </mxCell>
                <mxCell id="qnC2Wq7h_jaAF6Hh2epO-5" value="Subir Nivel. (public payable)" style="swimlane;" parent="UxS5vO754omxInx-nRrO-1" vertex="1">
                    <mxGeometry x="1040" y="1440" width="383.75" height="350" as="geometry"/>
                </mxCell>
                <mxCell id="qnC2Wq7h_jaAF6Hh2epO-6" value="Steps:&lt;br&gt;&lt;ul&gt;&lt;li&gt;Validar que el usario envio el Fee correcto,&lt;/li&gt;&lt;/ul&gt;&lt;span&gt;si no rechazar la Tx.&lt;/span&gt;&lt;ul&gt;&lt;li&gt;&lt;span&gt;Validar que el usuario ya lleno sus 9 sitios del nivel anterior,&lt;/span&gt;&lt;/li&gt;&lt;/ul&gt;&lt;span&gt;si no rechazar la Tx.&lt;/span&gt;&lt;ul&gt;&lt;li&gt;&lt;span&gt;Validar que el user no a alcanzado el&amp;nbsp; nivel 10, si ya lo&lt;/span&gt;&lt;/li&gt;&lt;/ul&gt;&lt;span&gt;alcanzo rechazar la Tx.&lt;/span&gt;&lt;ul&gt;&lt;li&gt;&lt;span&gt;Hacer el pago del Fee al wallet del negocio (Owner).&lt;/span&gt;&lt;/li&gt;&lt;li&gt;&lt;span&gt;Actualizar el level del usuario en la structura User y el&amp;nbsp;&lt;/span&gt;&lt;/li&gt;&lt;/ul&gt;&lt;span&gt;numero de referidos resetearlo a 0.&lt;br&gt;&lt;ul&gt;&lt;li&gt;lanzar un evento que confirme que el usuario subio de nivel.&lt;/li&gt;&lt;/ul&gt;&lt;/span&gt;" style="text;html=1;align=left;verticalAlign=top;resizable=0;points=[];autosize=1;strokeColor=none;fillColor=none;" parent="qnC2Wq7h_jaAF6Hh2epO-5" vertex="1">
                    <mxGeometry x="3.75" y="30" width="380" height="320" as="geometry"/>
                </mxCell>
                <mxCell id="qnC2Wq7h_jaAF6Hh2epO-7" value="" style="shape=curlyBracket;whiteSpace=wrap;html=1;rounded=1;flipH=1;fillColor=none;direction=south;" parent="UxS5vO754omxInx-nRrO-1" vertex="1">
                    <mxGeometry x="-40" y="1070" width="1440" height="40" as="geometry"/>
                </mxCell>
                <mxCell id="_wV5sau5CZmFmBhhNpXO-0" value="Cobrar Fees (public) Reentrancy guard" style="swimlane;" parent="UxS5vO754omxInx-nRrO-1" vertex="1">
                    <mxGeometry x="30" y="1600" width="447.5" height="200" as="geometry"/>
                </mxCell>
                <mxCell id="_wV5sau5CZmFmBhhNpXO-1" value="Steps:&lt;br&gt;&lt;ul&gt;&lt;li&gt;Validar que el usuario tiene balance disponible para retirar en el contrato,&lt;/li&gt;&lt;/ul&gt;&lt;span&gt;si no rechazar la Tx.&lt;/span&gt;&lt;br&gt;&lt;ul&gt;&lt;li&gt;Obtener el balance que el msg.sender tiene disponible en el mapping.&lt;/li&gt;&lt;li&gt;actualizar el mapping con su balance a 0.&lt;/li&gt;&lt;li&gt;transferir el balance disponible al usuario.&lt;/li&gt;&lt;/ul&gt;" style="text;html=1;align=left;verticalAlign=top;resizable=0;points=[];autosize=1;strokeColor=none;fillColor=none;" parent="_wV5sau5CZmFmBhhNpXO-0" vertex="1">
                    <mxGeometry x="3.75" y="25" width="440" height="160" as="geometry"/>
                </mxCell>
                <mxCell id="_wV5sau5CZmFmBhhNpXO-2" value="" style="sketch=0;html=1;aspect=fixed;strokeColor=none;shadow=0;align=center;verticalAlign=top;fillColor=#2D9C5E;shape=mxgraph.gcp2.check" parent="UxS5vO754omxInx-nRrO-1" vertex="1">
                    <mxGeometry x="170" y="1170" width="37.5" height="30" as="geometry"/>
                </mxCell>
                <mxCell id="_wV5sau5CZmFmBhhNpXO-3" value="" style="sketch=0;html=1;aspect=fixed;strokeColor=none;shadow=0;align=center;verticalAlign=top;fillColor=#2D9C5E;shape=mxgraph.gcp2.check" parent="UxS5vO754omxInx-nRrO-1" vertex="1">
                    <mxGeometry x="1140" y="1110" width="37.5" height="30" as="geometry"/>
                </mxCell>
                <mxCell id="ANnHJM-PV964MUTMgUKA-0" value="" style="sketch=0;html=1;aspect=fixed;strokeColor=none;shadow=0;align=center;verticalAlign=top;fillColor=#2D9C5E;shape=mxgraph.gcp2.check" vertex="1" parent="UxS5vO754omxInx-nRrO-1">
                    <mxGeometry x="730" y="1090" width="37.5" height="30" as="geometry"/>
                </mxCell>
                <mxCell id="pLEf2TT-GDrUofcGTbVn-0" value="" style="sketch=0;html=1;aspect=fixed;strokeColor=none;shadow=0;align=center;verticalAlign=top;fillColor=#2D9C5E;shape=mxgraph.gcp2.check" vertex="1" parent="UxS5vO754omxInx-nRrO-1">
                    <mxGeometry x="1220" y="1410" width="37.5" height="30" as="geometry"/>
                </mxCell>
                <mxCell id="pLEf2TT-GDrUofcGTbVn-1" value="" style="sketch=0;html=1;aspect=fixed;strokeColor=none;shadow=0;align=center;verticalAlign=top;fillColor=#2D9C5E;shape=mxgraph.gcp2.check" vertex="1" parent="UxS5vO754omxInx-nRrO-1">
                    <mxGeometry x="180" y="1565" width="37.5" height="30" as="geometry"/>
                </mxCell>
            </root>
        </mxGraphModel>
    </diagram>
</mxfile>